<?xml version="1.0" encoding="utf-8" standalone="no"?>
<!DOCTYPE svg PUBLIC "-//W3C//DTD SVG 1.1//EN"
  "http://www.w3.org/Graphics/SVG/1.1/DTD/svg11.dtd">
<svg xmlns:xlink="http://www.w3.org/1999/xlink" width="460.8pt" height="345.6pt" viewBox="0 0 460.8 345.6" xmlns="http://www.w3.org/2000/svg" version="1.1">
 <metadata>
  <rdf:RDF xmlns:dc="http://purl.org/dc/elements/1.1/" xmlns:cc="http://creativecommons.org/ns#" xmlns:rdf="http://www.w3.org/1999/02/22-rdf-syntax-ns#">
   <cc:Work>
    <dc:type rdf:resource="http://purl.org/dc/dcmitype/StillImage"/>
    <dc:date>2024-11-04T11:55:41.860400</dc:date>
    <dc:format>image/svg+xml</dc:format>
    <dc:creator>
     <cc:Agent>
      <dc:title>Matplotlib v3.9.2, https://matplotlib.org/</dc:title>
     </cc:Agent>
    </dc:creator>
   </cc:Work>
  </rdf:RDF>
 </metadata>
 <defs>
  <style type="text/css">*{stroke-linejoin: round; stroke-linecap: butt}</style>
 </defs>
 <g id="figure_1">
  <g id="patch_1">
   <path d="M 0 345.6 
L 460.8 345.6 
L 460.8 0 
L 0 0 
z
" style="fill: #ffffff"/>
  </g>
  <g id="axes_1">
   <g id="patch_2">
    <path d="M 57.6 307.584 
L 414.72 307.584 
L 414.72 41.472 
L 57.6 41.472 
z
" style="fill: #ffffff"/>
   </g>
   <g id="matplotlib.axis_1">
    <g id="xtick_1">
     <g id="line2d_1">
      <path d="M 57.6 307.584 
L 57.6 41.472 
" clip-path="url(#p5f20d8ed87)" style="fill: none; stroke: #b0b0b0; stroke-width: 0.8; stroke-linecap: square"/>
     </g>
     <g id="line2d_2">
      <defs>
       <path id="mc275403c7a" d="M 0 0 
L 0 3.5 
" style="stroke: #000000; stroke-width: 0.8"/>
      </defs>
      <g>
       <use xlink:href="#mc275403c7a" x="57.6" y="307.584" style="stroke: #000000; stroke-width: 0.8"/>
      </g>
     </g>
     <g id="text_1">
      <!-- 0 -->
      <g transform="translate(54.121094 322.182437) scale(0.1 -0.1)">
       <defs>
        <path id="DejaVuSerif-Bold-30" d="M 2228 275 
Q 2603 275 2742 615 
Q 2881 956 2881 2328 
Q 2881 3691 2742 4037 
Q 2603 4384 2228 4384 
Q 1853 4384 1714 4043 
Q 1575 3703 1575 2328 
Q 1575 956 1714 615 
Q 1853 275 2228 275 
z
M 2228 -91 
Q 1294 -91 797 532 
Q 300 1156 300 2328 
Q 300 3500 797 4125 
Q 1294 4750 2228 4750 
Q 3159 4750 3656 4125 
Q 4153 3500 4153 2328 
Q 4153 1156 3656 532 
Q 3159 -91 2228 -91 
z
" transform="scale(0.015625)"/>
       </defs>
       <use xlink:href="#DejaVuSerif-Bold-30"/>
      </g>
     </g>
    </g>
    <g id="xtick_2">
     <g id="line2d_3">
      <path d="M 102.24 307.584 
L 102.24 41.472 
" clip-path="url(#p5f20d8ed87)" style="fill: none; stroke: #b0b0b0; stroke-width: 0.8; stroke-linecap: square"/>
     </g>
     <g id="line2d_4">
      <g>
       <use xlink:href="#mc275403c7a" x="102.24" y="307.584" style="stroke: #000000; stroke-width: 0.8"/>
      </g>
     </g>
     <g id="text_2">
      <!-- 25 -->
      <g transform="translate(95.282188 322.182437) scale(0.1 -0.1)">
       <defs>
        <path id="DejaVuSerif-Bold-32" d="M 844 3513 
L 469 3513 
L 469 4519 
Q 850 4634 1223 4692 
Q 1597 4750 1978 4750 
Q 2869 4750 3367 4386 
Q 3866 4022 3866 3372 
Q 3866 2909 3591 2542 
Q 3316 2175 2541 1672 
L 1241 819 
L 3450 819 
L 3450 1369 
L 3878 1369 
L 3878 0 
L 428 0 
L 428 763 
L 1119 1241 
Q 2003 1850 2297 2278 
Q 2591 2706 2591 3278 
Q 2591 3819 2367 4101 
Q 2144 4384 1716 4384 
Q 1347 4384 1125 4161 
Q 903 3938 844 3513 
z
" transform="scale(0.015625)"/>
        <path id="DejaVuSerif-Bold-35" d="M 3609 4666 
L 3609 3847 
L 1113 3847 
L 1113 2822 
Q 1319 2981 1572 3062 
Q 1825 3144 2106 3144 
Q 2969 3144 3469 2708 
Q 3969 2272 3969 1522 
Q 3969 759 3469 334 
Q 2969 -91 2069 -91 
Q 1688 -91 1311 -28 
Q 934 34 525 166 
L 525 1184 
L 900 1184 
Q 919 725 1139 500 
Q 1359 275 1791 275 
Q 2250 275 2472 583 
Q 2694 891 2694 1522 
Q 2694 2144 2476 2451 
Q 2259 2759 1819 2759 
Q 1581 2759 1395 2661 
Q 1209 2563 1050 2356 
L 738 2356 
L 738 4666 
L 3609 4666 
z
" transform="scale(0.015625)"/>
       </defs>
       <use xlink:href="#DejaVuSerif-Bold-32"/>
       <use xlink:href="#DejaVuSerif-Bold-35" x="69.580078"/>
      </g>
     </g>
    </g>
    <g id="xtick_3">
     <g id="line2d_5">
      <path d="M 146.88 307.584 
L 146.88 41.472 
" clip-path="url(#p5f20d8ed87)" style="fill: none; stroke: #b0b0b0; stroke-width: 0.8; stroke-linecap: square"/>
     </g>
     <g id="line2d_6">
      <g>
       <use xlink:href="#mc275403c7a" x="146.88" y="307.584" style="stroke: #000000; stroke-width: 0.8"/>
      </g>
     </g>
     <g id="text_3">
      <!-- 50 -->
      <g transform="translate(139.922188 322.182437) scale(0.1 -0.1)">
       <use xlink:href="#DejaVuSerif-Bold-35"/>
       <use xlink:href="#DejaVuSerif-Bold-30" x="69.580078"/>
      </g>
     </g>
    </g>
    <g id="xtick_4">
     <g id="line2d_7">
      <path d="M 191.52 307.584 
L 191.52 41.472 
" clip-path="url(#p5f20d8ed87)" style="fill: none; stroke: #b0b0b0; stroke-width: 0.8; stroke-linecap: square"/>
     </g>
     <g id="line2d_8">
      <g>
       <use xlink:href="#mc275403c7a" x="191.52" y="307.584" style="stroke: #000000; stroke-width: 0.8"/>
      </g>
     </g>
     <g id="text_4">
      <!-- 75 -->
      <g transform="translate(184.562188 322.182437) scale(0.1 -0.1)">
       <defs>
        <path id="DejaVuSerif-Bold-37" d="M 3922 3872 
L 1997 0 
L 1363 0 
L 3238 3781 
L 934 3781 
L 934 3150 
L 506 3150 
L 506 4666 
L 3922 4666 
L 3922 3872 
z
" transform="scale(0.015625)"/>
       </defs>
       <use xlink:href="#DejaVuSerif-Bold-37"/>
       <use xlink:href="#DejaVuSerif-Bold-35" x="69.580078"/>
      </g>
     </g>
    </g>
    <g id="xtick_5">
     <g id="line2d_9">
      <path d="M 236.16 307.584 
L 236.16 41.472 
" clip-path="url(#p5f20d8ed87)" style="fill: none; stroke: #b0b0b0; stroke-width: 0.8; stroke-linecap: square"/>
     </g>
     <g id="line2d_10">
      <g>
       <use xlink:href="#mc275403c7a" x="236.16" y="307.584" style="stroke: #000000; stroke-width: 0.8"/>
      </g>
     </g>
     <g id="text_5">
      <!-- 100 -->
      <g transform="translate(225.723281 322.182437) scale(0.1 -0.1)">
       <defs>
        <path id="DejaVuSerif-Bold-31" d="M 878 0 
L 878 378 
L 1753 378 
L 1753 4153 
L 781 3578 
L 781 4044 
L 1953 4750 
L 2938 4750 
L 2938 378 
L 3816 378 
L 3816 0 
L 878 0 
z
" transform="scale(0.015625)"/>
       </defs>
       <use xlink:href="#DejaVuSerif-Bold-31"/>
       <use xlink:href="#DejaVuSerif-Bold-30" x="69.580078"/>
       <use xlink:href="#DejaVuSerif-Bold-30" x="139.160156"/>
      </g>
     </g>
    </g>
    <g id="xtick_6">
     <g id="line2d_11">
      <path d="M 280.8 307.584 
L 280.8 41.472 
" clip-path="url(#p5f20d8ed87)" style="fill: none; stroke: #b0b0b0; stroke-width: 0.8; stroke-linecap: square"/>
     </g>
     <g id="line2d_12">
      <g>
       <use xlink:href="#mc275403c7a" x="280.8" y="307.584" style="stroke: #000000; stroke-width: 0.8"/>
      </g>
     </g>
     <g id="text_6">
      <!-- 125 -->
      <g transform="translate(270.363281 322.182437) scale(0.1 -0.1)">
       <use xlink:href="#DejaVuSerif-Bold-31"/>
       <use xlink:href="#DejaVuSerif-Bold-32" x="69.580078"/>
       <use xlink:href="#DejaVuSerif-Bold-35" x="139.160156"/>
      </g>
     </g>
    </g>
    <g id="xtick_7">
     <g id="line2d_13">
      <path d="M 325.44 307.584 
L 325.44 41.472 
" clip-path="url(#p5f20d8ed87)" style="fill: none; stroke: #b0b0b0; stroke-width: 0.8; stroke-linecap: square"/>
     </g>
     <g id="line2d_14">
      <g>
       <use xlink:href="#mc275403c7a" x="325.44" y="307.584" style="stroke: #000000; stroke-width: 0.8"/>
      </g>
     </g>
     <g id="text_7">
      <!-- 150 -->
      <g transform="translate(315.003281 322.182437) scale(0.1 -0.1)">
       <use xlink:href="#DejaVuSerif-Bold-31"/>
       <use xlink:href="#DejaVuSerif-Bold-35" x="69.580078"/>
       <use xlink:href="#DejaVuSerif-Bold-30" x="139.160156"/>
      </g>
     </g>
    </g>
    <g id="xtick_8">
     <g id="line2d_15">
      <path d="M 370.08 307.584 
L 370.08 41.472 
" clip-path="url(#p5f20d8ed87)" style="fill: none; stroke: #b0b0b0; stroke-width: 0.8; stroke-linecap: square"/>
     </g>
     <g id="line2d_16">
      <g>
       <use xlink:href="#mc275403c7a" x="370.08" y="307.584" style="stroke: #000000; stroke-width: 0.8"/>
      </g>
     </g>
     <g id="text_8">
      <!-- 175 -->
      <g transform="translate(359.643281 322.182437) scale(0.1 -0.1)">
       <use xlink:href="#DejaVuSerif-Bold-31"/>
       <use xlink:href="#DejaVuSerif-Bold-37" x="69.580078"/>
       <use xlink:href="#DejaVuSerif-Bold-35" x="139.160156"/>
      </g>
     </g>
    </g>
    <g id="xtick_9">
     <g id="line2d_17">
      <path d="M 414.72 307.584 
L 414.72 41.472 
" clip-path="url(#p5f20d8ed87)" style="fill: none; stroke: #b0b0b0; stroke-width: 0.8; stroke-linecap: square"/>
     </g>
     <g id="line2d_18">
      <g>
       <use xlink:href="#mc275403c7a" x="414.72" y="307.584" style="stroke: #000000; stroke-width: 0.8"/>
      </g>
     </g>
     <g id="text_9">
      <!-- 200 -->
      <g transform="translate(404.283281 322.182437) scale(0.1 -0.1)">
       <use xlink:href="#DejaVuSerif-Bold-32"/>
       <use xlink:href="#DejaVuSerif-Bold-30" x="69.580078"/>
       <use xlink:href="#DejaVuSerif-Bold-30" x="139.160156"/>
      </g>
     </g>
    </g>
    <g id="text_10">
     <!-- Epochs -->
     <g transform="translate(214.02375 337.38025) scale(0.12 -0.12)">
      <defs>
       <path id="DejaVuSerif-45" d="M 353 0 
L 353 331 
L 947 331 
L 947 4331 
L 353 4331 
L 353 4666 
L 4109 4666 
L 4109 3628 
L 3725 3628 
L 3725 4281 
L 1581 4281 
L 1581 2719 
L 3109 2719 
L 3109 3303 
L 3494 3303 
L 3494 1753 
L 3109 1753 
L 3109 2338 
L 1581 2338 
L 1581 384 
L 3775 384 
L 3775 1038 
L 4159 1038 
L 4159 0 
L 353 0 
z
" transform="scale(0.015625)"/>
       <path id="DejaVuSerif-70" d="M 1313 1825 
L 1313 1497 
Q 1313 897 1542 583 
Q 1772 269 2209 269 
Q 2650 269 2876 622 
Q 3103 975 3103 1663 
Q 3103 2353 2876 2703 
Q 2650 3053 2209 3053 
Q 1772 3053 1542 2737 
Q 1313 2422 1313 1825 
z
M 738 2988 
L 184 2988 
L 184 3322 
L 1313 3322 
L 1313 2803 
Q 1481 3116 1742 3264 
Q 2003 3413 2388 3413 
Q 3000 3413 3387 2928 
Q 3775 2444 3775 1663 
Q 3775 881 3387 395 
Q 3000 -91 2388 -91 
Q 2003 -91 1742 57 
Q 1481 206 1313 519 
L 1313 -997 
L 1856 -997 
L 1856 -1331 
L 184 -1331 
L 184 -997 
L 738 -997 
L 738 2988 
z
" transform="scale(0.015625)"/>
       <path id="DejaVuSerif-6f" d="M 1925 219 
Q 2388 219 2623 584 
Q 2859 950 2859 1663 
Q 2859 2375 2623 2739 
Q 2388 3103 1925 3103 
Q 1463 3103 1227 2739 
Q 991 2375 991 1663 
Q 991 950 1228 584 
Q 1466 219 1925 219 
z
M 1925 -91 
Q 1200 -91 759 389 
Q 319 869 319 1663 
Q 319 2456 758 2934 
Q 1197 3413 1925 3413 
Q 2653 3413 3092 2934 
Q 3531 2456 3531 1663 
Q 3531 869 3092 389 
Q 2653 -91 1925 -91 
z
" transform="scale(0.015625)"/>
       <path id="DejaVuSerif-63" d="M 3291 997 
Q 3169 466 2822 187 
Q 2475 -91 1925 -91 
Q 1200 -91 759 389 
Q 319 869 319 1663 
Q 319 2459 759 2936 
Q 1200 3413 1925 3413 
Q 2241 3413 2553 3339 
Q 2866 3266 3181 3116 
L 3181 2266 
L 2847 2266 
Q 2781 2703 2561 2903 
Q 2341 3103 1931 3103 
Q 1466 3103 1228 2742 
Q 991 2381 991 1663 
Q 991 944 1227 581 
Q 1463 219 1931 219 
Q 2303 219 2525 412 
Q 2747 606 2828 997 
L 3291 997 
z
" transform="scale(0.015625)"/>
       <path id="DejaVuSerif-68" d="M 263 0 
L 263 331 
L 781 331 
L 781 4531 
L 231 4531 
L 231 4863 
L 1356 4863 
L 1356 2731 
Q 1516 3069 1770 3241 
Q 2025 3413 2363 3413 
Q 2913 3413 3172 3097 
Q 3431 2781 3431 2113 
L 3431 331 
L 3944 331 
L 3944 0 
L 2356 0 
L 2356 331 
L 2853 331 
L 2853 1931 
Q 2853 2541 2704 2764 
Q 2556 2988 2175 2988 
Q 1775 2988 1565 2697 
Q 1356 2406 1356 1850 
L 1356 331 
L 1856 331 
L 1856 0 
L 263 0 
z
" transform="scale(0.015625)"/>
       <path id="DejaVuSerif-73" d="M 359 184 
L 359 959 
L 691 959 
Q 703 588 923 403 
Q 1144 219 1575 219 
Q 1963 219 2166 364 
Q 2369 509 2369 788 
Q 2369 1006 2220 1140 
Q 2072 1275 1594 1428 
L 1178 1569 
Q 750 1706 558 1912 
Q 366 2119 366 2438 
Q 366 2894 700 3153 
Q 1034 3413 1625 3413 
Q 1888 3413 2178 3344 
Q 2469 3275 2778 3144 
L 2778 2419 
L 2447 2419 
Q 2434 2741 2221 2922 
Q 2009 3103 1644 3103 
Q 1281 3103 1095 2975 
Q 909 2847 909 2591 
Q 909 2381 1050 2254 
Q 1191 2128 1613 1997 
L 2069 1856 
Q 2541 1709 2748 1489 
Q 2956 1269 2956 922 
Q 2956 450 2595 179 
Q 2234 -91 1600 -91 
Q 1278 -91 972 -22 
Q 666 47 359 184 
z
" transform="scale(0.015625)"/>
      </defs>
      <use xlink:href="#DejaVuSerif-45"/>
      <use xlink:href="#DejaVuSerif-70" x="72.998047"/>
      <use xlink:href="#DejaVuSerif-6f" x="137.011719"/>
      <use xlink:href="#DejaVuSerif-63" x="197.216797"/>
      <use xlink:href="#DejaVuSerif-68" x="253.222656"/>
      <use xlink:href="#DejaVuSerif-73" x="317.626953"/>
     </g>
    </g>
   </g>
   <g id="matplotlib.axis_2">
    <g id="ytick_1">
     <g id="line2d_19">
      <path d="M 57.6 302.488228 
L 414.72 302.488228 
" clip-path="url(#p5f20d8ed87)" style="fill: none; stroke: #b0b0b0; stroke-width: 0.8; stroke-linecap: square"/>
     </g>
     <g id="line2d_20">
      <defs>
       <path id="m26e9ede077" d="M 0 0 
L -3.5 0 
" style="stroke: #000000; stroke-width: 0.8"/>
      </defs>
      <g>
       <use xlink:href="#m26e9ede077" x="57.6" y="302.488228" style="stroke: #000000; stroke-width: 0.8"/>
      </g>
     </g>
     <g id="text_11">
      <!-- 1.0 -->
      <g transform="translate(33.203125 306.287447) scale(0.1 -0.1)">
       <defs>
        <path id="DejaVuSerif-Bold-2e" d="M 519 506 
Q 519 750 694 925 
Q 869 1100 1113 1100 
Q 1359 1100 1534 925 
Q 1709 750 1709 506 
Q 1709 259 1534 84 
Q 1359 -91 1113 -91 
Q 869 -91 694 84 
Q 519 259 519 506 
z
" transform="scale(0.015625)"/>
       </defs>
       <use xlink:href="#DejaVuSerif-Bold-31"/>
       <use xlink:href="#DejaVuSerif-Bold-2e" x="69.580078"/>
       <use xlink:href="#DejaVuSerif-Bold-30" x="104.394531"/>
      </g>
     </g>
    </g>
    <g id="ytick_2">
     <g id="line2d_21">
      <path d="M 57.6 267.686064 
L 414.72 267.686064 
" clip-path="url(#p5f20d8ed87)" style="fill: none; stroke: #b0b0b0; stroke-width: 0.8; stroke-linecap: square"/>
     </g>
     <g id="line2d_22">
      <g>
       <use xlink:href="#m26e9ede077" x="57.6" y="267.686064" style="stroke: #000000; stroke-width: 0.8"/>
      </g>
     </g>
     <g id="text_12">
      <!-- 1.2 -->
      <g transform="translate(33.203125 271.485283) scale(0.1 -0.1)">
       <use xlink:href="#DejaVuSerif-Bold-31"/>
       <use xlink:href="#DejaVuSerif-Bold-2e" x="69.580078"/>
       <use xlink:href="#DejaVuSerif-Bold-32" x="104.394531"/>
      </g>
     </g>
    </g>
    <g id="ytick_3">
     <g id="line2d_23">
      <path d="M 57.6 232.883901 
L 414.72 232.883901 
" clip-path="url(#p5f20d8ed87)" style="fill: none; stroke: #b0b0b0; stroke-width: 0.8; stroke-linecap: square"/>
     </g>
     <g id="line2d_24">
      <g>
       <use xlink:href="#m26e9ede077" x="57.6" y="232.883901" style="stroke: #000000; stroke-width: 0.8"/>
      </g>
     </g>
     <g id="text_13">
      <!-- 1.4 -->
      <g transform="translate(33.203125 236.683119) scale(0.1 -0.1)">
       <defs>
        <path id="DejaVuSerif-Bold-34" d="M 4084 0 
L 1516 0 
L 1516 378 
L 2209 378 
L 2209 1228 
L 263 1228 
L 263 1588 
L 2216 4750 
L 3391 4750 
L 3391 1631 
L 4191 1631 
L 4191 1228 
L 3391 1228 
L 3391 378 
L 4084 378 
L 4084 0 
z
M 2209 1631 
L 2209 3897 
L 819 1631 
L 2209 1631 
z
" transform="scale(0.015625)"/>
       </defs>
       <use xlink:href="#DejaVuSerif-Bold-31"/>
       <use xlink:href="#DejaVuSerif-Bold-2e" x="69.580078"/>
       <use xlink:href="#DejaVuSerif-Bold-34" x="104.394531"/>
      </g>
     </g>
    </g>
    <g id="ytick_4">
     <g id="line2d_25">
      <path d="M 57.6 198.081737 
L 414.72 198.081737 
" clip-path="url(#p5f20d8ed87)" style="fill: none; stroke: #b0b0b0; stroke-width: 0.8; stroke-linecap: square"/>
     </g>
     <g id="line2d_26">
      <g>
       <use xlink:href="#m26e9ede077" x="57.6" y="198.081737" style="stroke: #000000; stroke-width: 0.8"/>
      </g>
     </g>
     <g id="text_14">
      <!-- 1.6 -->
      <g transform="translate(33.203125 201.880956) scale(0.1 -0.1)">
       <defs>
        <path id="DejaVuSerif-Bold-36" d="M 1575 2766 
Q 1778 2928 2029 3009 
Q 2281 3091 2578 3091 
Q 3294 3091 3701 2672 
Q 4109 2253 4109 1522 
Q 4109 750 3650 329 
Q 3191 -91 2344 -91 
Q 1388 -91 895 486 
Q 403 1063 403 2181 
Q 403 3453 950 4101 
Q 1497 4750 2572 4750 
Q 2853 4750 3175 4703 
Q 3497 4656 3866 4563 
L 3866 3738 
L 3488 3738 
Q 3409 4056 3192 4220 
Q 2975 4384 2631 4384 
Q 2075 4384 1826 4003 
Q 1578 3622 1575 2766 
z
M 2272 275 
Q 2594 275 2731 548 
Q 2869 822 2869 1497 
Q 2869 2172 2731 2445 
Q 2594 2719 2272 2719 
Q 1950 2719 1814 2445 
Q 1678 2172 1678 1497 
Q 1678 822 1814 548 
Q 1950 275 2272 275 
z
" transform="scale(0.015625)"/>
       </defs>
       <use xlink:href="#DejaVuSerif-Bold-31"/>
       <use xlink:href="#DejaVuSerif-Bold-2e" x="69.580078"/>
       <use xlink:href="#DejaVuSerif-Bold-36" x="104.394531"/>
      </g>
     </g>
    </g>
    <g id="ytick_5">
     <g id="line2d_27">
      <path d="M 57.6 163.279573 
L 414.72 163.279573 
" clip-path="url(#p5f20d8ed87)" style="fill: none; stroke: #b0b0b0; stroke-width: 0.8; stroke-linecap: square"/>
     </g>
     <g id="line2d_28">
      <g>
       <use xlink:href="#m26e9ede077" x="57.6" y="163.279573" style="stroke: #000000; stroke-width: 0.8"/>
      </g>
     </g>
     <g id="text_15">
      <!-- 1.8 -->
      <g transform="translate(33.203125 167.078792) scale(0.1 -0.1)">
       <defs>
        <path id="DejaVuSerif-Bold-38" d="M 2975 2484 
Q 3531 2394 3820 2075 
Q 4109 1756 4109 1241 
Q 4109 597 3623 253 
Q 3138 -91 2222 -91 
Q 1306 -91 818 253 
Q 331 597 331 1241 
Q 331 1756 622 2075 
Q 913 2394 1466 2484 
Q 975 2597 731 2861 
Q 488 3125 488 3531 
Q 488 4125 931 4437 
Q 1375 4750 2222 4750 
Q 3066 4750 3511 4437 
Q 3956 4125 3956 3531 
Q 3956 3125 3711 2861 
Q 3466 2597 2975 2484 
z
M 2747 3519 
Q 2747 4013 2628 4198 
Q 2509 4384 2222 4384 
Q 1931 4384 1814 4198 
Q 1697 4013 1697 3519 
Q 1697 3028 1814 2845 
Q 1931 2663 2222 2663 
Q 2513 2663 2630 2845 
Q 2747 3028 2747 3519 
z
M 2869 1294 
Q 2869 1866 2723 2081 
Q 2578 2297 2222 2297 
Q 1863 2297 1719 2081 
Q 1575 1866 1575 1294 
Q 1575 716 1720 495 
Q 1866 275 2222 275 
Q 2575 275 2722 495 
Q 2869 716 2869 1294 
z
" transform="scale(0.015625)"/>
       </defs>
       <use xlink:href="#DejaVuSerif-Bold-31"/>
       <use xlink:href="#DejaVuSerif-Bold-2e" x="69.580078"/>
       <use xlink:href="#DejaVuSerif-Bold-38" x="104.394531"/>
      </g>
     </g>
    </g>
    <g id="ytick_6">
     <g id="line2d_29">
      <path d="M 57.6 128.477409 
L 414.72 128.477409 
" clip-path="url(#p5f20d8ed87)" style="fill: none; stroke: #b0b0b0; stroke-width: 0.8; stroke-linecap: square"/>
     </g>
     <g id="line2d_30">
      <g>
       <use xlink:href="#m26e9ede077" x="57.6" y="128.477409" style="stroke: #000000; stroke-width: 0.8"/>
      </g>
     </g>
     <g id="text_16">
      <!-- 2.0 -->
      <g transform="translate(33.203125 132.276628) scale(0.1 -0.1)">
       <use xlink:href="#DejaVuSerif-Bold-32"/>
       <use xlink:href="#DejaVuSerif-Bold-2e" x="69.580078"/>
       <use xlink:href="#DejaVuSerif-Bold-30" x="104.394531"/>
      </g>
     </g>
    </g>
    <g id="ytick_7">
     <g id="line2d_31">
      <path d="M 57.6 93.675246 
L 414.72 93.675246 
" clip-path="url(#p5f20d8ed87)" style="fill: none; stroke: #b0b0b0; stroke-width: 0.8; stroke-linecap: square"/>
     </g>
     <g id="line2d_32">
      <g>
       <use xlink:href="#m26e9ede077" x="57.6" y="93.675246" style="stroke: #000000; stroke-width: 0.8"/>
      </g>
     </g>
     <g id="text_17">
      <!-- 2.2 -->
      <g transform="translate(33.203125 97.474464) scale(0.1 -0.1)">
       <use xlink:href="#DejaVuSerif-Bold-32"/>
       <use xlink:href="#DejaVuSerif-Bold-2e" x="69.580078"/>
       <use xlink:href="#DejaVuSerif-Bold-32" x="104.394531"/>
      </g>
     </g>
    </g>
    <g id="ytick_8">
     <g id="line2d_33">
      <path d="M 57.6 58.873082 
L 414.72 58.873082 
" clip-path="url(#p5f20d8ed87)" style="fill: none; stroke: #b0b0b0; stroke-width: 0.8; stroke-linecap: square"/>
     </g>
     <g id="line2d_34">
      <g>
       <use xlink:href="#m26e9ede077" x="57.6" y="58.873082" style="stroke: #000000; stroke-width: 0.8"/>
      </g>
     </g>
     <g id="text_18">
      <!-- 2.4 -->
      <g transform="translate(33.203125 62.672301) scale(0.1 -0.1)">
       <use xlink:href="#DejaVuSerif-Bold-32"/>
       <use xlink:href="#DejaVuSerif-Bold-2e" x="69.580078"/>
       <use xlink:href="#DejaVuSerif-Bold-34" x="104.394531"/>
      </g>
     </g>
    </g>
    <g id="text_19">
     <!-- NLL Loss -->
     <g transform="translate(26.7075 203.407687) rotate(-90) scale(0.12 -0.12)">
      <defs>
       <path id="DejaVuSerif-4e" d="M 313 0 
L 313 331 
L 941 331 
L 941 4331 
L 313 4331 
L 313 4666 
L 1509 4666 
L 4306 984 
L 4306 4331 
L 3681 4331 
L 3681 4666 
L 5319 4666 
L 5319 4331 
L 4691 4331 
L 4691 -91 
L 4313 -91 
L 1325 3841 
L 1325 331 
L 1953 331 
L 1953 0 
L 313 0 
z
" transform="scale(0.015625)"/>
       <path id="DejaVuSerif-4c" d="M 353 0 
L 353 331 
L 947 331 
L 947 4331 
L 353 4331 
L 353 4666 
L 2175 4666 
L 2175 4331 
L 1581 4331 
L 1581 384 
L 3713 384 
L 3713 1166 
L 4097 1166 
L 4097 0 
L 353 0 
z
" transform="scale(0.015625)"/>
       <path id="DejaVuSerif-20" transform="scale(0.015625)"/>
      </defs>
      <use xlink:href="#DejaVuSerif-4e"/>
      <use xlink:href="#DejaVuSerif-4c" x="87.5"/>
      <use xlink:href="#DejaVuSerif-4c" x="153.90625"/>
      <use xlink:href="#DejaVuSerif-20" x="220.3125"/>
      <use xlink:href="#DejaVuSerif-4c" x="252.099609"/>
      <use xlink:href="#DejaVuSerif-6f" x="318.505859"/>
      <use xlink:href="#DejaVuSerif-73" x="378.710938"/>
      <use xlink:href="#DejaVuSerif-73" x="430.029297"/>
     </g>
    </g>
    <g id="text_20">
     <!-- 1e9 -->
     <g transform="translate(57.6 38.472) scale(0.1 -0.1)">
      <defs>
       <path id="DejaVuSerif-Bold-65" d="M 2566 1875 
Q 2566 2531 2444 2795 
Q 2322 3059 2028 3059 
Q 1744 3059 1620 2800 
Q 1497 2541 1497 1931 
L 1497 1875 
L 2566 1875 
z
M 3781 1503 
L 1497 1503 
L 1497 1478 
Q 1497 834 1690 548 
Q 1884 263 2316 263 
Q 2675 263 2897 453 
Q 3119 644 3181 1006 
L 3700 1006 
Q 3566 441 3166 175 
Q 2766 -91 2047 -91 
Q 1184 -91 723 364 
Q 263 819 263 1663 
Q 263 2488 734 2950 
Q 1206 3413 2047 3413 
Q 2872 3413 3312 2927 
Q 3753 2441 3781 1503 
z
" transform="scale(0.015625)"/>
       <path id="DejaVuSerif-Bold-39" d="M 2181 4384 
Q 1859 4384 1723 4111 
Q 1588 3838 1588 3163 
Q 1588 2488 1723 2214 
Q 1859 1941 2181 1941 
Q 2503 1941 2640 2214 
Q 2778 2488 2778 3163 
Q 2778 3838 2640 4111 
Q 2503 4384 2181 4384 
z
M 2878 1900 
Q 2672 1734 2420 1651 
Q 2169 1569 1875 1569 
Q 1163 1569 755 1986 
Q 347 2403 347 3138 
Q 347 3913 803 4331 
Q 1259 4750 2106 4750 
Q 3063 4750 3556 4172 
Q 4050 3594 4050 2478 
Q 4050 1206 3503 557 
Q 2956 -91 1881 -91 
Q 1600 -91 1278 -44 
Q 956 3 588 97 
L 588 922 
L 966 922 
Q 1044 603 1261 439 
Q 1478 275 1825 275 
Q 2375 275 2625 658 
Q 2875 1041 2878 1900 
z
" transform="scale(0.015625)"/>
      </defs>
      <use xlink:href="#DejaVuSerif-Bold-31"/>
      <use xlink:href="#DejaVuSerif-Bold-65" x="69.580078"/>
      <use xlink:href="#DejaVuSerif-Bold-39" x="133.203125"/>
     </g>
    </g>
   </g>
   <g id="line2d_35">
    <path d="M 59.750851 -1 
L 61.1712 307.43341 
L 62.9568 51.272378 
L 63.264947 -1 
M 68.757084 -1 
L 70.0992 171.180566 
L 71.8848 297.218301 
L 73.6704 284.83764 
L 75.456 185.816207 
L 77.2416 90.06375 
L 79.0272 61.482498 
L 80.8128 108.207538 
L 82.5984 195.151295 
L 84.384 273.365154 
L 86.1696 307.158445 
L 87.9552 290.032829 
L 89.7408 244.762943 
L 91.5264 206.295048 
L 93.312 199.806432 
L 95.0976 226.206073 
L 96.8832 267.282738 
L 98.6688 299.029172 
L 100.4544 307.150259 
L 102.24 293.165369 
L 104.0256 271.221719 
L 105.8112 257.640857 
L 107.5968 260.582414 
L 109.3824 276.530892 
L 111.168 295.20991 
L 112.9536 306.332614 
L 114.7392 306.002423 
L 116.5248 297.301258 
L 118.3104 288.07296 
L 120.096 284.714245 
L 121.8816 288.79738 
L 123.6672 297.23612 
L 125.4528 304.737974 
L 127.2384 307.562361 
L 129.024 305.52751 
L 130.8096 301.140031 
L 132.5952 297.864841 
L 134.3808 297.700364 
L 136.1664 300.474302 
L 137.952 304.313009 
L 139.7376 307.012944 
L 141.5232 307.448366 
L 143.3088 306.063864 
L 145.0944 304.111947 
L 146.88 303.121995 
L 148.6656 303.513517 
L 150.4512 304.969194 
L 152.2368 306.553589 
L 154.0224 307.51326 
L 155.808 307.43606 
L 157.5936 306.692653 
L 159.3792 305.918029 
L 161.1648 305.630234 
L 162.9504 305.89022 
L 164.736 306.539991 
L 166.5216 307.201633 
L 168.3072 307.560825 
L 170.0928 307.51052 
L 171.8784 307.208092 
L 173.664 306.874849 
L 175.4496 306.786045 
L 177.2352 306.860282 
L 179.0208 307.118319 
L 180.8064 307.411693 
L 182.592 307.551314 
L 184.3776 307.584 
L 186.1632 307.48132 
L 187.9488 307.34533 
L 189.7344 307.260479 
L 191.52 307.271516 
L 193.3056 307.336977 
L 195.0912 307.470361 
L 196.8768 307.534564 
L 198.6624 307.523784 
L 200.448 307.559054 
L 202.2336 307.51591 
L 204.0192 307.462254 
L 205.8048 307.449179 
L 207.5904 307.45056 
L 209.376 307.482066 
L 211.1616 307.546959 
L 212.9472 307.537092 
L 214.7328 307.53893 
L 216.5184 307.553274 
L 218.304 307.551993 
L 220.0896 307.542995 
L 221.8752 307.525287 
L 223.6608 307.545356 
L 225.4464 307.549955 
L 227.232 307.551993 
L 229.0176 307.572496 
L 230.8032 307.569979 
L 232.5888 307.540366 
L 234.3744 307.571761 
" clip-path="url(#p5f20d8ed87)" style="fill: none; stroke-dasharray: 5.55,2.4; stroke-dashoffset: 0; stroke: #0000ff; stroke-width: 1.5"/>
    <defs>
     <path id="mca98757fc1" d="M 0 0.5 
C 0.132602 0.5 0.25979 0.447317 0.353553 0.353553 
C 0.447317 0.25979 0.5 0.132602 0.5 0 
C 0.5 -0.132602 0.447317 -0.25979 0.353553 -0.353553 
C 0.25979 -0.447317 0.132602 -0.5 0 -0.5 
C -0.132602 -0.5 -0.25979 -0.447317 -0.353553 -0.353553 
C -0.447317 -0.25979 -0.5 -0.132602 -0.5 0 
C -0.5 0.132602 -0.447317 0.25979 -0.353553 0.353553 
C -0.25979 0.447317 -0.132602 0.5 0 0.5 
z
" style="stroke: #0000ff"/>
    </defs>
    <g clip-path="url(#p5f20d8ed87)">
     <use xlink:href="#mca98757fc1" x="59.750851" y="-1" style="fill: #0000ff; stroke: #0000ff"/>
     <use xlink:href="#mca98757fc1" x="61.1712" y="307.43341" style="fill: #0000ff; stroke: #0000ff"/>
     <use xlink:href="#mca98757fc1" x="62.9568" y="51.272378" style="fill: #0000ff; stroke: #0000ff"/>
     <use xlink:href="#mca98757fc1" x="63.264947" y="-1" style="fill: #0000ff; stroke: #0000ff"/>
     <use xlink:href="#mca98757fc1" x="68.757084" y="-1" style="fill: #0000ff; stroke: #0000ff"/>
     <use xlink:href="#mca98757fc1" x="70.0992" y="171.180566" style="fill: #0000ff; stroke: #0000ff"/>
     <use xlink:href="#mca98757fc1" x="71.8848" y="297.218301" style="fill: #0000ff; stroke: #0000ff"/>
     <use xlink:href="#mca98757fc1" x="73.6704" y="284.83764" style="fill: #0000ff; stroke: #0000ff"/>
     <use xlink:href="#mca98757fc1" x="75.456" y="185.816207" style="fill: #0000ff; stroke: #0000ff"/>
     <use xlink:href="#mca98757fc1" x="77.2416" y="90.06375" style="fill: #0000ff; stroke: #0000ff"/>
     <use xlink:href="#mca98757fc1" x="79.0272" y="61.482498" style="fill: #0000ff; stroke: #0000ff"/>
     <use xlink:href="#mca98757fc1" x="80.8128" y="108.207538" style="fill: #0000ff; stroke: #0000ff"/>
     <use xlink:href="#mca98757fc1" x="82.5984" y="195.151295" style="fill: #0000ff; stroke: #0000ff"/>
     <use xlink:href="#mca98757fc1" x="84.384" y="273.365154" style="fill: #0000ff; stroke: #0000ff"/>
     <use xlink:href="#mca98757fc1" x="86.1696" y="307.158445" style="fill: #0000ff; stroke: #0000ff"/>
     <use xlink:href="#mca98757fc1" x="87.9552" y="290.032829" style="fill: #0000ff; stroke: #0000ff"/>
     <use xlink:href="#mca98757fc1" x="89.7408" y="244.762943" style="fill: #0000ff; stroke: #0000ff"/>
     <use xlink:href="#mca98757fc1" x="91.5264" y="206.295048" style="fill: #0000ff; stroke: #0000ff"/>
     <use xlink:href="#mca98757fc1" x="93.312" y="199.806432" style="fill: #0000ff; stroke: #0000ff"/>
     <use xlink:href="#mca98757fc1" x="95.0976" y="226.206073" style="fill: #0000ff; stroke: #0000ff"/>
     <use xlink:href="#mca98757fc1" x="96.8832" y="267.282738" style="fill: #0000ff; stroke: #0000ff"/>
     <use xlink:href="#mca98757fc1" x="98.6688" y="299.029172" style="fill: #0000ff; stroke: #0000ff"/>
     <use xlink:href="#mca98757fc1" x="100.4544" y="307.150259" style="fill: #0000ff; stroke: #0000ff"/>
     <use xlink:href="#mca98757fc1" x="102.24" y="293.165369" style="fill: #0000ff; stroke: #0000ff"/>
     <use xlink:href="#mca98757fc1" x="104.0256" y="271.221719" style="fill: #0000ff; stroke: #0000ff"/>
     <use xlink:href="#mca98757fc1" x="105.8112" y="257.640857" style="fill: #0000ff; stroke: #0000ff"/>
     <use xlink:href="#mca98757fc1" x="107.5968" y="260.582414" style="fill: #0000ff; stroke: #0000ff"/>
     <use xlink:href="#mca98757fc1" x="109.3824" y="276.530892" style="fill: #0000ff; stroke: #0000ff"/>
     <use xlink:href="#mca98757fc1" x="111.168" y="295.20991" style="fill: #0000ff; stroke: #0000ff"/>
     <use xlink:href="#mca98757fc1" x="112.9536" y="306.332614" style="fill: #0000ff; stroke: #0000ff"/>
     <use xlink:href="#mca98757fc1" x="114.7392" y="306.002423" style="fill: #0000ff; stroke: #0000ff"/>
     <use xlink:href="#mca98757fc1" x="116.5248" y="297.301258" style="fill: #0000ff; stroke: #0000ff"/>
     <use xlink:href="#mca98757fc1" x="118.3104" y="288.07296" style="fill: #0000ff; stroke: #0000ff"/>
     <use xlink:href="#mca98757fc1" x="120.096" y="284.714245" style="fill: #0000ff; stroke: #0000ff"/>
     <use xlink:href="#mca98757fc1" x="121.8816" y="288.79738" style="fill: #0000ff; stroke: #0000ff"/>
     <use xlink:href="#mca98757fc1" x="123.6672" y="297.23612" style="fill: #0000ff; stroke: #0000ff"/>
     <use xlink:href="#mca98757fc1" x="125.4528" y="304.737974" style="fill: #0000ff; stroke: #0000ff"/>
     <use xlink:href="#mca98757fc1" x="127.2384" y="307.562361" style="fill: #0000ff; stroke: #0000ff"/>
     <use xlink:href="#mca98757fc1" x="129.024" y="305.52751" style="fill: #0000ff; stroke: #0000ff"/>
     <use xlink:href="#mca98757fc1" x="130.8096" y="301.140031" style="fill: #0000ff; stroke: #0000ff"/>
     <use xlink:href="#mca98757fc1" x="132.5952" y="297.864841" style="fill: #0000ff; stroke: #0000ff"/>
     <use xlink:href="#mca98757fc1" x="134.3808" y="297.700364" style="fill: #0000ff; stroke: #0000ff"/>
     <use xlink:href="#mca98757fc1" x="136.1664" y="300.474302" style="fill: #0000ff; stroke: #0000ff"/>
     <use xlink:href="#mca98757fc1" x="137.952" y="304.313009" style="fill: #0000ff; stroke: #0000ff"/>
     <use xlink:href="#mca98757fc1" x="139.7376" y="307.012944" style="fill: #0000ff; stroke: #0000ff"/>
     <use xlink:href="#mca98757fc1" x="141.5232" y="307.448366" style="fill: #0000ff; stroke: #0000ff"/>
     <use xlink:href="#mca98757fc1" x="143.3088" y="306.063864" style="fill: #0000ff; stroke: #0000ff"/>
     <use xlink:href="#mca98757fc1" x="145.0944" y="304.111947" style="fill: #0000ff; stroke: #0000ff"/>
     <use xlink:href="#mca98757fc1" x="146.88" y="303.121995" style="fill: #0000ff; stroke: #0000ff"/>
     <use xlink:href="#mca98757fc1" x="148.6656" y="303.513517" style="fill: #0000ff; stroke: #0000ff"/>
     <use xlink:href="#mca98757fc1" x="150.4512" y="304.969194" style="fill: #0000ff; stroke: #0000ff"/>
     <use xlink:href="#mca98757fc1" x="152.2368" y="306.553589" style="fill: #0000ff; stroke: #0000ff"/>
     <use xlink:href="#mca98757fc1" x="154.0224" y="307.51326" style="fill: #0000ff; stroke: #0000ff"/>
     <use xlink:href="#mca98757fc1" x="155.808" y="307.43606" style="fill: #0000ff; stroke: #0000ff"/>
     <use xlink:href="#mca98757fc1" x="157.5936" y="306.692653" style="fill: #0000ff; stroke: #0000ff"/>
     <use xlink:href="#mca98757fc1" x="159.3792" y="305.918029" style="fill: #0000ff; stroke: #0000ff"/>
     <use xlink:href="#mca98757fc1" x="161.1648" y="305.630234" style="fill: #0000ff; stroke: #0000ff"/>
     <use xlink:href="#mca98757fc1" x="162.9504" y="305.89022" style="fill: #0000ff; stroke: #0000ff"/>
     <use xlink:href="#mca98757fc1" x="164.736" y="306.539991" style="fill: #0000ff; stroke: #0000ff"/>
     <use xlink:href="#mca98757fc1" x="166.5216" y="307.201633" style="fill: #0000ff; stroke: #0000ff"/>
     <use xlink:href="#mca98757fc1" x="168.3072" y="307.560825" style="fill: #0000ff; stroke: #0000ff"/>
     <use xlink:href="#mca98757fc1" x="170.0928" y="307.51052" style="fill: #0000ff; stroke: #0000ff"/>
     <use xlink:href="#mca98757fc1" x="171.8784" y="307.208092" style="fill: #0000ff; stroke: #0000ff"/>
     <use xlink:href="#mca98757fc1" x="173.664" y="306.874849" style="fill: #0000ff; stroke: #0000ff"/>
     <use xlink:href="#mca98757fc1" x="175.4496" y="306.786045" style="fill: #0000ff; stroke: #0000ff"/>
     <use xlink:href="#mca98757fc1" x="177.2352" y="306.860282" style="fill: #0000ff; stroke: #0000ff"/>
     <use xlink:href="#mca98757fc1" x="179.0208" y="307.118319" style="fill: #0000ff; stroke: #0000ff"/>
     <use xlink:href="#mca98757fc1" x="180.8064" y="307.411693" style="fill: #0000ff; stroke: #0000ff"/>
     <use xlink:href="#mca98757fc1" x="182.592" y="307.551314" style="fill: #0000ff; stroke: #0000ff"/>
     <use xlink:href="#mca98757fc1" x="184.3776" y="307.584" style="fill: #0000ff; stroke: #0000ff"/>
     <use xlink:href="#mca98757fc1" x="186.1632" y="307.48132" style="fill: #0000ff; stroke: #0000ff"/>
     <use xlink:href="#mca98757fc1" x="187.9488" y="307.34533" style="fill: #0000ff; stroke: #0000ff"/>
     <use xlink:href="#mca98757fc1" x="189.7344" y="307.260479" style="fill: #0000ff; stroke: #0000ff"/>
     <use xlink:href="#mca98757fc1" x="191.52" y="307.271516" style="fill: #0000ff; stroke: #0000ff"/>
     <use xlink:href="#mca98757fc1" x="193.3056" y="307.336977" style="fill: #0000ff; stroke: #0000ff"/>
     <use xlink:href="#mca98757fc1" x="195.0912" y="307.470361" style="fill: #0000ff; stroke: #0000ff"/>
     <use xlink:href="#mca98757fc1" x="196.8768" y="307.534564" style="fill: #0000ff; stroke: #0000ff"/>
     <use xlink:href="#mca98757fc1" x="198.6624" y="307.523784" style="fill: #0000ff; stroke: #0000ff"/>
     <use xlink:href="#mca98757fc1" x="200.448" y="307.559054" style="fill: #0000ff; stroke: #0000ff"/>
     <use xlink:href="#mca98757fc1" x="202.2336" y="307.51591" style="fill: #0000ff; stroke: #0000ff"/>
     <use xlink:href="#mca98757fc1" x="204.0192" y="307.462254" style="fill: #0000ff; stroke: #0000ff"/>
     <use xlink:href="#mca98757fc1" x="205.8048" y="307.449179" style="fill: #0000ff; stroke: #0000ff"/>
     <use xlink:href="#mca98757fc1" x="207.5904" y="307.45056" style="fill: #0000ff; stroke: #0000ff"/>
     <use xlink:href="#mca98757fc1" x="209.376" y="307.482066" style="fill: #0000ff; stroke: #0000ff"/>
     <use xlink:href="#mca98757fc1" x="211.1616" y="307.546959" style="fill: #0000ff; stroke: #0000ff"/>
     <use xlink:href="#mca98757fc1" x="212.9472" y="307.537092" style="fill: #0000ff; stroke: #0000ff"/>
     <use xlink:href="#mca98757fc1" x="214.7328" y="307.53893" style="fill: #0000ff; stroke: #0000ff"/>
     <use xlink:href="#mca98757fc1" x="216.5184" y="307.553274" style="fill: #0000ff; stroke: #0000ff"/>
     <use xlink:href="#mca98757fc1" x="218.304" y="307.551993" style="fill: #0000ff; stroke: #0000ff"/>
     <use xlink:href="#mca98757fc1" x="220.0896" y="307.542995" style="fill: #0000ff; stroke: #0000ff"/>
     <use xlink:href="#mca98757fc1" x="221.8752" y="307.525287" style="fill: #0000ff; stroke: #0000ff"/>
     <use xlink:href="#mca98757fc1" x="223.6608" y="307.545356" style="fill: #0000ff; stroke: #0000ff"/>
     <use xlink:href="#mca98757fc1" x="225.4464" y="307.549955" style="fill: #0000ff; stroke: #0000ff"/>
     <use xlink:href="#mca98757fc1" x="227.232" y="307.551993" style="fill: #0000ff; stroke: #0000ff"/>
     <use xlink:href="#mca98757fc1" x="229.0176" y="307.572496" style="fill: #0000ff; stroke: #0000ff"/>
     <use xlink:href="#mca98757fc1" x="230.8032" y="307.569979" style="fill: #0000ff; stroke: #0000ff"/>
     <use xlink:href="#mca98757fc1" x="232.5888" y="307.540366" style="fill: #0000ff; stroke: #0000ff"/>
     <use xlink:href="#mca98757fc1" x="234.3744" y="307.571761" style="fill: #0000ff; stroke: #0000ff"/>
    </g>
   </g>
   <g id="patch_3">
    <path d="M 57.6 307.584 
L 57.6 41.472 
" style="fill: none; stroke: #000000; stroke-width: 0.8; stroke-linejoin: miter; stroke-linecap: square"/>
   </g>
   <g id="patch_4">
    <path d="M 414.72 307.584 
L 414.72 41.472 
" style="fill: none; stroke: #000000; stroke-width: 0.8; stroke-linejoin: miter; stroke-linecap: square"/>
   </g>
   <g id="patch_5">
    <path d="M 57.6 307.584 
L 414.72 307.584 
" style="fill: none; stroke: #000000; stroke-width: 0.8; stroke-linejoin: miter; stroke-linecap: square"/>
   </g>
   <g id="patch_6">
    <path d="M 57.6 41.472 
L 414.72 41.472 
" style="fill: none; stroke: #000000; stroke-width: 0.8; stroke-linejoin: miter; stroke-linecap: square"/>
   </g>
   <g id="text_21">
    <!-- Training Loss over Epochs -->
    <g transform="translate(155.2725 35.472) scale(0.12 -0.12)">
     <defs>
      <path id="DejaVuSerif-54" d="M 1222 0 
L 1222 331 
L 1819 331 
L 1819 4294 
L 447 4294 
L 447 3566 
L 63 3566 
L 63 4666 
L 4206 4666 
L 4206 3566 
L 3822 3566 
L 3822 4294 
L 2450 4294 
L 2450 331 
L 3047 331 
L 3047 0 
L 1222 0 
z
" transform="scale(0.015625)"/>
      <path id="DejaVuSerif-72" d="M 3059 3328 
L 3059 2497 
L 2728 2497 
Q 2713 2744 2591 2866 
Q 2469 2988 2234 2988 
Q 1809 2988 1582 2694 
Q 1356 2400 1356 1850 
L 1356 331 
L 2022 331 
L 2022 0 
L 263 0 
L 263 331 
L 781 331 
L 781 2994 
L 231 2994 
L 231 3322 
L 1356 3322 
L 1356 2731 
Q 1525 3078 1790 3245 
Q 2056 3413 2438 3413 
Q 2578 3413 2733 3391 
Q 2888 3369 3059 3328 
z
" transform="scale(0.015625)"/>
      <path id="DejaVuSerif-61" d="M 2547 1044 
L 2547 1747 
L 1806 1747 
Q 1378 1747 1168 1562 
Q 959 1378 959 997 
Q 959 650 1171 447 
Q 1384 244 1747 244 
Q 2106 244 2326 466 
Q 2547 688 2547 1044 
z
M 3122 2075 
L 3122 331 
L 3634 331 
L 3634 0 
L 2547 0 
L 2547 359 
Q 2356 128 2106 18 
Q 1856 -91 1522 -91 
Q 969 -91 644 203 
Q 319 497 319 997 
Q 319 1513 691 1797 
Q 1063 2081 1741 2081 
L 2547 2081 
L 2547 2309 
Q 2547 2688 2317 2895 
Q 2088 3103 1672 3103 
Q 1328 3103 1125 2947 
Q 922 2791 872 2484 
L 575 2484 
L 575 3156 
Q 875 3284 1158 3348 
Q 1441 3413 1709 3413 
Q 2400 3413 2761 3070 
Q 3122 2728 3122 2075 
z
" transform="scale(0.015625)"/>
      <path id="DejaVuSerif-69" d="M 622 4353 
Q 622 4497 726 4603 
Q 831 4709 978 4709 
Q 1122 4709 1226 4603 
Q 1331 4497 1331 4353 
Q 1331 4206 1228 4103 
Q 1125 4000 978 4000 
Q 831 4000 726 4103 
Q 622 4206 622 4353 
z
M 1356 331 
L 1900 331 
L 1900 0 
L 231 0 
L 231 331 
L 781 331 
L 781 2988 
L 231 2988 
L 231 3322 
L 1356 3322 
L 1356 331 
z
" transform="scale(0.015625)"/>
      <path id="DejaVuSerif-6e" d="M 263 0 
L 263 331 
L 781 331 
L 781 2988 
L 231 2988 
L 231 3322 
L 1356 3322 
L 1356 2731 
Q 1516 3069 1770 3241 
Q 2025 3413 2363 3413 
Q 2913 3413 3172 3097 
Q 3431 2781 3431 2113 
L 3431 331 
L 3944 331 
L 3944 0 
L 2356 0 
L 2356 331 
L 2853 331 
L 2853 1931 
Q 2853 2541 2703 2767 
Q 2553 2994 2175 2994 
Q 1775 2994 1565 2701 
Q 1356 2409 1356 1850 
L 1356 331 
L 1856 331 
L 1856 0 
L 263 0 
z
" transform="scale(0.015625)"/>
      <path id="DejaVuSerif-67" d="M 3359 2988 
L 3359 72 
Q 3359 -644 2965 -1033 
Q 2572 -1422 1844 -1422 
Q 1516 -1422 1216 -1362 
Q 916 -1303 641 -1184 
L 641 -488 
L 941 -488 
Q 997 -813 1206 -963 
Q 1416 -1113 1806 -1113 
Q 2313 -1113 2548 -827 
Q 2784 -541 2784 72 
L 2784 519 
Q 2616 206 2355 57 
Q 2094 -91 1709 -91 
Q 1097 -91 708 395 
Q 319 881 319 1663 
Q 319 2444 706 2928 
Q 1094 3413 1709 3413 
Q 2094 3413 2355 3264 
Q 2616 3116 2784 2803 
L 2784 3322 
L 3909 3322 
L 3909 2988 
L 3359 2988 
z
M 2784 1825 
Q 2784 2422 2554 2737 
Q 2325 3053 1888 3053 
Q 1444 3053 1217 2703 
Q 991 2353 991 1663 
Q 991 975 1217 622 
Q 1444 269 1888 269 
Q 2325 269 2554 583 
Q 2784 897 2784 1497 
L 2784 1825 
z
" transform="scale(0.015625)"/>
      <path id="DejaVuSerif-76" d="M 1581 0 
L 359 2988 
L -19 2988 
L -19 3322 
L 1509 3322 
L 1509 2988 
L 978 2988 
L 1913 703 
L 2847 2988 
L 2350 2988 
L 2350 3322 
L 3597 3322 
L 3597 2988 
L 3225 2988 
L 2003 0 
L 1581 0 
z
" transform="scale(0.015625)"/>
      <path id="DejaVuSerif-65" d="M 3469 1600 
L 991 1600 
L 991 1575 
Q 991 903 1244 561 
Q 1497 219 1991 219 
Q 2369 219 2611 417 
Q 2853 616 2950 1006 
L 3413 1006 
Q 3275 459 2904 184 
Q 2534 -91 1931 -91 
Q 1203 -91 761 389 
Q 319 869 319 1663 
Q 319 2450 753 2931 
Q 1188 3413 1894 3413 
Q 2647 3413 3050 2948 
Q 3453 2484 3469 1600 
z
M 2791 1931 
Q 2772 2513 2545 2808 
Q 2319 3103 1894 3103 
Q 1497 3103 1269 2806 
Q 1041 2509 991 1931 
L 2791 1931 
z
" transform="scale(0.015625)"/>
     </defs>
     <use xlink:href="#DejaVuSerif-54"/>
     <use xlink:href="#DejaVuSerif-72" x="66.699219"/>
     <use xlink:href="#DejaVuSerif-61" x="114.501953"/>
     <use xlink:href="#DejaVuSerif-69" x="174.121094"/>
     <use xlink:href="#DejaVuSerif-6e" x="206.103516"/>
     <use xlink:href="#DejaVuSerif-69" x="270.507812"/>
     <use xlink:href="#DejaVuSerif-6e" x="302.490234"/>
     <use xlink:href="#DejaVuSerif-67" x="366.894531"/>
     <use xlink:href="#DejaVuSerif-20" x="430.908203"/>
     <use xlink:href="#DejaVuSerif-4c" x="462.695312"/>
     <use xlink:href="#DejaVuSerif-6f" x="529.101562"/>
     <use xlink:href="#DejaVuSerif-73" x="589.306641"/>
     <use xlink:href="#DejaVuSerif-73" x="640.625"/>
     <use xlink:href="#DejaVuSerif-20" x="691.943359"/>
     <use xlink:href="#DejaVuSerif-6f" x="723.730469"/>
     <use xlink:href="#DejaVuSerif-76" x="783.935547"/>
     <use xlink:href="#DejaVuSerif-65" x="840.429688"/>
     <use xlink:href="#DejaVuSerif-72" x="899.609375"/>
     <use xlink:href="#DejaVuSerif-20" x="947.412109"/>
     <use xlink:href="#DejaVuSerif-45" x="979.199219"/>
     <use xlink:href="#DejaVuSerif-70" x="1052.197266"/>
     <use xlink:href="#DejaVuSerif-6f" x="1116.210938"/>
     <use xlink:href="#DejaVuSerif-63" x="1176.416016"/>
     <use xlink:href="#DejaVuSerif-68" x="1232.421875"/>
     <use xlink:href="#DejaVuSerif-73" x="1296.826172"/>
    </g>
   </g>
  </g>
 </g>
 <defs>
  <clipPath id="p5f20d8ed87">
   <rect x="57.6" y="41.472" width="357.12" height="266.112"/>
  </clipPath>
 </defs>
</svg>
