<?xml version="1.0" encoding="utf-8" standalone="no"?>
<!DOCTYPE svg PUBLIC "-//W3C//DTD SVG 1.1//EN"
  "http://www.w3.org/Graphics/SVG/1.1/DTD/svg11.dtd">
<svg xmlns:xlink="http://www.w3.org/1999/xlink" width="720pt" height="432pt" viewBox="0 0 720 432" xmlns="http://www.w3.org/2000/svg" version="1.1">
 <metadata>
  <rdf:RDF xmlns:dc="http://purl.org/dc/elements/1.1/" xmlns:cc="http://creativecommons.org/ns#" xmlns:rdf="http://www.w3.org/1999/02/22-rdf-syntax-ns#">
   <cc:Work>
    <dc:type rdf:resource="http://purl.org/dc/dcmitype/StillImage"/>
    <dc:date>2024-11-04T11:53:33.941709</dc:date>
    <dc:format>image/svg+xml</dc:format>
    <dc:creator>
     <cc:Agent>
      <dc:title>Matplotlib v3.9.2, https://matplotlib.org/</dc:title>
     </cc:Agent>
    </dc:creator>
   </cc:Work>
  </rdf:RDF>
 </metadata>
 <defs>
  <style type="text/css">*{stroke-linejoin: round; stroke-linecap: butt}</style>
 </defs>
 <g id="figure_1">
  <g id="patch_1">
   <path d="M 0 432 
L 720 432 
L 720 0 
L 0 0 
z
" style="fill: #ffffff"/>
  </g>
  <g id="axes_1">
   <g id="patch_2">
    <path d="M 74.54 376.72 
L 701.231473 376.72 
L 701.231473 35.16 
L 74.54 35.16 
z
" style="fill: #ffffff"/>
   </g>
   <g id="matplotlib.axis_1">
    <g id="xtick_1">
     <g id="line2d_1">
      <path d="M 103.025976 376.72 
L 103.025976 35.16 
" clip-path="url(#pf71bb762fe)" style="fill: none; stroke-dasharray: 2.96,1.28; stroke-dashoffset: 0; stroke: #b0b0b0; stroke-opacity: 0.7; stroke-width: 0.8"/>
     </g>
     <g id="line2d_2">
      <defs>
       <path id="ma805bd6e44" d="M 0 0 
L 0 3.5 
" style="stroke: #000000; stroke-width: 0.8"/>
      </defs>
      <g>
       <use xlink:href="#ma805bd6e44" x="103.025976" y="376.72" style="stroke: #000000; stroke-width: 0.8"/>
      </g>
     </g>
     <g id="text_1">
      <!-- 0 -->
      <g transform="translate(97.807617 395.117656) scale(0.15 -0.15)">
       <defs>
        <path id="DejaVuSerif-Bold-30" d="M 2228 275 
Q 2603 275 2742 615 
Q 2881 956 2881 2328 
Q 2881 3691 2742 4037 
Q 2603 4384 2228 4384 
Q 1853 4384 1714 4043 
Q 1575 3703 1575 2328 
Q 1575 956 1714 615 
Q 1853 275 2228 275 
z
M 2228 -91 
Q 1294 -91 797 532 
Q 300 1156 300 2328 
Q 300 3500 797 4125 
Q 1294 4750 2228 4750 
Q 3159 4750 3656 4125 
Q 4153 3500 4153 2328 
Q 4153 1156 3656 532 
Q 3159 -91 2228 -91 
z
" transform="scale(0.015625)"/>
       </defs>
       <use xlink:href="#DejaVuSerif-Bold-30"/>
      </g>
     </g>
    </g>
    <g id="xtick_2">
     <g id="line2d_3">
      <path d="M 201.25348 376.72 
L 201.25348 35.16 
" clip-path="url(#pf71bb762fe)" style="fill: none; stroke-dasharray: 2.96,1.28; stroke-dashoffset: 0; stroke: #b0b0b0; stroke-opacity: 0.7; stroke-width: 0.8"/>
     </g>
     <g id="line2d_4">
      <g>
       <use xlink:href="#ma805bd6e44" x="201.25348" y="376.72" style="stroke: #000000; stroke-width: 0.8"/>
      </g>
     </g>
     <g id="text_2">
      <!-- 5 -->
      <g transform="translate(196.03512 395.117656) scale(0.15 -0.15)">
       <defs>
        <path id="DejaVuSerif-Bold-35" d="M 3609 4666 
L 3609 3847 
L 1113 3847 
L 1113 2822 
Q 1319 2981 1572 3062 
Q 1825 3144 2106 3144 
Q 2969 3144 3469 2708 
Q 3969 2272 3969 1522 
Q 3969 759 3469 334 
Q 2969 -91 2069 -91 
Q 1688 -91 1311 -28 
Q 934 34 525 166 
L 525 1184 
L 900 1184 
Q 919 725 1139 500 
Q 1359 275 1791 275 
Q 2250 275 2472 583 
Q 2694 891 2694 1522 
Q 2694 2144 2476 2451 
Q 2259 2759 1819 2759 
Q 1581 2759 1395 2661 
Q 1209 2563 1050 2356 
L 738 2356 
L 738 4666 
L 3609 4666 
z
" transform="scale(0.015625)"/>
       </defs>
       <use xlink:href="#DejaVuSerif-Bold-35"/>
      </g>
     </g>
    </g>
    <g id="xtick_3">
     <g id="line2d_5">
      <path d="M 299.480983 376.72 
L 299.480983 35.16 
" clip-path="url(#pf71bb762fe)" style="fill: none; stroke-dasharray: 2.96,1.28; stroke-dashoffset: 0; stroke: #b0b0b0; stroke-opacity: 0.7; stroke-width: 0.8"/>
     </g>
     <g id="line2d_6">
      <g>
       <use xlink:href="#ma805bd6e44" x="299.480983" y="376.72" style="stroke: #000000; stroke-width: 0.8"/>
      </g>
     </g>
     <g id="text_3">
      <!-- 10 -->
      <g transform="translate(289.044265 395.117656) scale(0.15 -0.15)">
       <defs>
        <path id="DejaVuSerif-Bold-31" d="M 878 0 
L 878 378 
L 1753 378 
L 1753 4153 
L 781 3578 
L 781 4044 
L 1953 4750 
L 2938 4750 
L 2938 378 
L 3816 378 
L 3816 0 
L 878 0 
z
" transform="scale(0.015625)"/>
       </defs>
       <use xlink:href="#DejaVuSerif-Bold-31"/>
       <use xlink:href="#DejaVuSerif-Bold-30" x="69.580078"/>
      </g>
     </g>
    </g>
    <g id="xtick_4">
     <g id="line2d_7">
      <path d="M 397.708487 376.72 
L 397.708487 35.16 
" clip-path="url(#pf71bb762fe)" style="fill: none; stroke-dasharray: 2.96,1.28; stroke-dashoffset: 0; stroke: #b0b0b0; stroke-opacity: 0.7; stroke-width: 0.8"/>
     </g>
     <g id="line2d_8">
      <g>
       <use xlink:href="#ma805bd6e44" x="397.708487" y="376.72" style="stroke: #000000; stroke-width: 0.8"/>
      </g>
     </g>
     <g id="text_4">
      <!-- 15 -->
      <g transform="translate(387.271768 395.117656) scale(0.15 -0.15)">
       <use xlink:href="#DejaVuSerif-Bold-31"/>
       <use xlink:href="#DejaVuSerif-Bold-35" x="69.580078"/>
      </g>
     </g>
    </g>
    <g id="xtick_5">
     <g id="line2d_9">
      <path d="M 495.935991 376.72 
L 495.935991 35.16 
" clip-path="url(#pf71bb762fe)" style="fill: none; stroke-dasharray: 2.96,1.28; stroke-dashoffset: 0; stroke: #b0b0b0; stroke-opacity: 0.7; stroke-width: 0.8"/>
     </g>
     <g id="line2d_10">
      <g>
       <use xlink:href="#ma805bd6e44" x="495.935991" y="376.72" style="stroke: #000000; stroke-width: 0.8"/>
      </g>
     </g>
     <g id="text_5">
      <!-- 20 -->
      <g transform="translate(485.499272 395.117656) scale(0.15 -0.15)">
       <defs>
        <path id="DejaVuSerif-Bold-32" d="M 844 3513 
L 469 3513 
L 469 4519 
Q 850 4634 1223 4692 
Q 1597 4750 1978 4750 
Q 2869 4750 3367 4386 
Q 3866 4022 3866 3372 
Q 3866 2909 3591 2542 
Q 3316 2175 2541 1672 
L 1241 819 
L 3450 819 
L 3450 1369 
L 3878 1369 
L 3878 0 
L 428 0 
L 428 763 
L 1119 1241 
Q 2003 1850 2297 2278 
Q 2591 2706 2591 3278 
Q 2591 3819 2367 4101 
Q 2144 4384 1716 4384 
Q 1347 4384 1125 4161 
Q 903 3938 844 3513 
z
" transform="scale(0.015625)"/>
       </defs>
       <use xlink:href="#DejaVuSerif-Bold-32"/>
       <use xlink:href="#DejaVuSerif-Bold-30" x="69.580078"/>
      </g>
     </g>
    </g>
    <g id="xtick_6">
     <g id="line2d_11">
      <path d="M 594.163494 376.72 
L 594.163494 35.16 
" clip-path="url(#pf71bb762fe)" style="fill: none; stroke-dasharray: 2.96,1.28; stroke-dashoffset: 0; stroke: #b0b0b0; stroke-opacity: 0.7; stroke-width: 0.8"/>
     </g>
     <g id="line2d_12">
      <g>
       <use xlink:href="#ma805bd6e44" x="594.163494" y="376.72" style="stroke: #000000; stroke-width: 0.8"/>
      </g>
     </g>
     <g id="text_6">
      <!-- 25 -->
      <g transform="translate(583.726776 395.117656) scale(0.15 -0.15)">
       <use xlink:href="#DejaVuSerif-Bold-32"/>
       <use xlink:href="#DejaVuSerif-Bold-35" x="69.580078"/>
      </g>
     </g>
    </g>
    <g id="xtick_7">
     <g id="line2d_13">
      <path d="M 692.390998 376.72 
L 692.390998 35.16 
" clip-path="url(#pf71bb762fe)" style="fill: none; stroke-dasharray: 2.96,1.28; stroke-dashoffset: 0; stroke: #b0b0b0; stroke-opacity: 0.7; stroke-width: 0.8"/>
     </g>
     <g id="line2d_14">
      <g>
       <use xlink:href="#ma805bd6e44" x="692.390998" y="376.72" style="stroke: #000000; stroke-width: 0.8"/>
      </g>
     </g>
     <g id="text_7">
      <!-- 30 -->
      <g transform="translate(681.954279 395.117656) scale(0.15 -0.15)">
       <defs>
        <path id="DejaVuSerif-Bold-33" d="M 550 4531 
Q 963 4641 1350 4695 
Q 1738 4750 2106 4750 
Q 2950 4750 3401 4448 
Q 3853 4147 3853 3584 
Q 3853 3163 3593 2900 
Q 3334 2638 2834 2547 
Q 3444 2450 3744 2131 
Q 4044 1813 4044 1259 
Q 4044 606 3526 257 
Q 3009 -91 2028 -91 
Q 1659 -91 1267 -28 
Q 875 34 447 159 
L 447 1184 
L 825 1184 
Q 859 741 1103 508 
Q 1347 275 1778 275 
Q 2253 275 2512 539 
Q 2772 803 2772 1288 
Q 2772 1794 2501 2069 
Q 2231 2344 1734 2344 
L 1528 2344 
L 1528 2719 
L 1691 2719 
Q 2150 2719 2381 2931 
Q 2613 3144 2613 3566 
Q 2613 3963 2395 4173 
Q 2178 4384 1772 4384 
Q 1403 4384 1187 4182 
Q 972 3981 928 3597 
L 550 3597 
L 550 4531 
z
" transform="scale(0.015625)"/>
       </defs>
       <use xlink:href="#DejaVuSerif-Bold-33"/>
       <use xlink:href="#DejaVuSerif-Bold-30" x="69.580078"/>
      </g>
     </g>
    </g>
    <g id="text_8">
     <!-- Time -->
     <g transform="translate(368.933002 413.634844) scale(0.15 -0.15)">
      <defs>
       <path id="DejaVuSerif-54" d="M 1222 0 
L 1222 331 
L 1819 331 
L 1819 4294 
L 447 4294 
L 447 3566 
L 63 3566 
L 63 4666 
L 4206 4666 
L 4206 3566 
L 3822 3566 
L 3822 4294 
L 2450 4294 
L 2450 331 
L 3047 331 
L 3047 0 
L 1222 0 
z
" transform="scale(0.015625)"/>
       <path id="DejaVuSerif-69" d="M 622 4353 
Q 622 4497 726 4603 
Q 831 4709 978 4709 
Q 1122 4709 1226 4603 
Q 1331 4497 1331 4353 
Q 1331 4206 1228 4103 
Q 1125 4000 978 4000 
Q 831 4000 726 4103 
Q 622 4206 622 4353 
z
M 1356 331 
L 1900 331 
L 1900 0 
L 231 0 
L 231 331 
L 781 331 
L 781 2988 
L 231 2988 
L 231 3322 
L 1356 3322 
L 1356 331 
z
" transform="scale(0.015625)"/>
       <path id="DejaVuSerif-6d" d="M 3316 2675 
Q 3481 3041 3739 3227 
Q 3997 3413 4341 3413 
Q 4863 3413 5119 3089 
Q 5375 2766 5375 2113 
L 5375 331 
L 5894 331 
L 5894 0 
L 4300 0 
L 4300 331 
L 4800 331 
L 4800 2047 
Q 4800 2556 4650 2772 
Q 4500 2988 4153 2988 
Q 3769 2988 3567 2697 
Q 3366 2406 3366 1850 
L 3366 331 
L 3866 331 
L 3866 0 
L 2291 0 
L 2291 331 
L 2791 331 
L 2791 2069 
Q 2791 2566 2641 2777 
Q 2491 2988 2144 2988 
Q 1759 2988 1557 2697 
Q 1356 2406 1356 1850 
L 1356 331 
L 1856 331 
L 1856 0 
L 263 0 
L 263 331 
L 781 331 
L 781 2994 
L 231 2994 
L 231 3322 
L 1356 3322 
L 1356 2731 
Q 1516 3063 1762 3238 
Q 2009 3413 2322 3413 
Q 2709 3413 2968 3220 
Q 3228 3028 3316 2675 
z
" transform="scale(0.015625)"/>
       <path id="DejaVuSerif-65" d="M 3469 1600 
L 991 1600 
L 991 1575 
Q 991 903 1244 561 
Q 1497 219 1991 219 
Q 2369 219 2611 417 
Q 2853 616 2950 1006 
L 3413 1006 
Q 3275 459 2904 184 
Q 2534 -91 1931 -91 
Q 1203 -91 761 389 
Q 319 869 319 1663 
Q 319 2450 753 2931 
Q 1188 3413 1894 3413 
Q 2647 3413 3050 2948 
Q 3453 2484 3469 1600 
z
M 2791 1931 
Q 2772 2513 2545 2808 
Q 2319 3103 1894 3103 
Q 1497 3103 1269 2806 
Q 1041 2509 991 1931 
L 2791 1931 
z
" transform="scale(0.015625)"/>
      </defs>
      <use xlink:href="#DejaVuSerif-54"/>
      <use xlink:href="#DejaVuSerif-69" x="66.699219"/>
      <use xlink:href="#DejaVuSerif-6d" x="98.681641"/>
      <use xlink:href="#DejaVuSerif-65" x="193.505859"/>
     </g>
    </g>
   </g>
   <g id="matplotlib.axis_2">
    <g id="ytick_1">
     <g id="line2d_15">
      <path d="M 74.54 361.194545 
L 701.231473 361.194545 
" clip-path="url(#pf71bb762fe)" style="fill: none; stroke-dasharray: 2.96,1.28; stroke-dashoffset: 0; stroke: #b0b0b0; stroke-opacity: 0.7; stroke-width: 0.8"/>
     </g>
     <g id="line2d_16">
      <defs>
       <path id="m6b8637b19d" d="M 0 0 
L -3.5 0 
" style="stroke: #000000; stroke-width: 0.8"/>
      </defs>
      <g>
       <use xlink:href="#m6b8637b19d" x="74.54" y="361.194545" style="stroke: #000000; stroke-width: 0.8"/>
      </g>
     </g>
     <g id="text_9">
      <!-- −20 -->
      <g transform="translate(34.097031 366.893374) scale(0.15 -0.15)">
       <defs>
        <path id="DejaVuSerif-Bold-2212" d="M 678 2363 
L 4684 2363 
L 4684 1644 
L 678 1644 
L 678 2363 
z
" transform="scale(0.015625)"/>
       </defs>
       <use xlink:href="#DejaVuSerif-Bold-2212"/>
       <use xlink:href="#DejaVuSerif-Bold-32" x="83.789062"/>
       <use xlink:href="#DejaVuSerif-Bold-30" x="153.369141"/>
      </g>
     </g>
    </g>
    <g id="ytick_2">
     <g id="line2d_17">
      <path d="M 74.54 322.324753 
L 701.231473 322.324753 
" clip-path="url(#pf71bb762fe)" style="fill: none; stroke-dasharray: 2.96,1.28; stroke-dashoffset: 0; stroke: #b0b0b0; stroke-opacity: 0.7; stroke-width: 0.8"/>
     </g>
     <g id="line2d_18">
      <g>
       <use xlink:href="#m6b8637b19d" x="74.54" y="322.324753" style="stroke: #000000; stroke-width: 0.8"/>
      </g>
     </g>
     <g id="text_10">
      <!-- −15 -->
      <g transform="translate(34.097031 328.023581) scale(0.15 -0.15)">
       <use xlink:href="#DejaVuSerif-Bold-2212"/>
       <use xlink:href="#DejaVuSerif-Bold-31" x="83.789062"/>
       <use xlink:href="#DejaVuSerif-Bold-35" x="153.369141"/>
      </g>
     </g>
    </g>
    <g id="ytick_3">
     <g id="line2d_19">
      <path d="M 74.54 283.454961 
L 701.231473 283.454961 
" clip-path="url(#pf71bb762fe)" style="fill: none; stroke-dasharray: 2.96,1.28; stroke-dashoffset: 0; stroke: #b0b0b0; stroke-opacity: 0.7; stroke-width: 0.8"/>
     </g>
     <g id="line2d_20">
      <g>
       <use xlink:href="#m6b8637b19d" x="74.54" y="283.454961" style="stroke: #000000; stroke-width: 0.8"/>
      </g>
     </g>
     <g id="text_11">
      <!-- −10 -->
      <g transform="translate(34.097031 289.153789) scale(0.15 -0.15)">
       <use xlink:href="#DejaVuSerif-Bold-2212"/>
       <use xlink:href="#DejaVuSerif-Bold-31" x="83.789062"/>
       <use xlink:href="#DejaVuSerif-Bold-30" x="153.369141"/>
      </g>
     </g>
    </g>
    <g id="ytick_4">
     <g id="line2d_21">
      <path d="M 74.54 244.585168 
L 701.231473 244.585168 
" clip-path="url(#pf71bb762fe)" style="fill: none; stroke-dasharray: 2.96,1.28; stroke-dashoffset: 0; stroke: #b0b0b0; stroke-opacity: 0.7; stroke-width: 0.8"/>
     </g>
     <g id="line2d_22">
      <g>
       <use xlink:href="#m6b8637b19d" x="74.54" y="244.585168" style="stroke: #000000; stroke-width: 0.8"/>
      </g>
     </g>
     <g id="text_12">
      <!-- −5 -->
      <g transform="translate(44.53375 250.283996) scale(0.15 -0.15)">
       <use xlink:href="#DejaVuSerif-Bold-2212"/>
       <use xlink:href="#DejaVuSerif-Bold-35" x="83.789062"/>
      </g>
     </g>
    </g>
    <g id="ytick_5">
     <g id="line2d_23">
      <path d="M 74.54 205.715376 
L 701.231473 205.715376 
" clip-path="url(#pf71bb762fe)" style="fill: none; stroke-dasharray: 2.96,1.28; stroke-dashoffset: 0; stroke: #b0b0b0; stroke-opacity: 0.7; stroke-width: 0.8"/>
     </g>
     <g id="line2d_24">
      <g>
       <use xlink:href="#m6b8637b19d" x="74.54" y="205.715376" style="stroke: #000000; stroke-width: 0.8"/>
      </g>
     </g>
     <g id="text_13">
      <!-- 0 -->
      <g transform="translate(57.103281 211.414204) scale(0.15 -0.15)">
       <use xlink:href="#DejaVuSerif-Bold-30"/>
      </g>
     </g>
    </g>
    <g id="ytick_6">
     <g id="line2d_25">
      <path d="M 74.54 166.845584 
L 701.231473 166.845584 
" clip-path="url(#pf71bb762fe)" style="fill: none; stroke-dasharray: 2.96,1.28; stroke-dashoffset: 0; stroke: #b0b0b0; stroke-opacity: 0.7; stroke-width: 0.8"/>
     </g>
     <g id="line2d_26">
      <g>
       <use xlink:href="#m6b8637b19d" x="74.54" y="166.845584" style="stroke: #000000; stroke-width: 0.8"/>
      </g>
     </g>
     <g id="text_14">
      <!-- 5 -->
      <g transform="translate(57.103281 172.544412) scale(0.15 -0.15)">
       <use xlink:href="#DejaVuSerif-Bold-35"/>
      </g>
     </g>
    </g>
    <g id="ytick_7">
     <g id="line2d_27">
      <path d="M 74.54 127.975791 
L 701.231473 127.975791 
" clip-path="url(#pf71bb762fe)" style="fill: none; stroke-dasharray: 2.96,1.28; stroke-dashoffset: 0; stroke: #b0b0b0; stroke-opacity: 0.7; stroke-width: 0.8"/>
     </g>
     <g id="line2d_28">
      <g>
       <use xlink:href="#m6b8637b19d" x="74.54" y="127.975791" style="stroke: #000000; stroke-width: 0.8"/>
      </g>
     </g>
     <g id="text_15">
      <!-- 10 -->
      <g transform="translate(46.666563 133.674619) scale(0.15 -0.15)">
       <use xlink:href="#DejaVuSerif-Bold-31"/>
       <use xlink:href="#DejaVuSerif-Bold-30" x="69.580078"/>
      </g>
     </g>
    </g>
    <g id="ytick_8">
     <g id="line2d_29">
      <path d="M 74.54 89.105999 
L 701.231473 89.105999 
" clip-path="url(#pf71bb762fe)" style="fill: none; stroke-dasharray: 2.96,1.28; stroke-dashoffset: 0; stroke: #b0b0b0; stroke-opacity: 0.7; stroke-width: 0.8"/>
     </g>
     <g id="line2d_30">
      <g>
       <use xlink:href="#m6b8637b19d" x="74.54" y="89.105999" style="stroke: #000000; stroke-width: 0.8"/>
      </g>
     </g>
     <g id="text_16">
      <!-- 15 -->
      <g transform="translate(46.666563 94.804827) scale(0.15 -0.15)">
       <use xlink:href="#DejaVuSerif-Bold-31"/>
       <use xlink:href="#DejaVuSerif-Bold-35" x="69.580078"/>
      </g>
     </g>
    </g>
    <g id="ytick_9">
     <g id="line2d_31">
      <path d="M 74.54 50.236206 
L 701.231473 50.236206 
" clip-path="url(#pf71bb762fe)" style="fill: none; stroke-dasharray: 2.96,1.28; stroke-dashoffset: 0; stroke: #b0b0b0; stroke-opacity: 0.7; stroke-width: 0.8"/>
     </g>
     <g id="line2d_32">
      <g>
       <use xlink:href="#m6b8637b19d" x="74.54" y="50.236206" style="stroke: #000000; stroke-width: 0.8"/>
      </g>
     </g>
     <g id="text_17">
      <!-- 20 -->
      <g transform="translate(46.666563 55.935035) scale(0.15 -0.15)">
       <use xlink:href="#DejaVuSerif-Bold-32"/>
       <use xlink:href="#DejaVuSerif-Bold-30" x="69.580078"/>
      </g>
     </g>
    </g>
    <g id="text_18">
     <!-- Control Value -->
     <g transform="translate(26.9775 257.793125) rotate(-90) scale(0.15 -0.15)">
      <defs>
       <path id="DejaVuSerif-43" d="M 4513 1234 
Q 4306 581 3820 245 
Q 3334 -91 2591 -91 
Q 2134 -91 1743 65 
Q 1353 222 1050 525 
Q 700 875 529 1320 
Q 359 1766 359 2328 
Q 359 3416 987 4083 
Q 1616 4750 2644 4750 
Q 3025 4750 3456 4650 
Q 3888 4550 4384 4347 
L 4384 3272 
L 4031 3272 
Q 3916 3859 3567 4137 
Q 3219 4416 2591 4416 
Q 1844 4416 1459 3886 
Q 1075 3356 1075 2328 
Q 1075 1303 1459 773 
Q 1844 244 2591 244 
Q 3113 244 3450 492 
Q 3788 741 3938 1234 
L 4513 1234 
z
" transform="scale(0.015625)"/>
       <path id="DejaVuSerif-6f" d="M 1925 219 
Q 2388 219 2623 584 
Q 2859 950 2859 1663 
Q 2859 2375 2623 2739 
Q 2388 3103 1925 3103 
Q 1463 3103 1227 2739 
Q 991 2375 991 1663 
Q 991 950 1228 584 
Q 1466 219 1925 219 
z
M 1925 -91 
Q 1200 -91 759 389 
Q 319 869 319 1663 
Q 319 2456 758 2934 
Q 1197 3413 1925 3413 
Q 2653 3413 3092 2934 
Q 3531 2456 3531 1663 
Q 3531 869 3092 389 
Q 2653 -91 1925 -91 
z
" transform="scale(0.015625)"/>
       <path id="DejaVuSerif-6e" d="M 263 0 
L 263 331 
L 781 331 
L 781 2988 
L 231 2988 
L 231 3322 
L 1356 3322 
L 1356 2731 
Q 1516 3069 1770 3241 
Q 2025 3413 2363 3413 
Q 2913 3413 3172 3097 
Q 3431 2781 3431 2113 
L 3431 331 
L 3944 331 
L 3944 0 
L 2356 0 
L 2356 331 
L 2853 331 
L 2853 1931 
Q 2853 2541 2703 2767 
Q 2553 2994 2175 2994 
Q 1775 2994 1565 2701 
Q 1356 2409 1356 1850 
L 1356 331 
L 1856 331 
L 1856 0 
L 263 0 
z
" transform="scale(0.015625)"/>
       <path id="DejaVuSerif-74" d="M 691 2988 
L 184 2988 
L 184 3322 
L 691 3322 
L 691 4353 
L 1269 4353 
L 1269 3322 
L 2350 3322 
L 2350 2988 
L 1269 2988 
L 1269 878 
Q 1269 456 1350 337 
Q 1431 219 1650 219 
Q 1875 219 1978 351 
Q 2081 484 2088 781 
L 2522 781 
Q 2497 328 2275 118 
Q 2053 -91 1600 -91 
Q 1103 -91 897 129 
Q 691 350 691 878 
L 691 2988 
z
" transform="scale(0.015625)"/>
       <path id="DejaVuSerif-72" d="M 3059 3328 
L 3059 2497 
L 2728 2497 
Q 2713 2744 2591 2866 
Q 2469 2988 2234 2988 
Q 1809 2988 1582 2694 
Q 1356 2400 1356 1850 
L 1356 331 
L 2022 331 
L 2022 0 
L 263 0 
L 263 331 
L 781 331 
L 781 2994 
L 231 2994 
L 231 3322 
L 1356 3322 
L 1356 2731 
Q 1525 3078 1790 3245 
Q 2056 3413 2438 3413 
Q 2578 3413 2733 3391 
Q 2888 3369 3059 3328 
z
" transform="scale(0.015625)"/>
       <path id="DejaVuSerif-6c" d="M 1313 331 
L 1856 331 
L 1856 0 
L 184 0 
L 184 331 
L 738 331 
L 738 4531 
L 184 4531 
L 184 4863 
L 1313 4863 
L 1313 331 
z
" transform="scale(0.015625)"/>
       <path id="DejaVuSerif-20" transform="scale(0.015625)"/>
       <path id="DejaVuSerif-56" d="M 1119 4331 
L 2497 750 
L 3872 4331 
L 3347 4331 
L 3347 4666 
L 4716 4666 
L 4716 4331 
L 4263 4331 
L 2597 0 
L 2059 0 
L 403 4331 
L -63 4331 
L -63 4666 
L 1638 4666 
L 1638 4331 
L 1119 4331 
z
" transform="scale(0.015625)"/>
       <path id="DejaVuSerif-61" d="M 2547 1044 
L 2547 1747 
L 1806 1747 
Q 1378 1747 1168 1562 
Q 959 1378 959 997 
Q 959 650 1171 447 
Q 1384 244 1747 244 
Q 2106 244 2326 466 
Q 2547 688 2547 1044 
z
M 3122 2075 
L 3122 331 
L 3634 331 
L 3634 0 
L 2547 0 
L 2547 359 
Q 2356 128 2106 18 
Q 1856 -91 1522 -91 
Q 969 -91 644 203 
Q 319 497 319 997 
Q 319 1513 691 1797 
Q 1063 2081 1741 2081 
L 2547 2081 
L 2547 2309 
Q 2547 2688 2317 2895 
Q 2088 3103 1672 3103 
Q 1328 3103 1125 2947 
Q 922 2791 872 2484 
L 575 2484 
L 575 3156 
Q 875 3284 1158 3348 
Q 1441 3413 1709 3413 
Q 2400 3413 2761 3070 
Q 3122 2728 3122 2075 
z
" transform="scale(0.015625)"/>
       <path id="DejaVuSerif-75" d="M 2266 3322 
L 3341 3322 
L 3341 331 
L 3884 331 
L 3884 0 
L 2766 0 
L 2766 588 
Q 2606 256 2353 82 
Q 2100 -91 1766 -91 
Q 1213 -91 952 223 
Q 691 538 691 1209 
L 691 2988 
L 172 2988 
L 172 3322 
L 1269 3322 
L 1269 1388 
Q 1269 781 1417 556 
Q 1566 331 1947 331 
Q 2347 331 2556 625 
Q 2766 919 2766 1478 
L 2766 2988 
L 2266 2988 
L 2266 3322 
z
" transform="scale(0.015625)"/>
      </defs>
      <use xlink:href="#DejaVuSerif-43"/>
      <use xlink:href="#DejaVuSerif-6f" x="76.513672"/>
      <use xlink:href="#DejaVuSerif-6e" x="136.71875"/>
      <use xlink:href="#DejaVuSerif-74" x="201.123047"/>
      <use xlink:href="#DejaVuSerif-72" x="241.308594"/>
      <use xlink:href="#DejaVuSerif-6f" x="289.111328"/>
      <use xlink:href="#DejaVuSerif-6c" x="349.316406"/>
      <use xlink:href="#DejaVuSerif-20" x="381.298828"/>
      <use xlink:href="#DejaVuSerif-56" x="413.085938"/>
      <use xlink:href="#DejaVuSerif-61" x="476.177734"/>
      <use xlink:href="#DejaVuSerif-6c" x="535.796875"/>
      <use xlink:href="#DejaVuSerif-75" x="567.779297"/>
      <use xlink:href="#DejaVuSerif-65" x="632.183594"/>
     </g>
    </g>
   </g>
   <g id="line2d_33">
    <path d="M 103.025976 361.194545 
L 103.025976 322.324746 
L 122.671477 322.324746 
L 122.671477 258.189599 
L 142.316978 258.189599 
L 142.316978 229.328776 
L 161.962478 229.328776 
L 161.962478 216.341408 
L 181.607979 216.341408 
L 181.607979 210.497092 
L 201.25348 210.497092 
L 201.25348 207.867148 
L 220.89898 207.867148 
L 220.89898 206.683674 
L 240.544481 206.683674 
L 240.544481 206.15111 
L 260.189982 206.15111 
L 260.189982 205.911456 
L 279.835483 205.911456 
L 279.835483 205.803612 
L 299.480983 205.803612 
L 299.480983 205.755082 
L 319.126484 205.755082 
L 319.126484 205.733244 
L 338.771985 205.733244 
L 338.771985 205.723416 
L 358.417486 205.723416 
L 358.417486 205.718994 
L 378.062986 205.718994 
L 378.062986 205.717004 
L 397.708487 205.717004 
L 397.708487 205.716109 
L 417.353988 205.716109 
L 417.353988 205.715706 
L 436.999489 205.715706 
L 436.999489 205.715524 
L 456.644989 205.715524 
L 456.644989 205.715443 
L 476.29049 205.715443 
L 476.29049 205.715406 
L 495.935991 205.715406 
L 495.935991 205.715389 
L 515.581491 205.715389 
L 515.581491 205.715382 
L 535.226992 205.715382 
L 535.226992 205.715379 
L 554.872493 205.715379 
L 554.872493 205.715377 
L 574.517994 205.715377 
L 574.517994 205.715376 
L 594.163494 205.715376 
L 594.163494 205.715376 
L 613.808995 205.715376 
L 613.808995 205.715376 
L 633.454496 205.715376 
L 633.454496 205.715376 
L 653.099997 205.715376 
L 653.099997 205.715376 
L 672.745497 205.715376 
" clip-path="url(#pf71bb762fe)" style="fill: none; stroke-dasharray: 9.6,2.4,1.5,2.4; stroke-dashoffset: 0; stroke: #1f77b4; stroke-width: 1.5"/>
    <defs>
     <path id="mc2aec0fd9e" d="M 0 3 
C 0.795609 3 1.55874 2.683901 2.12132 2.12132 
C 2.683901 1.55874 3 0.795609 3 0 
C 3 -0.795609 2.683901 -1.55874 2.12132 -2.12132 
C 1.55874 -2.683901 0.795609 -3 0 -3 
C -0.795609 -3 -1.55874 -2.683901 -2.12132 -2.12132 
C -2.683901 -1.55874 -3 -0.795609 -3 0 
C -3 0.795609 -2.683901 1.55874 -2.12132 2.12132 
C -1.55874 2.683901 -0.795609 3 0 3 
z
" style="stroke: #1f77b4"/>
    </defs>
    <g clip-path="url(#pf71bb762fe)">
     <use xlink:href="#mc2aec0fd9e" x="103.025976" y="361.194545" style="fill: #1f77b4; stroke: #1f77b4"/>
     <use xlink:href="#mc2aec0fd9e" x="122.671477" y="322.324746" style="fill: #1f77b4; stroke: #1f77b4"/>
     <use xlink:href="#mc2aec0fd9e" x="142.316978" y="258.189599" style="fill: #1f77b4; stroke: #1f77b4"/>
     <use xlink:href="#mc2aec0fd9e" x="161.962478" y="229.328776" style="fill: #1f77b4; stroke: #1f77b4"/>
     <use xlink:href="#mc2aec0fd9e" x="181.607979" y="216.341408" style="fill: #1f77b4; stroke: #1f77b4"/>
     <use xlink:href="#mc2aec0fd9e" x="201.25348" y="210.497092" style="fill: #1f77b4; stroke: #1f77b4"/>
     <use xlink:href="#mc2aec0fd9e" x="220.89898" y="207.867148" style="fill: #1f77b4; stroke: #1f77b4"/>
     <use xlink:href="#mc2aec0fd9e" x="240.544481" y="206.683674" style="fill: #1f77b4; stroke: #1f77b4"/>
     <use xlink:href="#mc2aec0fd9e" x="260.189982" y="206.15111" style="fill: #1f77b4; stroke: #1f77b4"/>
     <use xlink:href="#mc2aec0fd9e" x="279.835483" y="205.911456" style="fill: #1f77b4; stroke: #1f77b4"/>
     <use xlink:href="#mc2aec0fd9e" x="299.480983" y="205.803612" style="fill: #1f77b4; stroke: #1f77b4"/>
     <use xlink:href="#mc2aec0fd9e" x="319.126484" y="205.755082" style="fill: #1f77b4; stroke: #1f77b4"/>
     <use xlink:href="#mc2aec0fd9e" x="338.771985" y="205.733244" style="fill: #1f77b4; stroke: #1f77b4"/>
     <use xlink:href="#mc2aec0fd9e" x="358.417486" y="205.723416" style="fill: #1f77b4; stroke: #1f77b4"/>
     <use xlink:href="#mc2aec0fd9e" x="378.062986" y="205.718994" style="fill: #1f77b4; stroke: #1f77b4"/>
     <use xlink:href="#mc2aec0fd9e" x="397.708487" y="205.717004" style="fill: #1f77b4; stroke: #1f77b4"/>
     <use xlink:href="#mc2aec0fd9e" x="417.353988" y="205.716109" style="fill: #1f77b4; stroke: #1f77b4"/>
     <use xlink:href="#mc2aec0fd9e" x="436.999489" y="205.715706" style="fill: #1f77b4; stroke: #1f77b4"/>
     <use xlink:href="#mc2aec0fd9e" x="456.644989" y="205.715524" style="fill: #1f77b4; stroke: #1f77b4"/>
     <use xlink:href="#mc2aec0fd9e" x="476.29049" y="205.715443" style="fill: #1f77b4; stroke: #1f77b4"/>
     <use xlink:href="#mc2aec0fd9e" x="495.935991" y="205.715406" style="fill: #1f77b4; stroke: #1f77b4"/>
     <use xlink:href="#mc2aec0fd9e" x="515.581491" y="205.715389" style="fill: #1f77b4; stroke: #1f77b4"/>
     <use xlink:href="#mc2aec0fd9e" x="535.226992" y="205.715382" style="fill: #1f77b4; stroke: #1f77b4"/>
     <use xlink:href="#mc2aec0fd9e" x="554.872493" y="205.715379" style="fill: #1f77b4; stroke: #1f77b4"/>
     <use xlink:href="#mc2aec0fd9e" x="574.517994" y="205.715377" style="fill: #1f77b4; stroke: #1f77b4"/>
     <use xlink:href="#mc2aec0fd9e" x="594.163494" y="205.715376" style="fill: #1f77b4; stroke: #1f77b4"/>
     <use xlink:href="#mc2aec0fd9e" x="613.808995" y="205.715376" style="fill: #1f77b4; stroke: #1f77b4"/>
     <use xlink:href="#mc2aec0fd9e" x="633.454496" y="205.715376" style="fill: #1f77b4; stroke: #1f77b4"/>
     <use xlink:href="#mc2aec0fd9e" x="653.099997" y="205.715376" style="fill: #1f77b4; stroke: #1f77b4"/>
     <use xlink:href="#mc2aec0fd9e" x="672.745497" y="205.715376" style="fill: #1f77b4; stroke: #1f77b4"/>
    </g>
   </g>
   <g id="line2d_34">
    <path d="M 103.025976 361.194531 
L 103.025976 361.194545 
L 122.671477 361.194545 
L 122.671477 361.183588 
L 142.316978 361.183588 
L 142.316978 50.685455 
L 161.962478 50.685455 
L 161.962478 210.114458 
L 181.607979 210.114458 
L 181.607979 361.194442 
L 201.25348 361.194442 
L 201.25348 87.872042 
L 220.89898 87.872042 
L 220.89898 50.725104 
L 240.544481 50.725104 
L 240.544481 229.370977 
L 260.189982 229.370977 
L 260.189982 361.194545 
L 279.835483 361.194545 
L 279.835483 143.722072 
L 299.480983 143.722072 
L 299.480983 50.725311 
L 319.126484 50.725311 
L 319.126484 359.880697 
L 338.771985 359.880697 
L 338.771985 361.183766 
L 358.417486 361.183766 
L 358.417486 50.725222 
L 378.062986 50.725222 
L 378.062986 200.842788 
L 397.708487 200.842788 
L 397.708487 361.194308 
L 417.353988 361.194308 
L 417.353988 129.77053 
L 436.999489 129.77053 
L 436.999489 50.715258 
L 456.644989 50.715258 
L 456.644989 221.224504 
L 476.29049 221.224504 
L 476.29049 361.194545 
L 495.935991 361.194545 
L 495.935991 141.97674 
L 515.581491 141.97674 
L 515.581491 50.725222 
L 535.226992 50.725222 
L 535.226992 267.994067 
L 554.872493 267.994067 
L 554.872493 361.194545 
L 574.517994 361.194545 
L 574.517994 143.86341 
L 594.163494 143.86341 
L 594.163494 50.725282 
L 613.808995 50.725282 
L 613.808995 334.312878 
L 633.454496 334.312878 
L 633.454496 361.183973 
L 653.099997 361.183973 
L 653.099997 50.725341 
L 672.745497 50.725341 
" clip-path="url(#pf71bb762fe)" style="fill: none; stroke-dasharray: 9.6,2.4,1.5,2.4; stroke-dashoffset: 0; stroke: #ff7f0e; stroke-width: 1.5"/>
    <defs>
     <path id="mea4222f7e6" d="M 0 3 
C 0.795609 3 1.55874 2.683901 2.12132 2.12132 
C 2.683901 1.55874 3 0.795609 3 0 
C 3 -0.795609 2.683901 -1.55874 2.12132 -2.12132 
C 1.55874 -2.683901 0.795609 -3 0 -3 
C -0.795609 -3 -1.55874 -2.683901 -2.12132 -2.12132 
C -2.683901 -1.55874 -3 -0.795609 -3 0 
C -3 0.795609 -2.683901 1.55874 -2.12132 2.12132 
C -1.55874 2.683901 -0.795609 3 0 3 
z
" style="stroke: #ff7f0e"/>
    </defs>
    <g clip-path="url(#pf71bb762fe)">
     <use xlink:href="#mea4222f7e6" x="103.025976" y="361.194531" style="fill: #ff7f0e; stroke: #ff7f0e"/>
     <use xlink:href="#mea4222f7e6" x="122.671477" y="361.194545" style="fill: #ff7f0e; stroke: #ff7f0e"/>
     <use xlink:href="#mea4222f7e6" x="142.316978" y="361.183588" style="fill: #ff7f0e; stroke: #ff7f0e"/>
     <use xlink:href="#mea4222f7e6" x="161.962478" y="50.685455" style="fill: #ff7f0e; stroke: #ff7f0e"/>
     <use xlink:href="#mea4222f7e6" x="181.607979" y="210.114458" style="fill: #ff7f0e; stroke: #ff7f0e"/>
     <use xlink:href="#mea4222f7e6" x="201.25348" y="361.194442" style="fill: #ff7f0e; stroke: #ff7f0e"/>
     <use xlink:href="#mea4222f7e6" x="220.89898" y="87.872042" style="fill: #ff7f0e; stroke: #ff7f0e"/>
     <use xlink:href="#mea4222f7e6" x="240.544481" y="50.725104" style="fill: #ff7f0e; stroke: #ff7f0e"/>
     <use xlink:href="#mea4222f7e6" x="260.189982" y="229.370977" style="fill: #ff7f0e; stroke: #ff7f0e"/>
     <use xlink:href="#mea4222f7e6" x="279.835483" y="361.194545" style="fill: #ff7f0e; stroke: #ff7f0e"/>
     <use xlink:href="#mea4222f7e6" x="299.480983" y="143.722072" style="fill: #ff7f0e; stroke: #ff7f0e"/>
     <use xlink:href="#mea4222f7e6" x="319.126484" y="50.725311" style="fill: #ff7f0e; stroke: #ff7f0e"/>
     <use xlink:href="#mea4222f7e6" x="338.771985" y="359.880697" style="fill: #ff7f0e; stroke: #ff7f0e"/>
     <use xlink:href="#mea4222f7e6" x="358.417486" y="361.183766" style="fill: #ff7f0e; stroke: #ff7f0e"/>
     <use xlink:href="#mea4222f7e6" x="378.062986" y="50.725222" style="fill: #ff7f0e; stroke: #ff7f0e"/>
     <use xlink:href="#mea4222f7e6" x="397.708487" y="200.842788" style="fill: #ff7f0e; stroke: #ff7f0e"/>
     <use xlink:href="#mea4222f7e6" x="417.353988" y="361.194308" style="fill: #ff7f0e; stroke: #ff7f0e"/>
     <use xlink:href="#mea4222f7e6" x="436.999489" y="129.77053" style="fill: #ff7f0e; stroke: #ff7f0e"/>
     <use xlink:href="#mea4222f7e6" x="456.644989" y="50.715258" style="fill: #ff7f0e; stroke: #ff7f0e"/>
     <use xlink:href="#mea4222f7e6" x="476.29049" y="221.224504" style="fill: #ff7f0e; stroke: #ff7f0e"/>
     <use xlink:href="#mea4222f7e6" x="495.935991" y="361.194545" style="fill: #ff7f0e; stroke: #ff7f0e"/>
     <use xlink:href="#mea4222f7e6" x="515.581491" y="141.97674" style="fill: #ff7f0e; stroke: #ff7f0e"/>
     <use xlink:href="#mea4222f7e6" x="535.226992" y="50.725222" style="fill: #ff7f0e; stroke: #ff7f0e"/>
     <use xlink:href="#mea4222f7e6" x="554.872493" y="267.994067" style="fill: #ff7f0e; stroke: #ff7f0e"/>
     <use xlink:href="#mea4222f7e6" x="574.517994" y="361.194545" style="fill: #ff7f0e; stroke: #ff7f0e"/>
     <use xlink:href="#mea4222f7e6" x="594.163494" y="143.86341" style="fill: #ff7f0e; stroke: #ff7f0e"/>
     <use xlink:href="#mea4222f7e6" x="613.808995" y="50.725282" style="fill: #ff7f0e; stroke: #ff7f0e"/>
     <use xlink:href="#mea4222f7e6" x="633.454496" y="334.312878" style="fill: #ff7f0e; stroke: #ff7f0e"/>
     <use xlink:href="#mea4222f7e6" x="653.099997" y="361.183973" style="fill: #ff7f0e; stroke: #ff7f0e"/>
     <use xlink:href="#mea4222f7e6" x="672.745497" y="50.725341" style="fill: #ff7f0e; stroke: #ff7f0e"/>
    </g>
   </g>
   <g id="patch_3">
    <path d="M 74.54 376.72 
L 74.54 35.16 
" style="fill: none; stroke: #000000; stroke-width: 0.8; stroke-linejoin: miter; stroke-linecap: square"/>
   </g>
   <g id="patch_4">
    <path d="M 701.231473 376.72 
L 701.231473 35.16 
" style="fill: none; stroke: #000000; stroke-width: 0.8; stroke-linejoin: miter; stroke-linecap: square"/>
   </g>
   <g id="patch_5">
    <path d="M 74.54 376.72 
L 701.231473 376.72 
" style="fill: none; stroke: #000000; stroke-width: 0.8; stroke-linejoin: miter; stroke-linecap: square"/>
   </g>
   <g id="patch_6">
    <path d="M 74.54 35.16 
L 701.231473 35.16 
" style="fill: none; stroke: #000000; stroke-width: 0.8; stroke-linejoin: miter; stroke-linecap: square"/>
   </g>
   <g id="text_19">
    <!-- Control Policy Over Time -->
    <g transform="translate(273.15683 29.16) scale(0.18 -0.18)">
     <defs>
      <path id="DejaVuSerif-50" d="M 1581 2375 
L 2406 2375 
Q 2872 2375 3115 2626 
Q 3359 2878 3359 3353 
Q 3359 3831 3115 4081 
Q 2872 4331 2406 4331 
L 1581 4331 
L 1581 2375 
z
M 353 0 
L 353 331 
L 947 331 
L 947 4331 
L 353 4331 
L 353 4666 
L 2559 4666 
Q 3259 4666 3668 4311 
Q 4078 3956 4078 3353 
Q 4078 2753 3668 2397 
Q 3259 2041 2559 2041 
L 1581 2041 
L 1581 331 
L 2303 331 
L 2303 0 
L 353 0 
z
" transform="scale(0.015625)"/>
      <path id="DejaVuSerif-63" d="M 3291 997 
Q 3169 466 2822 187 
Q 2475 -91 1925 -91 
Q 1200 -91 759 389 
Q 319 869 319 1663 
Q 319 2459 759 2936 
Q 1200 3413 1925 3413 
Q 2241 3413 2553 3339 
Q 2866 3266 3181 3116 
L 3181 2266 
L 2847 2266 
Q 2781 2703 2561 2903 
Q 2341 3103 1931 3103 
Q 1466 3103 1228 2742 
Q 991 2381 991 1663 
Q 991 944 1227 581 
Q 1463 219 1931 219 
Q 2303 219 2525 412 
Q 2747 606 2828 997 
L 3291 997 
z
" transform="scale(0.015625)"/>
      <path id="DejaVuSerif-79" d="M 1381 -609 
L 1600 -56 
L 359 2988 
L -19 2988 
L -19 3322 
L 1509 3322 
L 1509 2988 
L 978 2988 
L 1913 703 
L 2847 2988 
L 2350 2988 
L 2350 3322 
L 3597 3322 
L 3597 2988 
L 3225 2988 
L 1703 -750 
Q 1547 -1138 1356 -1280 
Q 1166 -1422 819 -1422 
Q 672 -1422 517 -1397 
Q 363 -1372 206 -1325 
L 206 -691 
L 500 -691 
Q 519 -903 608 -995 
Q 697 -1088 884 -1088 
Q 1056 -1088 1161 -992 
Q 1266 -897 1381 -609 
z
" transform="scale(0.015625)"/>
      <path id="DejaVuSerif-4f" d="M 2625 244 
Q 3391 244 3781 770 
Q 4172 1297 4172 2328 
Q 4172 3363 3781 3889 
Q 3391 4416 2625 4416 
Q 1856 4416 1465 3889 
Q 1075 3363 1075 2328 
Q 1075 1297 1465 770 
Q 1856 244 2625 244 
z
M 2625 -91 
Q 2150 -91 1751 65 
Q 1353 222 1050 525 
Q 700 875 529 1319 
Q 359 1763 359 2328 
Q 359 2894 529 3339 
Q 700 3784 1050 4134 
Q 1356 4441 1750 4595 
Q 2144 4750 2625 4750 
Q 3641 4750 4266 4084 
Q 4891 3419 4891 2328 
Q 4891 1769 4719 1320 
Q 4547 872 4197 525 
Q 3891 219 3497 64 
Q 3103 -91 2625 -91 
z
" transform="scale(0.015625)"/>
      <path id="DejaVuSerif-76" d="M 1581 0 
L 359 2988 
L -19 2988 
L -19 3322 
L 1509 3322 
L 1509 2988 
L 978 2988 
L 1913 703 
L 2847 2988 
L 2350 2988 
L 2350 3322 
L 3597 3322 
L 3597 2988 
L 3225 2988 
L 2003 0 
L 1581 0 
z
" transform="scale(0.015625)"/>
     </defs>
     <use xlink:href="#DejaVuSerif-43"/>
     <use xlink:href="#DejaVuSerif-6f" x="76.513672"/>
     <use xlink:href="#DejaVuSerif-6e" x="136.71875"/>
     <use xlink:href="#DejaVuSerif-74" x="201.123047"/>
     <use xlink:href="#DejaVuSerif-72" x="241.308594"/>
     <use xlink:href="#DejaVuSerif-6f" x="289.111328"/>
     <use xlink:href="#DejaVuSerif-6c" x="349.316406"/>
     <use xlink:href="#DejaVuSerif-20" x="381.298828"/>
     <use xlink:href="#DejaVuSerif-50" x="413.085938"/>
     <use xlink:href="#DejaVuSerif-6f" x="476.371094"/>
     <use xlink:href="#DejaVuSerif-6c" x="536.576172"/>
     <use xlink:href="#DejaVuSerif-69" x="568.558594"/>
     <use xlink:href="#DejaVuSerif-63" x="600.541016"/>
     <use xlink:href="#DejaVuSerif-79" x="656.546875"/>
     <use xlink:href="#DejaVuSerif-20" x="713.041016"/>
     <use xlink:href="#DejaVuSerif-4f" x="744.828125"/>
     <use xlink:href="#DejaVuSerif-76" x="826.810547"/>
     <use xlink:href="#DejaVuSerif-65" x="883.304688"/>
     <use xlink:href="#DejaVuSerif-72" x="942.484375"/>
     <use xlink:href="#DejaVuSerif-20" x="990.287109"/>
     <use xlink:href="#DejaVuSerif-54" x="1022.074219"/>
     <use xlink:href="#DejaVuSerif-69" x="1088.773438"/>
     <use xlink:href="#DejaVuSerif-6d" x="1120.755859"/>
     <use xlink:href="#DejaVuSerif-65" x="1215.580078"/>
    </g>
   </g>
   <g id="legend_1">
    <g id="patch_7">
     <path d="M 485.531473 91.86 
L 690.731473 91.86 
Q 693.731473 91.86 693.731473 88.86 
L 693.731473 45.66 
Q 693.731473 42.66 690.731473 42.66 
L 485.531473 42.66 
Q 482.531473 42.66 482.531473 45.66 
L 482.531473 88.86 
Q 482.531473 91.86 485.531473 91.86 
z
" style="fill: #ffffff; opacity: 0.8; stroke: #cccccc; stroke-linejoin: miter"/>
    </g>
    <g id="line2d_35">
     <path d="M 488.531473 54.81 
L 488.531473 54.81 
L 503.531473 54.81 
L 503.531473 54.81 
L 518.531473 54.81 
" style="fill: none; stroke-dasharray: 9.6,2.4,1.5,2.4; stroke-dashoffset: 0; stroke: #1f77b4; stroke-width: 1.5"/>
     <g>
      <use xlink:href="#mc2aec0fd9e" x="503.531473" y="54.81" style="fill: #1f77b4; stroke: #1f77b4"/>
     </g>
    </g>
    <g id="text_20">
     <!-- Control Policy, $\pi$ 1 -->
     <g transform="translate(530.531473 60.06) scale(0.15 -0.15)">
      <defs>
       <path id="DejaVuSerif-Bold-43" d="M 4769 1331 
Q 4584 609 4106 259 
Q 3628 -91 2822 -91 
Q 1641 -91 955 561 
Q 269 1213 269 2328 
Q 269 3447 955 4098 
Q 1641 4750 2822 4750 
Q 3238 4750 3688 4650 
Q 4138 4550 4641 4347 
L 4641 3200 
L 4244 3200 
Q 4122 3788 3800 4080 
Q 3478 4372 2950 4372 
Q 2269 4372 1937 3870 
Q 1606 3369 1606 2328 
Q 1606 1288 1937 788 
Q 2269 288 2956 288 
Q 3422 288 3717 547 
Q 4013 806 4147 1331 
L 4769 1331 
z
" transform="scale(0.015625)"/>
       <path id="DejaVuSerif-Bold-6f" d="M 2138 263 
Q 2488 263 2630 563 
Q 2772 863 2772 1663 
Q 2772 2463 2631 2761 
Q 2491 3059 2138 3059 
Q 1784 3059 1640 2757 
Q 1497 2456 1497 1663 
Q 1497 869 1640 566 
Q 1784 263 2138 263 
z
M 2138 -91 
Q 1259 -91 761 376 
Q 263 844 263 1663 
Q 263 2484 761 2948 
Q 1259 3413 2138 3413 
Q 3019 3413 3516 2948 
Q 4013 2484 4013 1663 
Q 4013 844 3514 376 
Q 3016 -91 2138 -91 
z
" transform="scale(0.015625)"/>
       <path id="DejaVuSerif-Bold-6e" d="M 219 0 
L 219 378 
L 691 378 
L 691 2944 
L 219 2944 
L 219 3322 
L 1797 3322 
L 1797 2853 
Q 1997 3150 2253 3281 
Q 2509 3413 2900 3413 
Q 3459 3413 3745 3083 
Q 4031 2753 4031 2113 
L 4031 378 
L 4506 378 
L 4506 0 
L 2522 0 
L 2522 378 
L 2925 378 
L 2925 2144 
Q 2925 2566 2817 2730 
Q 2709 2894 2444 2894 
Q 2109 2894 1953 2648 
Q 1797 2403 1797 1869 
L 1797 378 
L 2203 378 
L 2203 0 
L 219 0 
z
" transform="scale(0.015625)"/>
       <path id="DejaVuSerif-Bold-74" d="M 634 2944 
L 153 2944 
L 153 3322 
L 634 3322 
L 634 4353 
L 1741 4353 
L 1741 3322 
L 2663 3322 
L 2663 2944 
L 1741 2944 
L 1741 909 
Q 1741 475 1809 369 
Q 1878 263 2059 263 
Q 2259 263 2356 397 
Q 2453 531 2459 813 
L 2925 813 
Q 2897 313 2651 111 
Q 2406 -91 1806 -91 
Q 1122 -91 878 123 
Q 634 338 634 909 
L 634 2944 
z
" transform="scale(0.015625)"/>
       <path id="DejaVuSerif-Bold-72" d="M 3438 3359 
L 3438 2369 
L 3084 2369 
Q 3066 2634 2941 2764 
Q 2816 2894 2578 2894 
Q 2216 2894 2006 2575 
Q 1797 2256 1797 1691 
L 1797 378 
L 2400 378 
L 2400 0 
L 219 0 
L 219 378 
L 691 378 
L 691 2944 
L 184 2944 
L 184 3322 
L 1797 3322 
L 1797 2731 
Q 1959 3078 2226 3245 
Q 2494 3413 2881 3413 
Q 2978 3413 3117 3398 
Q 3256 3384 3438 3359 
z
" transform="scale(0.015625)"/>
       <path id="DejaVuSerif-Bold-6c" d="M 1797 378 
L 2272 378 
L 2272 0 
L 219 0 
L 219 378 
L 691 378 
L 691 4488 
L 219 4488 
L 219 4863 
L 1797 4863 
L 1797 378 
z
" transform="scale(0.015625)"/>
       <path id="DejaVuSerif-Bold-20" transform="scale(0.015625)"/>
       <path id="DejaVuSerif-Bold-50" d="M 300 0 
L 300 378 
L 897 378 
L 897 4288 
L 300 4288 
L 300 4666 
L 2956 4666 
Q 3734 4666 4193 4295 
Q 4653 3925 4653 3303 
Q 4653 2678 4192 2304 
Q 3731 1931 2956 1931 
L 2100 1931 
L 2100 378 
L 2853 378 
L 2853 0 
L 300 0 
z
M 2100 2309 
L 2450 2309 
Q 2856 2309 3098 2579 
Q 3341 2850 3341 3303 
Q 3341 3753 3100 4020 
Q 2859 4288 2450 4288 
L 2100 4288 
L 2100 2309 
z
" transform="scale(0.015625)"/>
       <path id="DejaVuSerif-Bold-69" d="M 588 4263 
Q 588 4516 763 4689 
Q 938 4863 1191 4863 
Q 1438 4863 1611 4689 
Q 1784 4516 1784 4263 
Q 1784 4016 1611 3842 
Q 1438 3669 1191 3669 
Q 938 3669 763 3841 
Q 588 4013 588 4263 
z
M 1797 378 
L 2272 378 
L 2272 0 
L 219 0 
L 219 378 
L 691 378 
L 691 2944 
L 219 2944 
L 219 3322 
L 1797 3322 
L 1797 378 
z
" transform="scale(0.015625)"/>
       <path id="DejaVuSerif-Bold-63" d="M 3609 1038 
Q 3491 469 3123 189 
Q 2756 -91 2125 -91 
Q 1238 -91 750 368 
Q 263 828 263 1663 
Q 263 2488 744 2950 
Q 1225 3413 2081 3413 
Q 2428 3413 2781 3347 
Q 3134 3281 3500 3150 
L 3500 2228 
L 3150 2228 
Q 3100 2650 2903 2854 
Q 2706 3059 2350 3059 
Q 1888 3059 1692 2746 
Q 1497 2434 1497 1663 
Q 1497 909 1687 586 
Q 1878 263 2309 263 
Q 2644 263 2845 463 
Q 3047 663 3091 1038 
L 3609 1038 
z
" transform="scale(0.015625)"/>
       <path id="DejaVuSerif-Bold-79" d="M 1997 -750 
Q 1847 -1116 1634 -1269 
Q 1422 -1422 1063 -1422 
Q 909 -1422 721 -1387 
Q 534 -1353 313 -1288 
L 313 -594 
L 666 -597 
Q 675 -838 779 -953 
Q 884 -1069 1094 -1069 
Q 1297 -1069 1422 -958 
Q 1547 -847 1672 -538 
L 1722 -422 
L 275 2944 
L -84 2944 
L -84 3322 
L 1831 3322 
L 1831 2944 
L 1434 2944 
L 2278 978 
L 3066 2944 
L 2625 2944 
L 2625 3322 
L 3872 3322 
L 3872 2944 
L 3469 2944 
L 1997 -750 
z
" transform="scale(0.015625)"/>
       <path id="DejaVuSerif-Bold-2c" d="M 84 -616 
Q 409 -353 562 -28 
Q 716 297 716 728 
L 716 997 
L 1606 997 
L 1606 972 
Q 1606 281 1317 -217 
Q 1028 -716 428 -1056 
L 84 -616 
z
" transform="scale(0.015625)"/>
       <path id="DejaVuSans-BoldOblique-3c0" d="M 622 3500 
L 5038 3500 
L 4881 2700 
L 4269 2700 
L 3963 1131 
Q 3919 900 3919 784 
Q 3919 672 3944 631 
Q 4000 531 4175 531 
Q 4353 531 4456 544 
L 4341 -44 
Q 4134 -122 3469 -122 
Q 3259 -122 3069 -63 
Q 2725 47 2725 388 
Q 2725 516 2766 728 
L 3150 2700 
L 2197 2700 
L 1672 0 
L 553 0 
L 1078 2700 
L 466 2700 
L 622 3500 
z
" transform="scale(0.015625)"/>
      </defs>
      <use xlink:href="#DejaVuSerif-Bold-43" transform="translate(0 0.015625)"/>
      <use xlink:href="#DejaVuSerif-Bold-6f" transform="translate(79.589844 0.015625)"/>
      <use xlink:href="#DejaVuSerif-Bold-6e" transform="translate(146.289062 0.015625)"/>
      <use xlink:href="#DejaVuSerif-Bold-74" transform="translate(218.994141 0.015625)"/>
      <use xlink:href="#DejaVuSerif-Bold-72" transform="translate(265.185547 0.015625)"/>
      <use xlink:href="#DejaVuSerif-Bold-6f" transform="translate(317.871094 0.015625)"/>
      <use xlink:href="#DejaVuSerif-Bold-6c" transform="translate(384.570312 0.015625)"/>
      <use xlink:href="#DejaVuSerif-Bold-20" transform="translate(422.558594 0.015625)"/>
      <use xlink:href="#DejaVuSerif-Bold-50" transform="translate(457.373047 0.015625)"/>
      <use xlink:href="#DejaVuSerif-Bold-6f" transform="translate(532.568359 0.015625)"/>
      <use xlink:href="#DejaVuSerif-Bold-6c" transform="translate(599.267578 0.015625)"/>
      <use xlink:href="#DejaVuSerif-Bold-69" transform="translate(637.255859 0.015625)"/>
      <use xlink:href="#DejaVuSerif-Bold-63" transform="translate(675.244141 0.015625)"/>
      <use xlink:href="#DejaVuSerif-Bold-79" transform="translate(736.132812 0.015625)"/>
      <use xlink:href="#DejaVuSerif-Bold-2c" transform="translate(794.238281 0.015625)"/>
      <use xlink:href="#DejaVuSerif-Bold-20" transform="translate(829.052734 0.015625)"/>
      <use xlink:href="#DejaVuSans-BoldOblique-3c0" transform="translate(863.867188 0.015625)"/>
      <use xlink:href="#DejaVuSerif-Bold-20" transform="translate(942.96875 0.015625)"/>
      <use xlink:href="#DejaVuSerif-Bold-31" transform="translate(977.783203 0.015625)"/>
     </g>
    </g>
    <g id="line2d_36">
     <path d="M 488.531473 77.16 
L 488.531473 77.16 
L 503.531473 77.16 
L 503.531473 77.16 
L 518.531473 77.16 
" style="fill: none; stroke-dasharray: 9.6,2.4,1.5,2.4; stroke-dashoffset: 0; stroke: #ff7f0e; stroke-width: 1.5"/>
     <g>
      <use xlink:href="#mea4222f7e6" x="503.531473" y="77.16" style="fill: #ff7f0e; stroke: #ff7f0e"/>
     </g>
    </g>
    <g id="text_21">
     <!-- Control Policy, $\pi$ 2 -->
     <g transform="translate(530.531473 82.41) scale(0.15 -0.15)">
      <use xlink:href="#DejaVuSerif-Bold-43" transform="translate(0 0.015625)"/>
      <use xlink:href="#DejaVuSerif-Bold-6f" transform="translate(79.589844 0.015625)"/>
      <use xlink:href="#DejaVuSerif-Bold-6e" transform="translate(146.289062 0.015625)"/>
      <use xlink:href="#DejaVuSerif-Bold-74" transform="translate(218.994141 0.015625)"/>
      <use xlink:href="#DejaVuSerif-Bold-72" transform="translate(265.185547 0.015625)"/>
      <use xlink:href="#DejaVuSerif-Bold-6f" transform="translate(317.871094 0.015625)"/>
      <use xlink:href="#DejaVuSerif-Bold-6c" transform="translate(384.570312 0.015625)"/>
      <use xlink:href="#DejaVuSerif-Bold-20" transform="translate(422.558594 0.015625)"/>
      <use xlink:href="#DejaVuSerif-Bold-50" transform="translate(457.373047 0.015625)"/>
      <use xlink:href="#DejaVuSerif-Bold-6f" transform="translate(532.568359 0.015625)"/>
      <use xlink:href="#DejaVuSerif-Bold-6c" transform="translate(599.267578 0.015625)"/>
      <use xlink:href="#DejaVuSerif-Bold-69" transform="translate(637.255859 0.015625)"/>
      <use xlink:href="#DejaVuSerif-Bold-63" transform="translate(675.244141 0.015625)"/>
      <use xlink:href="#DejaVuSerif-Bold-79" transform="translate(736.132812 0.015625)"/>
      <use xlink:href="#DejaVuSerif-Bold-2c" transform="translate(794.238281 0.015625)"/>
      <use xlink:href="#DejaVuSerif-Bold-20" transform="translate(829.052734 0.015625)"/>
      <use xlink:href="#DejaVuSans-BoldOblique-3c0" transform="translate(863.867188 0.015625)"/>
      <use xlink:href="#DejaVuSerif-Bold-20" transform="translate(942.96875 0.015625)"/>
      <use xlink:href="#DejaVuSerif-Bold-32" transform="translate(977.783203 0.015625)"/>
     </g>
    </g>
   </g>
  </g>
 </g>
 <defs>
  <clipPath id="pf71bb762fe">
   <rect x="74.54" y="35.16" width="626.691473" height="341.56"/>
  </clipPath>
 </defs>
</svg>
