<?xml version="1.0" encoding="utf-8" standalone="no"?>
<!DOCTYPE svg PUBLIC "-//W3C//DTD SVG 1.1//EN"
  "http://www.w3.org/Graphics/SVG/1.1/DTD/svg11.dtd">
<svg xmlns:xlink="http://www.w3.org/1999/xlink" width="720pt" height="432pt" viewBox="0 0 720 432" xmlns="http://www.w3.org/2000/svg" version="1.1">
 <metadata>
  <rdf:RDF xmlns:dc="http://purl.org/dc/elements/1.1/" xmlns:cc="http://creativecommons.org/ns#" xmlns:rdf="http://www.w3.org/1999/02/22-rdf-syntax-ns#">
   <cc:Work>
    <dc:type rdf:resource="http://purl.org/dc/dcmitype/StillImage"/>
    <dc:date>2024-11-04T11:53:33.608300</dc:date>
    <dc:format>image/svg+xml</dc:format>
    <dc:creator>
     <cc:Agent>
      <dc:title>Matplotlib v3.9.2, https://matplotlib.org/</dc:title>
     </cc:Agent>
    </dc:creator>
   </cc:Work>
  </rdf:RDF>
 </metadata>
 <defs>
  <style type="text/css">*{stroke-linejoin: round; stroke-linecap: butt}</style>
 </defs>
 <g id="figure_1">
  <g id="patch_1">
   <path d="M 0 432 
L 720 432 
L 720 0 
L 0 0 
z
" style="fill: #ffffff"/>
  </g>
  <g id="axes_1">
   <g id="patch_2">
    <path d="M 90.29 376.72 
L 703.8 376.72 
L 703.8 35.16 
L 90.29 35.16 
z
" style="fill: #ffffff"/>
   </g>
   <g id="matplotlib.axis_1">
    <g id="xtick_1">
     <g id="line2d_1">
      <path d="M 118.176818 376.72 
L 118.176818 35.16 
" clip-path="url(#pee67affd52)" style="fill: none; stroke-dasharray: 2.96,1.28; stroke-dashoffset: 0; stroke: #b0b0b0; stroke-opacity: 0.7; stroke-width: 0.8"/>
     </g>
     <g id="line2d_2">
      <defs>
       <path id="mdfa480cf77" d="M 0 0 
L 0 3.5 
" style="stroke: #000000; stroke-width: 0.8"/>
      </defs>
      <g>
       <use xlink:href="#mdfa480cf77" x="118.176818" y="376.72" style="stroke: #000000; stroke-width: 0.8"/>
      </g>
     </g>
     <g id="text_1">
      <!-- 0 -->
      <g transform="translate(112.958459 395.117656) scale(0.15 -0.15)">
       <defs>
        <path id="DejaVuSerif-Bold-30" d="M 2228 275 
Q 2603 275 2742 615 
Q 2881 956 2881 2328 
Q 2881 3691 2742 4037 
Q 2603 4384 2228 4384 
Q 1853 4384 1714 4043 
Q 1575 3703 1575 2328 
Q 1575 956 1714 615 
Q 1853 275 2228 275 
z
M 2228 -91 
Q 1294 -91 797 532 
Q 300 1156 300 2328 
Q 300 3500 797 4125 
Q 1294 4750 2228 4750 
Q 3159 4750 3656 4125 
Q 4153 3500 4153 2328 
Q 4153 1156 3656 532 
Q 3159 -91 2228 -91 
z
" transform="scale(0.015625)"/>
       </defs>
       <use xlink:href="#DejaVuSerif-Bold-30"/>
      </g>
     </g>
    </g>
    <g id="xtick_2">
     <g id="line2d_3">
      <path d="M 211.132879 376.72 
L 211.132879 35.16 
" clip-path="url(#pee67affd52)" style="fill: none; stroke-dasharray: 2.96,1.28; stroke-dashoffset: 0; stroke: #b0b0b0; stroke-opacity: 0.7; stroke-width: 0.8"/>
     </g>
     <g id="line2d_4">
      <g>
       <use xlink:href="#mdfa480cf77" x="211.132879" y="376.72" style="stroke: #000000; stroke-width: 0.8"/>
      </g>
     </g>
     <g id="text_2">
      <!-- 5 -->
      <g transform="translate(205.914519 395.117656) scale(0.15 -0.15)">
       <defs>
        <path id="DejaVuSerif-Bold-35" d="M 3609 4666 
L 3609 3847 
L 1113 3847 
L 1113 2822 
Q 1319 2981 1572 3062 
Q 1825 3144 2106 3144 
Q 2969 3144 3469 2708 
Q 3969 2272 3969 1522 
Q 3969 759 3469 334 
Q 2969 -91 2069 -91 
Q 1688 -91 1311 -28 
Q 934 34 525 166 
L 525 1184 
L 900 1184 
Q 919 725 1139 500 
Q 1359 275 1791 275 
Q 2250 275 2472 583 
Q 2694 891 2694 1522 
Q 2694 2144 2476 2451 
Q 2259 2759 1819 2759 
Q 1581 2759 1395 2661 
Q 1209 2563 1050 2356 
L 738 2356 
L 738 4666 
L 3609 4666 
z
" transform="scale(0.015625)"/>
       </defs>
       <use xlink:href="#DejaVuSerif-Bold-35"/>
      </g>
     </g>
    </g>
    <g id="xtick_3">
     <g id="line2d_5">
      <path d="M 304.088939 376.72 
L 304.088939 35.16 
" clip-path="url(#pee67affd52)" style="fill: none; stroke-dasharray: 2.96,1.28; stroke-dashoffset: 0; stroke: #b0b0b0; stroke-opacity: 0.7; stroke-width: 0.8"/>
     </g>
     <g id="line2d_6">
      <g>
       <use xlink:href="#mdfa480cf77" x="304.088939" y="376.72" style="stroke: #000000; stroke-width: 0.8"/>
      </g>
     </g>
     <g id="text_3">
      <!-- 10 -->
      <g transform="translate(293.652221 395.117656) scale(0.15 -0.15)">
       <defs>
        <path id="DejaVuSerif-Bold-31" d="M 878 0 
L 878 378 
L 1753 378 
L 1753 4153 
L 781 3578 
L 781 4044 
L 1953 4750 
L 2938 4750 
L 2938 378 
L 3816 378 
L 3816 0 
L 878 0 
z
" transform="scale(0.015625)"/>
       </defs>
       <use xlink:href="#DejaVuSerif-Bold-31"/>
       <use xlink:href="#DejaVuSerif-Bold-30" x="69.580078"/>
      </g>
     </g>
    </g>
    <g id="xtick_4">
     <g id="line2d_7">
      <path d="M 397.045 376.72 
L 397.045 35.16 
" clip-path="url(#pee67affd52)" style="fill: none; stroke-dasharray: 2.96,1.28; stroke-dashoffset: 0; stroke: #b0b0b0; stroke-opacity: 0.7; stroke-width: 0.8"/>
     </g>
     <g id="line2d_8">
      <g>
       <use xlink:href="#mdfa480cf77" x="397.045" y="376.72" style="stroke: #000000; stroke-width: 0.8"/>
      </g>
     </g>
     <g id="text_4">
      <!-- 15 -->
      <g transform="translate(386.608281 395.117656) scale(0.15 -0.15)">
       <use xlink:href="#DejaVuSerif-Bold-31"/>
       <use xlink:href="#DejaVuSerif-Bold-35" x="69.580078"/>
      </g>
     </g>
    </g>
    <g id="xtick_5">
     <g id="line2d_9">
      <path d="M 490.001061 376.72 
L 490.001061 35.16 
" clip-path="url(#pee67affd52)" style="fill: none; stroke-dasharray: 2.96,1.28; stroke-dashoffset: 0; stroke: #b0b0b0; stroke-opacity: 0.7; stroke-width: 0.8"/>
     </g>
     <g id="line2d_10">
      <g>
       <use xlink:href="#mdfa480cf77" x="490.001061" y="376.72" style="stroke: #000000; stroke-width: 0.8"/>
      </g>
     </g>
     <g id="text_5">
      <!-- 20 -->
      <g transform="translate(479.564342 395.117656) scale(0.15 -0.15)">
       <defs>
        <path id="DejaVuSerif-Bold-32" d="M 844 3513 
L 469 3513 
L 469 4519 
Q 850 4634 1223 4692 
Q 1597 4750 1978 4750 
Q 2869 4750 3367 4386 
Q 3866 4022 3866 3372 
Q 3866 2909 3591 2542 
Q 3316 2175 2541 1672 
L 1241 819 
L 3450 819 
L 3450 1369 
L 3878 1369 
L 3878 0 
L 428 0 
L 428 763 
L 1119 1241 
Q 2003 1850 2297 2278 
Q 2591 2706 2591 3278 
Q 2591 3819 2367 4101 
Q 2144 4384 1716 4384 
Q 1347 4384 1125 4161 
Q 903 3938 844 3513 
z
" transform="scale(0.015625)"/>
       </defs>
       <use xlink:href="#DejaVuSerif-Bold-32"/>
       <use xlink:href="#DejaVuSerif-Bold-30" x="69.580078"/>
      </g>
     </g>
    </g>
    <g id="xtick_6">
     <g id="line2d_11">
      <path d="M 582.957121 376.72 
L 582.957121 35.16 
" clip-path="url(#pee67affd52)" style="fill: none; stroke-dasharray: 2.96,1.28; stroke-dashoffset: 0; stroke: #b0b0b0; stroke-opacity: 0.7; stroke-width: 0.8"/>
     </g>
     <g id="line2d_12">
      <g>
       <use xlink:href="#mdfa480cf77" x="582.957121" y="376.72" style="stroke: #000000; stroke-width: 0.8"/>
      </g>
     </g>
     <g id="text_6">
      <!-- 25 -->
      <g transform="translate(572.520402 395.117656) scale(0.15 -0.15)">
       <use xlink:href="#DejaVuSerif-Bold-32"/>
       <use xlink:href="#DejaVuSerif-Bold-35" x="69.580078"/>
      </g>
     </g>
    </g>
    <g id="xtick_7">
     <g id="line2d_13">
      <path d="M 675.913182 376.72 
L 675.913182 35.16 
" clip-path="url(#pee67affd52)" style="fill: none; stroke-dasharray: 2.96,1.28; stroke-dashoffset: 0; stroke: #b0b0b0; stroke-opacity: 0.7; stroke-width: 0.8"/>
     </g>
     <g id="line2d_14">
      <g>
       <use xlink:href="#mdfa480cf77" x="675.913182" y="376.72" style="stroke: #000000; stroke-width: 0.8"/>
      </g>
     </g>
     <g id="text_7">
      <!-- 30 -->
      <g transform="translate(665.476463 395.117656) scale(0.15 -0.15)">
       <defs>
        <path id="DejaVuSerif-Bold-33" d="M 550 4531 
Q 963 4641 1350 4695 
Q 1738 4750 2106 4750 
Q 2950 4750 3401 4448 
Q 3853 4147 3853 3584 
Q 3853 3163 3593 2900 
Q 3334 2638 2834 2547 
Q 3444 2450 3744 2131 
Q 4044 1813 4044 1259 
Q 4044 606 3526 257 
Q 3009 -91 2028 -91 
Q 1659 -91 1267 -28 
Q 875 34 447 159 
L 447 1184 
L 825 1184 
Q 859 741 1103 508 
Q 1347 275 1778 275 
Q 2253 275 2512 539 
Q 2772 803 2772 1288 
Q 2772 1794 2501 2069 
Q 2231 2344 1734 2344 
L 1528 2344 
L 1528 2719 
L 1691 2719 
Q 2150 2719 2381 2931 
Q 2613 3144 2613 3566 
Q 2613 3963 2395 4173 
Q 2178 4384 1772 4384 
Q 1403 4384 1187 4182 
Q 972 3981 928 3597 
L 550 3597 
L 550 4531 
z
" transform="scale(0.015625)"/>
       </defs>
       <use xlink:href="#DejaVuSerif-Bold-33"/>
       <use xlink:href="#DejaVuSerif-Bold-30" x="69.580078"/>
      </g>
     </g>
    </g>
    <g id="text_8">
     <!-- Time -->
     <g transform="translate(378.092266 413.634844) scale(0.15 -0.15)">
      <defs>
       <path id="DejaVuSerif-54" d="M 1222 0 
L 1222 331 
L 1819 331 
L 1819 4294 
L 447 4294 
L 447 3566 
L 63 3566 
L 63 4666 
L 4206 4666 
L 4206 3566 
L 3822 3566 
L 3822 4294 
L 2450 4294 
L 2450 331 
L 3047 331 
L 3047 0 
L 1222 0 
z
" transform="scale(0.015625)"/>
       <path id="DejaVuSerif-69" d="M 622 4353 
Q 622 4497 726 4603 
Q 831 4709 978 4709 
Q 1122 4709 1226 4603 
Q 1331 4497 1331 4353 
Q 1331 4206 1228 4103 
Q 1125 4000 978 4000 
Q 831 4000 726 4103 
Q 622 4206 622 4353 
z
M 1356 331 
L 1900 331 
L 1900 0 
L 231 0 
L 231 331 
L 781 331 
L 781 2988 
L 231 2988 
L 231 3322 
L 1356 3322 
L 1356 331 
z
" transform="scale(0.015625)"/>
       <path id="DejaVuSerif-6d" d="M 3316 2675 
Q 3481 3041 3739 3227 
Q 3997 3413 4341 3413 
Q 4863 3413 5119 3089 
Q 5375 2766 5375 2113 
L 5375 331 
L 5894 331 
L 5894 0 
L 4300 0 
L 4300 331 
L 4800 331 
L 4800 2047 
Q 4800 2556 4650 2772 
Q 4500 2988 4153 2988 
Q 3769 2988 3567 2697 
Q 3366 2406 3366 1850 
L 3366 331 
L 3866 331 
L 3866 0 
L 2291 0 
L 2291 331 
L 2791 331 
L 2791 2069 
Q 2791 2566 2641 2777 
Q 2491 2988 2144 2988 
Q 1759 2988 1557 2697 
Q 1356 2406 1356 1850 
L 1356 331 
L 1856 331 
L 1856 0 
L 263 0 
L 263 331 
L 781 331 
L 781 2994 
L 231 2994 
L 231 3322 
L 1356 3322 
L 1356 2731 
Q 1516 3063 1762 3238 
Q 2009 3413 2322 3413 
Q 2709 3413 2968 3220 
Q 3228 3028 3316 2675 
z
" transform="scale(0.015625)"/>
       <path id="DejaVuSerif-65" d="M 3469 1600 
L 991 1600 
L 991 1575 
Q 991 903 1244 561 
Q 1497 219 1991 219 
Q 2369 219 2611 417 
Q 2853 616 2950 1006 
L 3413 1006 
Q 3275 459 2904 184 
Q 2534 -91 1931 -91 
Q 1203 -91 761 389 
Q 319 869 319 1663 
Q 319 2450 753 2931 
Q 1188 3413 1894 3413 
Q 2647 3413 3050 2948 
Q 3453 2484 3469 1600 
z
M 2791 1931 
Q 2772 2513 2545 2808 
Q 2319 3103 1894 3103 
Q 1497 3103 1269 2806 
Q 1041 2509 991 1931 
L 2791 1931 
z
" transform="scale(0.015625)"/>
      </defs>
      <use xlink:href="#DejaVuSerif-54"/>
      <use xlink:href="#DejaVuSerif-69" x="66.699219"/>
      <use xlink:href="#DejaVuSerif-6d" x="98.681641"/>
      <use xlink:href="#DejaVuSerif-65" x="193.505859"/>
     </g>
    </g>
   </g>
   <g id="matplotlib.axis_2">
    <g id="ytick_1">
     <g id="line2d_15">
      <path d="M 90.29 361.194545 
L 703.8 361.194545 
" clip-path="url(#pee67affd52)" style="fill: none; stroke-dasharray: 2.96,1.28; stroke-dashoffset: 0; stroke: #b0b0b0; stroke-opacity: 0.7; stroke-width: 0.8"/>
     </g>
     <g id="line2d_16">
      <defs>
       <path id="m9c3fcbdbfd" d="M 0 0 
L -3.5 0 
" style="stroke: #000000; stroke-width: 0.8"/>
      </defs>
      <g>
       <use xlink:href="#m9c3fcbdbfd" x="90.29" y="361.194545" style="stroke: #000000; stroke-width: 0.8"/>
      </g>
     </g>
     <g id="text_9">
      <!-- −1.00 -->
      <g transform="translate(34.188438 366.893374) scale(0.15 -0.15)">
       <defs>
        <path id="DejaVuSerif-Bold-2212" d="M 678 2363 
L 4684 2363 
L 4684 1644 
L 678 1644 
L 678 2363 
z
" transform="scale(0.015625)"/>
        <path id="DejaVuSerif-Bold-2e" d="M 519 506 
Q 519 750 694 925 
Q 869 1100 1113 1100 
Q 1359 1100 1534 925 
Q 1709 750 1709 506 
Q 1709 259 1534 84 
Q 1359 -91 1113 -91 
Q 869 -91 694 84 
Q 519 259 519 506 
z
" transform="scale(0.015625)"/>
       </defs>
       <use xlink:href="#DejaVuSerif-Bold-2212"/>
       <use xlink:href="#DejaVuSerif-Bold-31" x="83.789062"/>
       <use xlink:href="#DejaVuSerif-Bold-2e" x="153.369141"/>
       <use xlink:href="#DejaVuSerif-Bold-30" x="188.183594"/>
       <use xlink:href="#DejaVuSerif-Bold-30" x="257.763672"/>
      </g>
     </g>
    </g>
    <g id="ytick_2">
     <g id="line2d_17">
      <path d="M 90.29 322.380909 
L 703.8 322.380909 
" clip-path="url(#pee67affd52)" style="fill: none; stroke-dasharray: 2.96,1.28; stroke-dashoffset: 0; stroke: #b0b0b0; stroke-opacity: 0.7; stroke-width: 0.8"/>
     </g>
     <g id="line2d_18">
      <g>
       <use xlink:href="#m9c3fcbdbfd" x="90.29" y="322.380909" style="stroke: #000000; stroke-width: 0.8"/>
      </g>
     </g>
     <g id="text_10">
      <!-- −0.75 -->
      <g transform="translate(34.188438 328.079737) scale(0.15 -0.15)">
       <defs>
        <path id="DejaVuSerif-Bold-37" d="M 3922 3872 
L 1997 0 
L 1363 0 
L 3238 3781 
L 934 3781 
L 934 3150 
L 506 3150 
L 506 4666 
L 3922 4666 
L 3922 3872 
z
" transform="scale(0.015625)"/>
       </defs>
       <use xlink:href="#DejaVuSerif-Bold-2212"/>
       <use xlink:href="#DejaVuSerif-Bold-30" x="83.789062"/>
       <use xlink:href="#DejaVuSerif-Bold-2e" x="153.369141"/>
       <use xlink:href="#DejaVuSerif-Bold-37" x="188.183594"/>
       <use xlink:href="#DejaVuSerif-Bold-35" x="257.763672"/>
      </g>
     </g>
    </g>
    <g id="ytick_3">
     <g id="line2d_19">
      <path d="M 90.29 283.567273 
L 703.8 283.567273 
" clip-path="url(#pee67affd52)" style="fill: none; stroke-dasharray: 2.96,1.28; stroke-dashoffset: 0; stroke: #b0b0b0; stroke-opacity: 0.7; stroke-width: 0.8"/>
     </g>
     <g id="line2d_20">
      <g>
       <use xlink:href="#m9c3fcbdbfd" x="90.29" y="283.567273" style="stroke: #000000; stroke-width: 0.8"/>
      </g>
     </g>
     <g id="text_11">
      <!-- −0.50 -->
      <g transform="translate(34.188438 289.266101) scale(0.15 -0.15)">
       <use xlink:href="#DejaVuSerif-Bold-2212"/>
       <use xlink:href="#DejaVuSerif-Bold-30" x="83.789062"/>
       <use xlink:href="#DejaVuSerif-Bold-2e" x="153.369141"/>
       <use xlink:href="#DejaVuSerif-Bold-35" x="188.183594"/>
       <use xlink:href="#DejaVuSerif-Bold-30" x="257.763672"/>
      </g>
     </g>
    </g>
    <g id="ytick_4">
     <g id="line2d_21">
      <path d="M 90.29 244.753636 
L 703.8 244.753636 
" clip-path="url(#pee67affd52)" style="fill: none; stroke-dasharray: 2.96,1.28; stroke-dashoffset: 0; stroke: #b0b0b0; stroke-opacity: 0.7; stroke-width: 0.8"/>
     </g>
     <g id="line2d_22">
      <g>
       <use xlink:href="#m9c3fcbdbfd" x="90.29" y="244.753636" style="stroke: #000000; stroke-width: 0.8"/>
      </g>
     </g>
     <g id="text_12">
      <!-- −0.25 -->
      <g transform="translate(34.188438 250.452464) scale(0.15 -0.15)">
       <use xlink:href="#DejaVuSerif-Bold-2212"/>
       <use xlink:href="#DejaVuSerif-Bold-30" x="83.789062"/>
       <use xlink:href="#DejaVuSerif-Bold-2e" x="153.369141"/>
       <use xlink:href="#DejaVuSerif-Bold-32" x="188.183594"/>
       <use xlink:href="#DejaVuSerif-Bold-35" x="257.763672"/>
      </g>
     </g>
    </g>
    <g id="ytick_5">
     <g id="line2d_23">
      <path d="M 90.29 205.94 
L 703.8 205.94 
" clip-path="url(#pee67affd52)" style="fill: none; stroke-dasharray: 2.96,1.28; stroke-dashoffset: 0; stroke: #b0b0b0; stroke-opacity: 0.7; stroke-width: 0.8"/>
     </g>
     <g id="line2d_24">
      <g>
       <use xlink:href="#m9c3fcbdbfd" x="90.29" y="205.94" style="stroke: #000000; stroke-width: 0.8"/>
      </g>
     </g>
     <g id="text_13">
      <!-- 0.00 -->
      <g transform="translate(46.757969 211.638828) scale(0.15 -0.15)">
       <use xlink:href="#DejaVuSerif-Bold-30"/>
       <use xlink:href="#DejaVuSerif-Bold-2e" x="69.580078"/>
       <use xlink:href="#DejaVuSerif-Bold-30" x="104.394531"/>
       <use xlink:href="#DejaVuSerif-Bold-30" x="173.974609"/>
      </g>
     </g>
    </g>
    <g id="ytick_6">
     <g id="line2d_25">
      <path d="M 90.29 167.126364 
L 703.8 167.126364 
" clip-path="url(#pee67affd52)" style="fill: none; stroke-dasharray: 2.96,1.28; stroke-dashoffset: 0; stroke: #b0b0b0; stroke-opacity: 0.7; stroke-width: 0.8"/>
     </g>
     <g id="line2d_26">
      <g>
       <use xlink:href="#m9c3fcbdbfd" x="90.29" y="167.126364" style="stroke: #000000; stroke-width: 0.8"/>
      </g>
     </g>
     <g id="text_14">
      <!-- 0.25 -->
      <g transform="translate(46.757969 172.825192) scale(0.15 -0.15)">
       <use xlink:href="#DejaVuSerif-Bold-30"/>
       <use xlink:href="#DejaVuSerif-Bold-2e" x="69.580078"/>
       <use xlink:href="#DejaVuSerif-Bold-32" x="104.394531"/>
       <use xlink:href="#DejaVuSerif-Bold-35" x="173.974609"/>
      </g>
     </g>
    </g>
    <g id="ytick_7">
     <g id="line2d_27">
      <path d="M 90.29 128.312727 
L 703.8 128.312727 
" clip-path="url(#pee67affd52)" style="fill: none; stroke-dasharray: 2.96,1.28; stroke-dashoffset: 0; stroke: #b0b0b0; stroke-opacity: 0.7; stroke-width: 0.8"/>
     </g>
     <g id="line2d_28">
      <g>
       <use xlink:href="#m9c3fcbdbfd" x="90.29" y="128.312727" style="stroke: #000000; stroke-width: 0.8"/>
      </g>
     </g>
     <g id="text_15">
      <!-- 0.50 -->
      <g transform="translate(46.757969 134.011555) scale(0.15 -0.15)">
       <use xlink:href="#DejaVuSerif-Bold-30"/>
       <use xlink:href="#DejaVuSerif-Bold-2e" x="69.580078"/>
       <use xlink:href="#DejaVuSerif-Bold-35" x="104.394531"/>
       <use xlink:href="#DejaVuSerif-Bold-30" x="173.974609"/>
      </g>
     </g>
    </g>
    <g id="ytick_8">
     <g id="line2d_29">
      <path d="M 90.29 89.499091 
L 703.8 89.499091 
" clip-path="url(#pee67affd52)" style="fill: none; stroke-dasharray: 2.96,1.28; stroke-dashoffset: 0; stroke: #b0b0b0; stroke-opacity: 0.7; stroke-width: 0.8"/>
     </g>
     <g id="line2d_30">
      <g>
       <use xlink:href="#m9c3fcbdbfd" x="90.29" y="89.499091" style="stroke: #000000; stroke-width: 0.8"/>
      </g>
     </g>
     <g id="text_16">
      <!-- 0.75 -->
      <g transform="translate(46.757969 95.197919) scale(0.15 -0.15)">
       <use xlink:href="#DejaVuSerif-Bold-30"/>
       <use xlink:href="#DejaVuSerif-Bold-2e" x="69.580078"/>
       <use xlink:href="#DejaVuSerif-Bold-37" x="104.394531"/>
       <use xlink:href="#DejaVuSerif-Bold-35" x="173.974609"/>
      </g>
     </g>
    </g>
    <g id="ytick_9">
     <g id="line2d_31">
      <path d="M 90.29 50.685455 
L 703.8 50.685455 
" clip-path="url(#pee67affd52)" style="fill: none; stroke-dasharray: 2.96,1.28; stroke-dashoffset: 0; stroke: #b0b0b0; stroke-opacity: 0.7; stroke-width: 0.8"/>
     </g>
     <g id="line2d_32">
      <g>
       <use xlink:href="#m9c3fcbdbfd" x="90.29" y="50.685455" style="stroke: #000000; stroke-width: 0.8"/>
      </g>
     </g>
     <g id="text_17">
      <!-- 1.00 -->
      <g transform="translate(46.757969 56.384283) scale(0.15 -0.15)">
       <use xlink:href="#DejaVuSerif-Bold-31"/>
       <use xlink:href="#DejaVuSerif-Bold-2e" x="69.580078"/>
       <use xlink:href="#DejaVuSerif-Bold-30" x="104.394531"/>
       <use xlink:href="#DejaVuSerif-Bold-30" x="173.974609"/>
      </g>
     </g>
    </g>
    <g id="text_18">
     <!-- Normalized State / Control -->
     <g transform="translate(27.068906 308.527109) rotate(-90) scale(0.15 -0.15)">
      <defs>
       <path id="DejaVuSerif-4e" d="M 313 0 
L 313 331 
L 941 331 
L 941 4331 
L 313 4331 
L 313 4666 
L 1509 4666 
L 4306 984 
L 4306 4331 
L 3681 4331 
L 3681 4666 
L 5319 4666 
L 5319 4331 
L 4691 4331 
L 4691 -91 
L 4313 -91 
L 1325 3841 
L 1325 331 
L 1953 331 
L 1953 0 
L 313 0 
z
" transform="scale(0.015625)"/>
       <path id="DejaVuSerif-6f" d="M 1925 219 
Q 2388 219 2623 584 
Q 2859 950 2859 1663 
Q 2859 2375 2623 2739 
Q 2388 3103 1925 3103 
Q 1463 3103 1227 2739 
Q 991 2375 991 1663 
Q 991 950 1228 584 
Q 1466 219 1925 219 
z
M 1925 -91 
Q 1200 -91 759 389 
Q 319 869 319 1663 
Q 319 2456 758 2934 
Q 1197 3413 1925 3413 
Q 2653 3413 3092 2934 
Q 3531 2456 3531 1663 
Q 3531 869 3092 389 
Q 2653 -91 1925 -91 
z
" transform="scale(0.015625)"/>
       <path id="DejaVuSerif-72" d="M 3059 3328 
L 3059 2497 
L 2728 2497 
Q 2713 2744 2591 2866 
Q 2469 2988 2234 2988 
Q 1809 2988 1582 2694 
Q 1356 2400 1356 1850 
L 1356 331 
L 2022 331 
L 2022 0 
L 263 0 
L 263 331 
L 781 331 
L 781 2994 
L 231 2994 
L 231 3322 
L 1356 3322 
L 1356 2731 
Q 1525 3078 1790 3245 
Q 2056 3413 2438 3413 
Q 2578 3413 2733 3391 
Q 2888 3369 3059 3328 
z
" transform="scale(0.015625)"/>
       <path id="DejaVuSerif-61" d="M 2547 1044 
L 2547 1747 
L 1806 1747 
Q 1378 1747 1168 1562 
Q 959 1378 959 997 
Q 959 650 1171 447 
Q 1384 244 1747 244 
Q 2106 244 2326 466 
Q 2547 688 2547 1044 
z
M 3122 2075 
L 3122 331 
L 3634 331 
L 3634 0 
L 2547 0 
L 2547 359 
Q 2356 128 2106 18 
Q 1856 -91 1522 -91 
Q 969 -91 644 203 
Q 319 497 319 997 
Q 319 1513 691 1797 
Q 1063 2081 1741 2081 
L 2547 2081 
L 2547 2309 
Q 2547 2688 2317 2895 
Q 2088 3103 1672 3103 
Q 1328 3103 1125 2947 
Q 922 2791 872 2484 
L 575 2484 
L 575 3156 
Q 875 3284 1158 3348 
Q 1441 3413 1709 3413 
Q 2400 3413 2761 3070 
Q 3122 2728 3122 2075 
z
" transform="scale(0.015625)"/>
       <path id="DejaVuSerif-6c" d="M 1313 331 
L 1856 331 
L 1856 0 
L 184 0 
L 184 331 
L 738 331 
L 738 4531 
L 184 4531 
L 184 4863 
L 1313 4863 
L 1313 331 
z
" transform="scale(0.015625)"/>
       <path id="DejaVuSerif-7a" d="M 256 0 
L 256 269 
L 2338 2988 
L 691 2988 
L 691 2413 
L 359 2413 
L 359 3322 
L 3078 3322 
L 3078 3053 
L 997 331 
L 2803 331 
L 2803 934 
L 3138 934 
L 3138 0 
L 256 0 
z
" transform="scale(0.015625)"/>
       <path id="DejaVuSerif-64" d="M 3359 331 
L 3909 331 
L 3909 0 
L 2784 0 
L 2784 519 
Q 2616 206 2355 57 
Q 2094 -91 1709 -91 
Q 1097 -91 708 395 
Q 319 881 319 1663 
Q 319 2444 706 2928 
Q 1094 3413 1709 3413 
Q 2094 3413 2355 3264 
Q 2616 3116 2784 2803 
L 2784 4531 
L 2241 4531 
L 2241 4863 
L 3359 4863 
L 3359 331 
z
M 2784 1497 
L 2784 1825 
Q 2784 2422 2554 2737 
Q 2325 3053 1888 3053 
Q 1444 3053 1217 2703 
Q 991 2353 991 1663 
Q 991 975 1217 622 
Q 1444 269 1888 269 
Q 2325 269 2554 583 
Q 2784 897 2784 1497 
z
" transform="scale(0.015625)"/>
       <path id="DejaVuSerif-20" transform="scale(0.015625)"/>
       <path id="DejaVuSerif-53" d="M 594 225 
L 594 1288 
L 953 1284 
Q 969 753 1261 498 
Q 1553 244 2150 244 
Q 2706 244 2998 464 
Q 3291 684 3291 1106 
Q 3291 1444 3114 1625 
Q 2938 1806 2369 1978 
L 1753 2163 
Q 1084 2366 811 2669 
Q 538 2972 538 3500 
Q 538 4094 959 4422 
Q 1381 4750 2144 4750 
Q 2469 4750 2856 4679 
Q 3244 4609 3681 4475 
L 3681 3481 
L 3328 3481 
Q 3275 3975 2998 4195 
Q 2722 4416 2156 4416 
Q 1663 4416 1405 4214 
Q 1147 4013 1147 3628 
Q 1147 3294 1340 3103 
Q 1534 2913 2163 2725 
L 2741 2553 
Q 3375 2363 3645 2067 
Q 3916 1772 3916 1275 
Q 3916 597 3481 253 
Q 3047 -91 2188 -91 
Q 1803 -91 1404 -12 
Q 1006 66 594 225 
z
" transform="scale(0.015625)"/>
       <path id="DejaVuSerif-74" d="M 691 2988 
L 184 2988 
L 184 3322 
L 691 3322 
L 691 4353 
L 1269 4353 
L 1269 3322 
L 2350 3322 
L 2350 2988 
L 1269 2988 
L 1269 878 
Q 1269 456 1350 337 
Q 1431 219 1650 219 
Q 1875 219 1978 351 
Q 2081 484 2088 781 
L 2522 781 
Q 2497 328 2275 118 
Q 2053 -91 1600 -91 
Q 1103 -91 897 129 
Q 691 350 691 878 
L 691 2988 
z
" transform="scale(0.015625)"/>
       <path id="DejaVuSerif-2f" d="M 1656 4666 
L 2156 4666 
L 500 -594 
L 0 -594 
L 1656 4666 
z
" transform="scale(0.015625)"/>
       <path id="DejaVuSerif-43" d="M 4513 1234 
Q 4306 581 3820 245 
Q 3334 -91 2591 -91 
Q 2134 -91 1743 65 
Q 1353 222 1050 525 
Q 700 875 529 1320 
Q 359 1766 359 2328 
Q 359 3416 987 4083 
Q 1616 4750 2644 4750 
Q 3025 4750 3456 4650 
Q 3888 4550 4384 4347 
L 4384 3272 
L 4031 3272 
Q 3916 3859 3567 4137 
Q 3219 4416 2591 4416 
Q 1844 4416 1459 3886 
Q 1075 3356 1075 2328 
Q 1075 1303 1459 773 
Q 1844 244 2591 244 
Q 3113 244 3450 492 
Q 3788 741 3938 1234 
L 4513 1234 
z
" transform="scale(0.015625)"/>
       <path id="DejaVuSerif-6e" d="M 263 0 
L 263 331 
L 781 331 
L 781 2988 
L 231 2988 
L 231 3322 
L 1356 3322 
L 1356 2731 
Q 1516 3069 1770 3241 
Q 2025 3413 2363 3413 
Q 2913 3413 3172 3097 
Q 3431 2781 3431 2113 
L 3431 331 
L 3944 331 
L 3944 0 
L 2356 0 
L 2356 331 
L 2853 331 
L 2853 1931 
Q 2853 2541 2703 2767 
Q 2553 2994 2175 2994 
Q 1775 2994 1565 2701 
Q 1356 2409 1356 1850 
L 1356 331 
L 1856 331 
L 1856 0 
L 263 0 
z
" transform="scale(0.015625)"/>
      </defs>
      <use xlink:href="#DejaVuSerif-4e"/>
      <use xlink:href="#DejaVuSerif-6f" x="87.5"/>
      <use xlink:href="#DejaVuSerif-72" x="147.705078"/>
      <use xlink:href="#DejaVuSerif-6d" x="195.507812"/>
      <use xlink:href="#DejaVuSerif-61" x="290.332031"/>
      <use xlink:href="#DejaVuSerif-6c" x="349.951172"/>
      <use xlink:href="#DejaVuSerif-69" x="381.933594"/>
      <use xlink:href="#DejaVuSerif-7a" x="413.916016"/>
      <use xlink:href="#DejaVuSerif-65" x="466.601562"/>
      <use xlink:href="#DejaVuSerif-64" x="525.78125"/>
      <use xlink:href="#DejaVuSerif-20" x="589.794922"/>
      <use xlink:href="#DejaVuSerif-53" x="621.582031"/>
      <use xlink:href="#DejaVuSerif-74" x="690.087891"/>
      <use xlink:href="#DejaVuSerif-61" x="730.273438"/>
      <use xlink:href="#DejaVuSerif-74" x="789.892578"/>
      <use xlink:href="#DejaVuSerif-65" x="830.078125"/>
      <use xlink:href="#DejaVuSerif-20" x="889.257812"/>
      <use xlink:href="#DejaVuSerif-2f" x="921.044922"/>
      <use xlink:href="#DejaVuSerif-20" x="954.736328"/>
      <use xlink:href="#DejaVuSerif-43" x="986.523438"/>
      <use xlink:href="#DejaVuSerif-6f" x="1063.037109"/>
      <use xlink:href="#DejaVuSerif-6e" x="1123.242188"/>
      <use xlink:href="#DejaVuSerif-74" x="1187.646484"/>
      <use xlink:href="#DejaVuSerif-72" x="1227.832031"/>
      <use xlink:href="#DejaVuSerif-6f" x="1275.634766"/>
      <use xlink:href="#DejaVuSerif-6c" x="1335.839844"/>
     </g>
    </g>
   </g>
   <g id="line2d_33">
    <path d="M 118.176818 50.685455 
L 136.76803 112.787266 
L 155.359242 164.021265 
L 173.950455 187.076568 
L 192.541667 197.451454 
L 211.132879 202.120153 
L 229.724091 204.221069 
L 248.315303 205.166481 
L 266.906515 205.591916 
L 285.497727 205.783362 
L 304.088939 205.869513 
L 322.680152 205.908281 
L 341.271364 205.925726 
L 359.862576 205.933577 
L 378.453788 205.93711 
L 397.045 205.938699 
L 415.636212 205.939415 
L 434.227424 205.939737 
L 452.818636 205.939881 
L 471.409848 205.939947 
L 490.001061 205.939976 
L 508.592273 205.939989 
L 527.183485 205.939995 
L 545.774697 205.939998 
L 564.365909 205.939999 
L 582.957121 205.94 
L 601.548333 205.94 
L 620.139545 205.94 
L 638.730758 205.94 
L 657.32197 205.94 
L 675.913182 205.94 
" clip-path="url(#pee67affd52)" style="fill: none; stroke-dasharray: 9.6,2.4,1.5,2.4; stroke-dashoffset: 0; stroke: #1f77b4; stroke-width: 1.5"/>
    <defs>
     <path id="m18d61ffb72" d="M 0 3 
C 0.795609 3 1.55874 2.683901 2.12132 2.12132 
C 2.683901 1.55874 3 0.795609 3 0 
C 3 -0.795609 2.683901 -1.55874 2.12132 -2.12132 
C 1.55874 -2.683901 0.795609 -3 0 -3 
C -0.795609 -3 -1.55874 -2.683901 -2.12132 -2.12132 
C -2.683901 -1.55874 -3 -0.795609 -3 0 
C -3 0.795609 -2.683901 1.55874 -2.12132 2.12132 
C -1.55874 2.683901 -0.795609 3 0 3 
z
" style="stroke: #1f77b4"/>
    </defs>
    <g clip-path="url(#pee67affd52)">
     <use xlink:href="#m18d61ffb72" x="118.176818" y="50.685455" style="fill: #1f77b4; stroke: #1f77b4"/>
     <use xlink:href="#m18d61ffb72" x="136.76803" y="112.787266" style="fill: #1f77b4; stroke: #1f77b4"/>
     <use xlink:href="#m18d61ffb72" x="155.359242" y="164.021265" style="fill: #1f77b4; stroke: #1f77b4"/>
     <use xlink:href="#m18d61ffb72" x="173.950455" y="187.076568" style="fill: #1f77b4; stroke: #1f77b4"/>
     <use xlink:href="#m18d61ffb72" x="192.541667" y="197.451454" style="fill: #1f77b4; stroke: #1f77b4"/>
     <use xlink:href="#m18d61ffb72" x="211.132879" y="202.120153" style="fill: #1f77b4; stroke: #1f77b4"/>
     <use xlink:href="#m18d61ffb72" x="229.724091" y="204.221069" style="fill: #1f77b4; stroke: #1f77b4"/>
     <use xlink:href="#m18d61ffb72" x="248.315303" y="205.166481" style="fill: #1f77b4; stroke: #1f77b4"/>
     <use xlink:href="#m18d61ffb72" x="266.906515" y="205.591916" style="fill: #1f77b4; stroke: #1f77b4"/>
     <use xlink:href="#m18d61ffb72" x="285.497727" y="205.783362" style="fill: #1f77b4; stroke: #1f77b4"/>
     <use xlink:href="#m18d61ffb72" x="304.088939" y="205.869513" style="fill: #1f77b4; stroke: #1f77b4"/>
     <use xlink:href="#m18d61ffb72" x="322.680152" y="205.908281" style="fill: #1f77b4; stroke: #1f77b4"/>
     <use xlink:href="#m18d61ffb72" x="341.271364" y="205.925726" style="fill: #1f77b4; stroke: #1f77b4"/>
     <use xlink:href="#m18d61ffb72" x="359.862576" y="205.933577" style="fill: #1f77b4; stroke: #1f77b4"/>
     <use xlink:href="#m18d61ffb72" x="378.453788" y="205.93711" style="fill: #1f77b4; stroke: #1f77b4"/>
     <use xlink:href="#m18d61ffb72" x="397.045" y="205.938699" style="fill: #1f77b4; stroke: #1f77b4"/>
     <use xlink:href="#m18d61ffb72" x="415.636212" y="205.939415" style="fill: #1f77b4; stroke: #1f77b4"/>
     <use xlink:href="#m18d61ffb72" x="434.227424" y="205.939737" style="fill: #1f77b4; stroke: #1f77b4"/>
     <use xlink:href="#m18d61ffb72" x="452.818636" y="205.939881" style="fill: #1f77b4; stroke: #1f77b4"/>
     <use xlink:href="#m18d61ffb72" x="471.409848" y="205.939947" style="fill: #1f77b4; stroke: #1f77b4"/>
     <use xlink:href="#m18d61ffb72" x="490.001061" y="205.939976" style="fill: #1f77b4; stroke: #1f77b4"/>
     <use xlink:href="#m18d61ffb72" x="508.592273" y="205.939989" style="fill: #1f77b4; stroke: #1f77b4"/>
     <use xlink:href="#m18d61ffb72" x="527.183485" y="205.939995" style="fill: #1f77b4; stroke: #1f77b4"/>
     <use xlink:href="#m18d61ffb72" x="545.774697" y="205.939998" style="fill: #1f77b4; stroke: #1f77b4"/>
     <use xlink:href="#m18d61ffb72" x="564.365909" y="205.939999" style="fill: #1f77b4; stroke: #1f77b4"/>
     <use xlink:href="#m18d61ffb72" x="582.957121" y="205.94" style="fill: #1f77b4; stroke: #1f77b4"/>
     <use xlink:href="#m18d61ffb72" x="601.548333" y="205.94" style="fill: #1f77b4; stroke: #1f77b4"/>
     <use xlink:href="#m18d61ffb72" x="620.139545" y="205.94" style="fill: #1f77b4; stroke: #1f77b4"/>
     <use xlink:href="#m18d61ffb72" x="638.730758" y="205.94" style="fill: #1f77b4; stroke: #1f77b4"/>
     <use xlink:href="#m18d61ffb72" x="657.32197" y="205.94" style="fill: #1f77b4; stroke: #1f77b4"/>
     <use xlink:href="#m18d61ffb72" x="675.913182" y="205.94" style="fill: #1f77b4; stroke: #1f77b4"/>
    </g>
   </g>
   <g id="line2d_34">
    <path d="M 118.176818 361.194545 
L 118.176818 322.380902 
L 136.76803 322.380902 
L 136.76803 258.338413 
L 155.359242 258.338413 
L 155.359242 229.519285 
L 173.950455 229.519285 
L 173.950455 216.55068 
L 192.541667 216.55068 
L 192.541667 210.714807 
L 211.132879 210.714807 
L 211.132879 208.088664 
L 229.724091 208.088664 
L 229.724091 206.906899 
L 248.315303 206.906899 
L 248.315303 206.375104 
L 266.906515 206.375104 
L 266.906515 206.135797 
L 285.497727 206.135797 
L 285.497727 206.028109 
L 304.088939 206.028109 
L 304.088939 205.979649 
L 322.680152 205.979649 
L 322.680152 205.957842 
L 341.271364 205.957842 
L 341.271364 205.948029 
L 359.862576 205.948029 
L 359.862576 205.943613 
L 378.453788 205.943613 
L 378.453788 205.941626 
L 397.045 205.941626 
L 397.045 205.940732 
L 415.636212 205.940732 
L 415.636212 205.940329 
L 434.227424 205.940329 
L 434.227424 205.940148 
L 452.818636 205.940148 
L 452.818636 205.940067 
L 471.409848 205.940067 
L 471.409848 205.94003 
L 490.001061 205.94003 
L 490.001061 205.940014 
L 508.592273 205.940014 
L 508.592273 205.940006 
L 527.183485 205.940006 
L 527.183485 205.940003 
L 545.774697 205.940003 
L 545.774697 205.940001 
L 564.365909 205.940001 
L 564.365909 205.940001 
L 582.957121 205.940001 
L 582.957121 205.94 
L 601.548333 205.94 
L 601.548333 205.94 
L 620.139545 205.94 
L 620.139545 205.94 
L 638.730758 205.94 
L 638.730758 205.94 
L 657.32197 205.94 
" clip-path="url(#pee67affd52)" style="fill: none; stroke-dasharray: 5.55,2.4; stroke-dashoffset: 0; stroke: #ff7f0e; stroke-width: 1.5"/>
    <defs>
     <path id="mfe54686108" d="M 0 3 
C 0.795609 3 1.55874 2.683901 2.12132 2.12132 
C 2.683901 1.55874 3 0.795609 3 0 
C 3 -0.795609 2.683901 -1.55874 2.12132 -2.12132 
C 1.55874 -2.683901 0.795609 -3 0 -3 
C -0.795609 -3 -1.55874 -2.683901 -2.12132 -2.12132 
C -2.683901 -1.55874 -3 -0.795609 -3 0 
C -3 0.795609 -2.683901 1.55874 -2.12132 2.12132 
C -1.55874 2.683901 -0.795609 3 0 3 
z
" style="stroke: #ff7f0e"/>
    </defs>
    <g clip-path="url(#pee67affd52)">
     <use xlink:href="#mfe54686108" x="118.176818" y="361.194545" style="fill: #ff7f0e; stroke: #ff7f0e"/>
     <use xlink:href="#mfe54686108" x="136.76803" y="322.380902" style="fill: #ff7f0e; stroke: #ff7f0e"/>
     <use xlink:href="#mfe54686108" x="155.359242" y="258.338413" style="fill: #ff7f0e; stroke: #ff7f0e"/>
     <use xlink:href="#mfe54686108" x="173.950455" y="229.519285" style="fill: #ff7f0e; stroke: #ff7f0e"/>
     <use xlink:href="#mfe54686108" x="192.541667" y="216.55068" style="fill: #ff7f0e; stroke: #ff7f0e"/>
     <use xlink:href="#mfe54686108" x="211.132879" y="210.714807" style="fill: #ff7f0e; stroke: #ff7f0e"/>
     <use xlink:href="#mfe54686108" x="229.724091" y="208.088664" style="fill: #ff7f0e; stroke: #ff7f0e"/>
     <use xlink:href="#mfe54686108" x="248.315303" y="206.906899" style="fill: #ff7f0e; stroke: #ff7f0e"/>
     <use xlink:href="#mfe54686108" x="266.906515" y="206.375104" style="fill: #ff7f0e; stroke: #ff7f0e"/>
     <use xlink:href="#mfe54686108" x="285.497727" y="206.135797" style="fill: #ff7f0e; stroke: #ff7f0e"/>
     <use xlink:href="#mfe54686108" x="304.088939" y="206.028109" style="fill: #ff7f0e; stroke: #ff7f0e"/>
     <use xlink:href="#mfe54686108" x="322.680152" y="205.979649" style="fill: #ff7f0e; stroke: #ff7f0e"/>
     <use xlink:href="#mfe54686108" x="341.271364" y="205.957842" style="fill: #ff7f0e; stroke: #ff7f0e"/>
     <use xlink:href="#mfe54686108" x="359.862576" y="205.948029" style="fill: #ff7f0e; stroke: #ff7f0e"/>
     <use xlink:href="#mfe54686108" x="378.453788" y="205.943613" style="fill: #ff7f0e; stroke: #ff7f0e"/>
     <use xlink:href="#mfe54686108" x="397.045" y="205.941626" style="fill: #ff7f0e; stroke: #ff7f0e"/>
     <use xlink:href="#mfe54686108" x="415.636212" y="205.940732" style="fill: #ff7f0e; stroke: #ff7f0e"/>
     <use xlink:href="#mfe54686108" x="434.227424" y="205.940329" style="fill: #ff7f0e; stroke: #ff7f0e"/>
     <use xlink:href="#mfe54686108" x="452.818636" y="205.940148" style="fill: #ff7f0e; stroke: #ff7f0e"/>
     <use xlink:href="#mfe54686108" x="471.409848" y="205.940067" style="fill: #ff7f0e; stroke: #ff7f0e"/>
     <use xlink:href="#mfe54686108" x="490.001061" y="205.94003" style="fill: #ff7f0e; stroke: #ff7f0e"/>
     <use xlink:href="#mfe54686108" x="508.592273" y="205.940014" style="fill: #ff7f0e; stroke: #ff7f0e"/>
     <use xlink:href="#mfe54686108" x="527.183485" y="205.940006" style="fill: #ff7f0e; stroke: #ff7f0e"/>
     <use xlink:href="#mfe54686108" x="545.774697" y="205.940003" style="fill: #ff7f0e; stroke: #ff7f0e"/>
     <use xlink:href="#mfe54686108" x="564.365909" y="205.940001" style="fill: #ff7f0e; stroke: #ff7f0e"/>
     <use xlink:href="#mfe54686108" x="582.957121" y="205.940001" style="fill: #ff7f0e; stroke: #ff7f0e"/>
     <use xlink:href="#mfe54686108" x="601.548333" y="205.94" style="fill: #ff7f0e; stroke: #ff7f0e"/>
     <use xlink:href="#mfe54686108" x="620.139545" y="205.94" style="fill: #ff7f0e; stroke: #ff7f0e"/>
     <use xlink:href="#mfe54686108" x="638.730758" y="205.94" style="fill: #ff7f0e; stroke: #ff7f0e"/>
     <use xlink:href="#mfe54686108" x="657.32197" y="205.94" style="fill: #ff7f0e; stroke: #ff7f0e"/>
    </g>
   </g>
   <g id="line2d_35">
    <path d="M 118.176818 50.685455 
L 136.76803 112.787263 
L 155.359242 187.309444 
L 173.950455 276.729496 
L 192.541667 198.003826 
L 211.132879 199.052227 
L 229.724091 290.827338 
L 248.315303 237.200955 
L 266.906515 150.593333 
L 285.497727 153.696855 
L 304.088939 236.400954 
L 322.680152 205.3509 
L 341.271364 112.373391 
L 359.862576 186.025627 
L 378.453788 275.189022 
L 397.045 196.179084 
L 415.636212 191.307572 
L 434.227424 281.533672 
L 452.818636 251.15133 
L 471.409848 167.327883 
L 490.001061 168.897493 
L 508.592273 254.64172 
L 527.183485 226.194132 
L 545.774697 137.385216 
L 564.365909 160.987489 
L 582.957121 245.149715 
L 601.548333 215.934093 
L 620.139545 125.073204 
L 638.730758 185.946874 
L 657.32197 275.094644 
L 675.913182 196.065901 
" clip-path="url(#pee67affd52)" style="fill: none; stroke-dasharray: 9.6,2.4,1.5,2.4; stroke-dashoffset: 0; stroke: #2ca02c; stroke-width: 1.5"/>
    <defs>
     <path id="mba638f95b6" d="M 0 3 
C 0.795609 3 1.55874 2.683901 2.12132 2.12132 
C 2.683901 1.55874 3 0.795609 3 0 
C 3 -0.795609 2.683901 -1.55874 2.12132 -2.12132 
C 1.55874 -2.683901 0.795609 -3 0 -3 
C -0.795609 -3 -1.55874 -2.683901 -2.12132 -2.12132 
C -2.683901 -1.55874 -3 -0.795609 -3 0 
C -3 0.795609 -2.683901 1.55874 -2.12132 2.12132 
C -1.55874 2.683901 -0.795609 3 0 3 
z
" style="stroke: #2ca02c"/>
    </defs>
    <g clip-path="url(#pee67affd52)">
     <use xlink:href="#mba638f95b6" x="118.176818" y="50.685455" style="fill: #2ca02c; stroke: #2ca02c"/>
     <use xlink:href="#mba638f95b6" x="136.76803" y="112.787263" style="fill: #2ca02c; stroke: #2ca02c"/>
     <use xlink:href="#mba638f95b6" x="155.359242" y="187.309444" style="fill: #2ca02c; stroke: #2ca02c"/>
     <use xlink:href="#mba638f95b6" x="173.950455" y="276.729496" style="fill: #2ca02c; stroke: #2ca02c"/>
     <use xlink:href="#mba638f95b6" x="192.541667" y="198.003826" style="fill: #2ca02c; stroke: #2ca02c"/>
     <use xlink:href="#mba638f95b6" x="211.132879" y="199.052227" style="fill: #2ca02c; stroke: #2ca02c"/>
     <use xlink:href="#mba638f95b6" x="229.724091" y="290.827338" style="fill: #2ca02c; stroke: #2ca02c"/>
     <use xlink:href="#mba638f95b6" x="248.315303" y="237.200955" style="fill: #2ca02c; stroke: #2ca02c"/>
     <use xlink:href="#mba638f95b6" x="266.906515" y="150.593333" style="fill: #2ca02c; stroke: #2ca02c"/>
     <use xlink:href="#mba638f95b6" x="285.497727" y="153.696855" style="fill: #2ca02c; stroke: #2ca02c"/>
     <use xlink:href="#mba638f95b6" x="304.088939" y="236.400954" style="fill: #2ca02c; stroke: #2ca02c"/>
     <use xlink:href="#mba638f95b6" x="322.680152" y="205.3509" style="fill: #2ca02c; stroke: #2ca02c"/>
     <use xlink:href="#mba638f95b6" x="341.271364" y="112.373391" style="fill: #2ca02c; stroke: #2ca02c"/>
     <use xlink:href="#mba638f95b6" x="359.862576" y="186.025627" style="fill: #2ca02c; stroke: #2ca02c"/>
     <use xlink:href="#mba638f95b6" x="378.453788" y="275.189022" style="fill: #2ca02c; stroke: #2ca02c"/>
     <use xlink:href="#mba638f95b6" x="397.045" y="196.179084" style="fill: #2ca02c; stroke: #2ca02c"/>
     <use xlink:href="#mba638f95b6" x="415.636212" y="191.307572" style="fill: #2ca02c; stroke: #2ca02c"/>
     <use xlink:href="#mba638f95b6" x="434.227424" y="281.533672" style="fill: #2ca02c; stroke: #2ca02c"/>
     <use xlink:href="#mba638f95b6" x="452.818636" y="251.15133" style="fill: #2ca02c; stroke: #2ca02c"/>
     <use xlink:href="#mba638f95b6" x="471.409848" y="167.327883" style="fill: #2ca02c; stroke: #2ca02c"/>
     <use xlink:href="#mba638f95b6" x="490.001061" y="168.897493" style="fill: #2ca02c; stroke: #2ca02c"/>
     <use xlink:href="#mba638f95b6" x="508.592273" y="254.64172" style="fill: #2ca02c; stroke: #2ca02c"/>
     <use xlink:href="#mba638f95b6" x="527.183485" y="226.194132" style="fill: #2ca02c; stroke: #2ca02c"/>
     <use xlink:href="#mba638f95b6" x="545.774697" y="137.385216" style="fill: #2ca02c; stroke: #2ca02c"/>
     <use xlink:href="#mba638f95b6" x="564.365909" y="160.987489" style="fill: #2ca02c; stroke: #2ca02c"/>
     <use xlink:href="#mba638f95b6" x="582.957121" y="245.149715" style="fill: #2ca02c; stroke: #2ca02c"/>
     <use xlink:href="#mba638f95b6" x="601.548333" y="215.934093" style="fill: #2ca02c; stroke: #2ca02c"/>
     <use xlink:href="#mba638f95b6" x="620.139545" y="125.073204" style="fill: #2ca02c; stroke: #2ca02c"/>
     <use xlink:href="#mba638f95b6" x="638.730758" y="185.946874" style="fill: #2ca02c; stroke: #2ca02c"/>
     <use xlink:href="#mba638f95b6" x="657.32197" y="275.094644" style="fill: #2ca02c; stroke: #2ca02c"/>
     <use xlink:href="#mba638f95b6" x="675.913182" y="196.065901" style="fill: #2ca02c; stroke: #2ca02c"/>
    </g>
   </g>
   <g id="line2d_36">
    <path d="M 118.176818 361.194531 
L 118.176818 361.194545 
L 136.76803 361.194545 
L 136.76803 361.183604 
L 155.359242 361.183604 
L 155.359242 51.134054 
L 173.950455 51.134054 
L 173.950455 210.332726 
L 192.541667 210.332726 
L 192.541667 361.194442 
L 211.132879 361.194442 
L 211.132879 88.266917 
L 229.724091 88.266917 
L 229.724091 51.173645 
L 248.315303 51.173645 
L 248.315303 229.561426 
L 266.906515 229.561426 
L 266.906515 361.194545 
L 285.497727 361.194545 
L 285.497727 144.03626 
L 304.088939 144.03626 
L 304.088939 51.173853 
L 322.680152 51.173853 
L 322.680152 359.882595 
L 341.271364 359.882595 
L 341.271364 361.183781 
L 359.862576 361.183781 
L 359.862576 51.173764 
L 378.453788 51.173764 
L 378.453788 201.074452 
L 397.045 201.074452 
L 397.045 361.194309 
L 415.636212 361.194309 
L 415.636212 130.104873 
L 434.227424 130.104873 
L 434.227424 51.163814 
L 452.818636 51.163814 
L 452.818636 221.426721 
L 471.409848 221.426721 
L 471.409848 361.194545 
L 490.001061 361.194545 
L 490.001061 142.293448 
L 508.592273 142.293448 
L 508.592273 51.173764 
L 527.183485 51.173764 
L 527.183485 268.128716 
L 545.774697 268.128716 
L 545.774697 361.194545 
L 564.365909 361.194545 
L 564.365909 144.177392 
L 582.957121 144.177392 
L 582.957121 51.173823 
L 601.548333 51.173823 
L 601.548333 334.351714 
L 620.139545 334.351714 
L 620.139545 361.183989 
L 638.730758 361.183989 
L 638.730758 51.173882 
L 657.32197 51.173882 
" clip-path="url(#pee67affd52)" style="fill: none; stroke-dasharray: 5.55,2.4; stroke-dashoffset: 0; stroke: #d62728; stroke-width: 1.5"/>
    <defs>
     <path id="m1c42961443" d="M 0 3 
C 0.795609 3 1.55874 2.683901 2.12132 2.12132 
C 2.683901 1.55874 3 0.795609 3 0 
C 3 -0.795609 2.683901 -1.55874 2.12132 -2.12132 
C 1.55874 -2.683901 0.795609 -3 0 -3 
C -0.795609 -3 -1.55874 -2.683901 -2.12132 -2.12132 
C -2.683901 -1.55874 -3 -0.795609 -3 0 
C -3 0.795609 -2.683901 1.55874 -2.12132 2.12132 
C -1.55874 2.683901 -0.795609 3 0 3 
z
" style="stroke: #d62728"/>
    </defs>
    <g clip-path="url(#pee67affd52)">
     <use xlink:href="#m1c42961443" x="118.176818" y="361.194531" style="fill: #d62728; stroke: #d62728"/>
     <use xlink:href="#m1c42961443" x="136.76803" y="361.194545" style="fill: #d62728; stroke: #d62728"/>
     <use xlink:href="#m1c42961443" x="155.359242" y="361.183604" style="fill: #d62728; stroke: #d62728"/>
     <use xlink:href="#m1c42961443" x="173.950455" y="51.134054" style="fill: #d62728; stroke: #d62728"/>
     <use xlink:href="#m1c42961443" x="192.541667" y="210.332726" style="fill: #d62728; stroke: #d62728"/>
     <use xlink:href="#m1c42961443" x="211.132879" y="361.194442" style="fill: #d62728; stroke: #d62728"/>
     <use xlink:href="#m1c42961443" x="229.724091" y="88.266917" style="fill: #d62728; stroke: #d62728"/>
     <use xlink:href="#m1c42961443" x="248.315303" y="51.173645" style="fill: #d62728; stroke: #d62728"/>
     <use xlink:href="#m1c42961443" x="266.906515" y="229.561426" style="fill: #d62728; stroke: #d62728"/>
     <use xlink:href="#m1c42961443" x="285.497727" y="361.194545" style="fill: #d62728; stroke: #d62728"/>
     <use xlink:href="#m1c42961443" x="304.088939" y="144.03626" style="fill: #d62728; stroke: #d62728"/>
     <use xlink:href="#m1c42961443" x="322.680152" y="51.173853" style="fill: #d62728; stroke: #d62728"/>
     <use xlink:href="#m1c42961443" x="341.271364" y="359.882595" style="fill: #d62728; stroke: #d62728"/>
     <use xlink:href="#m1c42961443" x="359.862576" y="361.183781" style="fill: #d62728; stroke: #d62728"/>
     <use xlink:href="#m1c42961443" x="378.453788" y="51.173764" style="fill: #d62728; stroke: #d62728"/>
     <use xlink:href="#m1c42961443" x="397.045" y="201.074452" style="fill: #d62728; stroke: #d62728"/>
     <use xlink:href="#m1c42961443" x="415.636212" y="361.194309" style="fill: #d62728; stroke: #d62728"/>
     <use xlink:href="#m1c42961443" x="434.227424" y="130.104873" style="fill: #d62728; stroke: #d62728"/>
     <use xlink:href="#m1c42961443" x="452.818636" y="51.163814" style="fill: #d62728; stroke: #d62728"/>
     <use xlink:href="#m1c42961443" x="471.409848" y="221.426721" style="fill: #d62728; stroke: #d62728"/>
     <use xlink:href="#m1c42961443" x="490.001061" y="361.194545" style="fill: #d62728; stroke: #d62728"/>
     <use xlink:href="#m1c42961443" x="508.592273" y="142.293448" style="fill: #d62728; stroke: #d62728"/>
     <use xlink:href="#m1c42961443" x="527.183485" y="51.173764" style="fill: #d62728; stroke: #d62728"/>
     <use xlink:href="#m1c42961443" x="545.774697" y="268.128716" style="fill: #d62728; stroke: #d62728"/>
     <use xlink:href="#m1c42961443" x="564.365909" y="361.194545" style="fill: #d62728; stroke: #d62728"/>
     <use xlink:href="#m1c42961443" x="582.957121" y="144.177392" style="fill: #d62728; stroke: #d62728"/>
     <use xlink:href="#m1c42961443" x="601.548333" y="51.173823" style="fill: #d62728; stroke: #d62728"/>
     <use xlink:href="#m1c42961443" x="620.139545" y="334.351714" style="fill: #d62728; stroke: #d62728"/>
     <use xlink:href="#m1c42961443" x="638.730758" y="361.183989" style="fill: #d62728; stroke: #d62728"/>
     <use xlink:href="#m1c42961443" x="657.32197" y="51.173882" style="fill: #d62728; stroke: #d62728"/>
    </g>
   </g>
   <g id="patch_3">
    <path d="M 90.29 376.72 
L 90.29 35.16 
" style="fill: none; stroke: #000000; stroke-width: 0.8; stroke-linejoin: miter; stroke-linecap: square"/>
   </g>
   <g id="patch_4">
    <path d="M 703.8 376.72 
L 703.8 35.16 
" style="fill: none; stroke: #000000; stroke-width: 0.8; stroke-linejoin: miter; stroke-linecap: square"/>
   </g>
   <g id="patch_5">
    <path d="M 90.29 376.72 
L 703.8 376.72 
" style="fill: none; stroke: #000000; stroke-width: 0.8; stroke-linejoin: miter; stroke-linecap: square"/>
   </g>
   <g id="patch_6">
    <path d="M 90.29 35.16 
L 703.8 35.16 
" style="fill: none; stroke: #000000; stroke-width: 0.8; stroke-linejoin: miter; stroke-linecap: square"/>
   </g>
   <g id="text_19">
    <!-- Normalized States and Control Policy Over Time -->
    <g transform="translate(175.017813 29.16) scale(0.18 -0.18)">
     <defs>
      <path id="DejaVuSerif-73" d="M 359 184 
L 359 959 
L 691 959 
Q 703 588 923 403 
Q 1144 219 1575 219 
Q 1963 219 2166 364 
Q 2369 509 2369 788 
Q 2369 1006 2220 1140 
Q 2072 1275 1594 1428 
L 1178 1569 
Q 750 1706 558 1912 
Q 366 2119 366 2438 
Q 366 2894 700 3153 
Q 1034 3413 1625 3413 
Q 1888 3413 2178 3344 
Q 2469 3275 2778 3144 
L 2778 2419 
L 2447 2419 
Q 2434 2741 2221 2922 
Q 2009 3103 1644 3103 
Q 1281 3103 1095 2975 
Q 909 2847 909 2591 
Q 909 2381 1050 2254 
Q 1191 2128 1613 1997 
L 2069 1856 
Q 2541 1709 2748 1489 
Q 2956 1269 2956 922 
Q 2956 450 2595 179 
Q 2234 -91 1600 -91 
Q 1278 -91 972 -22 
Q 666 47 359 184 
z
" transform="scale(0.015625)"/>
      <path id="DejaVuSerif-50" d="M 1581 2375 
L 2406 2375 
Q 2872 2375 3115 2626 
Q 3359 2878 3359 3353 
Q 3359 3831 3115 4081 
Q 2872 4331 2406 4331 
L 1581 4331 
L 1581 2375 
z
M 353 0 
L 353 331 
L 947 331 
L 947 4331 
L 353 4331 
L 353 4666 
L 2559 4666 
Q 3259 4666 3668 4311 
Q 4078 3956 4078 3353 
Q 4078 2753 3668 2397 
Q 3259 2041 2559 2041 
L 1581 2041 
L 1581 331 
L 2303 331 
L 2303 0 
L 353 0 
z
" transform="scale(0.015625)"/>
      <path id="DejaVuSerif-63" d="M 3291 997 
Q 3169 466 2822 187 
Q 2475 -91 1925 -91 
Q 1200 -91 759 389 
Q 319 869 319 1663 
Q 319 2459 759 2936 
Q 1200 3413 1925 3413 
Q 2241 3413 2553 3339 
Q 2866 3266 3181 3116 
L 3181 2266 
L 2847 2266 
Q 2781 2703 2561 2903 
Q 2341 3103 1931 3103 
Q 1466 3103 1228 2742 
Q 991 2381 991 1663 
Q 991 944 1227 581 
Q 1463 219 1931 219 
Q 2303 219 2525 412 
Q 2747 606 2828 997 
L 3291 997 
z
" transform="scale(0.015625)"/>
      <path id="DejaVuSerif-79" d="M 1381 -609 
L 1600 -56 
L 359 2988 
L -19 2988 
L -19 3322 
L 1509 3322 
L 1509 2988 
L 978 2988 
L 1913 703 
L 2847 2988 
L 2350 2988 
L 2350 3322 
L 3597 3322 
L 3597 2988 
L 3225 2988 
L 1703 -750 
Q 1547 -1138 1356 -1280 
Q 1166 -1422 819 -1422 
Q 672 -1422 517 -1397 
Q 363 -1372 206 -1325 
L 206 -691 
L 500 -691 
Q 519 -903 608 -995 
Q 697 -1088 884 -1088 
Q 1056 -1088 1161 -992 
Q 1266 -897 1381 -609 
z
" transform="scale(0.015625)"/>
      <path id="DejaVuSerif-4f" d="M 2625 244 
Q 3391 244 3781 770 
Q 4172 1297 4172 2328 
Q 4172 3363 3781 3889 
Q 3391 4416 2625 4416 
Q 1856 4416 1465 3889 
Q 1075 3363 1075 2328 
Q 1075 1297 1465 770 
Q 1856 244 2625 244 
z
M 2625 -91 
Q 2150 -91 1751 65 
Q 1353 222 1050 525 
Q 700 875 529 1319 
Q 359 1763 359 2328 
Q 359 2894 529 3339 
Q 700 3784 1050 4134 
Q 1356 4441 1750 4595 
Q 2144 4750 2625 4750 
Q 3641 4750 4266 4084 
Q 4891 3419 4891 2328 
Q 4891 1769 4719 1320 
Q 4547 872 4197 525 
Q 3891 219 3497 64 
Q 3103 -91 2625 -91 
z
" transform="scale(0.015625)"/>
      <path id="DejaVuSerif-76" d="M 1581 0 
L 359 2988 
L -19 2988 
L -19 3322 
L 1509 3322 
L 1509 2988 
L 978 2988 
L 1913 703 
L 2847 2988 
L 2350 2988 
L 2350 3322 
L 3597 3322 
L 3597 2988 
L 3225 2988 
L 2003 0 
L 1581 0 
z
" transform="scale(0.015625)"/>
     </defs>
     <use xlink:href="#DejaVuSerif-4e"/>
     <use xlink:href="#DejaVuSerif-6f" x="87.5"/>
     <use xlink:href="#DejaVuSerif-72" x="147.705078"/>
     <use xlink:href="#DejaVuSerif-6d" x="195.507812"/>
     <use xlink:href="#DejaVuSerif-61" x="290.332031"/>
     <use xlink:href="#DejaVuSerif-6c" x="349.951172"/>
     <use xlink:href="#DejaVuSerif-69" x="381.933594"/>
     <use xlink:href="#DejaVuSerif-7a" x="413.916016"/>
     <use xlink:href="#DejaVuSerif-65" x="466.601562"/>
     <use xlink:href="#DejaVuSerif-64" x="525.78125"/>
     <use xlink:href="#DejaVuSerif-20" x="589.794922"/>
     <use xlink:href="#DejaVuSerif-53" x="621.582031"/>
     <use xlink:href="#DejaVuSerif-74" x="690.087891"/>
     <use xlink:href="#DejaVuSerif-61" x="730.273438"/>
     <use xlink:href="#DejaVuSerif-74" x="789.892578"/>
     <use xlink:href="#DejaVuSerif-65" x="830.078125"/>
     <use xlink:href="#DejaVuSerif-73" x="889.257812"/>
     <use xlink:href="#DejaVuSerif-20" x="940.576172"/>
     <use xlink:href="#DejaVuSerif-61" x="972.363281"/>
     <use xlink:href="#DejaVuSerif-6e" x="1031.982422"/>
     <use xlink:href="#DejaVuSerif-64" x="1096.386719"/>
     <use xlink:href="#DejaVuSerif-20" x="1160.400391"/>
     <use xlink:href="#DejaVuSerif-43" x="1192.1875"/>
     <use xlink:href="#DejaVuSerif-6f" x="1268.701172"/>
     <use xlink:href="#DejaVuSerif-6e" x="1328.90625"/>
     <use xlink:href="#DejaVuSerif-74" x="1393.310547"/>
     <use xlink:href="#DejaVuSerif-72" x="1433.496094"/>
     <use xlink:href="#DejaVuSerif-6f" x="1481.298828"/>
     <use xlink:href="#DejaVuSerif-6c" x="1541.503906"/>
     <use xlink:href="#DejaVuSerif-20" x="1573.486328"/>
     <use xlink:href="#DejaVuSerif-50" x="1605.273438"/>
     <use xlink:href="#DejaVuSerif-6f" x="1668.558594"/>
     <use xlink:href="#DejaVuSerif-6c" x="1728.763672"/>
     <use xlink:href="#DejaVuSerif-69" x="1760.746094"/>
     <use xlink:href="#DejaVuSerif-63" x="1792.728516"/>
     <use xlink:href="#DejaVuSerif-79" x="1848.734375"/>
     <use xlink:href="#DejaVuSerif-20" x="1905.228516"/>
     <use xlink:href="#DejaVuSerif-4f" x="1937.015625"/>
     <use xlink:href="#DejaVuSerif-76" x="2018.998047"/>
     <use xlink:href="#DejaVuSerif-65" x="2075.492188"/>
     <use xlink:href="#DejaVuSerif-72" x="2134.671875"/>
     <use xlink:href="#DejaVuSerif-20" x="2182.474609"/>
     <use xlink:href="#DejaVuSerif-54" x="2214.261719"/>
     <use xlink:href="#DejaVuSerif-69" x="2280.960938"/>
     <use xlink:href="#DejaVuSerif-6d" x="2312.943359"/>
     <use xlink:href="#DejaVuSerif-65" x="2407.767578"/>
    </g>
   </g>
   <g id="legend_1">
    <g id="patch_7">
     <path d="M 488.1 135.894375 
L 693.3 135.894375 
Q 696.3 135.894375 696.3 132.894375 
L 696.3 45.66 
Q 696.3 42.66 693.3 42.66 
L 488.1 42.66 
Q 485.1 42.66 485.1 45.66 
L 485.1 132.894375 
Q 485.1 135.894375 488.1 135.894375 
z
" style="fill: #ffffff; opacity: 0.8; stroke: #cccccc; stroke-linejoin: miter"/>
    </g>
    <g id="line2d_37">
     <path d="M 491.1 54.807656 
L 506.1 54.807656 
L 521.1 54.807656 
" style="fill: none; stroke-dasharray: 9.6,2.4,1.5,2.4; stroke-dashoffset: 0; stroke: #1f77b4; stroke-width: 1.5"/>
     <g>
      <use xlink:href="#m18d61ffb72" x="506.1" y="54.807656" style="fill: #1f77b4; stroke: #1f77b4"/>
     </g>
    </g>
    <g id="text_20">
     <!-- State 1, $\pi$ 1 -->
     <g transform="translate(533.1 60.057656) scale(0.15 -0.15)">
      <defs>
       <path id="DejaVuSerif-Bold-53" d="M 494 225 
L 494 1331 
L 891 1331 
Q 981 806 1318 547 
Q 1656 288 2253 288 
Q 2738 288 2991 472 
Q 3244 656 3244 1013 
Q 3244 1294 3072 1450 
Q 2900 1606 2363 1741 
L 1663 1913 
Q 978 2088 700 2398 
Q 422 2709 422 3284 
Q 422 3978 883 4364 
Q 1344 4750 2175 4750 
Q 2584 4750 3026 4681 
Q 3469 4613 3944 4475 
L 3944 3444 
L 3547 3444 
Q 3456 3925 3150 4148 
Q 2844 4372 2278 4372 
Q 1816 4372 1580 4211 
Q 1344 4050 1344 3731 
Q 1344 3441 1506 3289 
Q 1669 3138 2303 2975 
L 3003 2803 
Q 3653 2641 3945 2297 
Q 4238 1953 4238 1350 
Q 4238 644 3750 276 
Q 3263 -91 2316 -91 
Q 1859 -91 1409 -12 
Q 959 66 494 225 
z
" transform="scale(0.015625)"/>
       <path id="DejaVuSerif-Bold-74" d="M 634 2944 
L 153 2944 
L 153 3322 
L 634 3322 
L 634 4353 
L 1741 4353 
L 1741 3322 
L 2663 3322 
L 2663 2944 
L 1741 2944 
L 1741 909 
Q 1741 475 1809 369 
Q 1878 263 2059 263 
Q 2259 263 2356 397 
Q 2453 531 2459 813 
L 2925 813 
Q 2897 313 2651 111 
Q 2406 -91 1806 -91 
Q 1122 -91 878 123 
Q 634 338 634 909 
L 634 2944 
z
" transform="scale(0.015625)"/>
       <path id="DejaVuSerif-Bold-61" d="M 3525 2041 
L 3525 378 
L 4000 378 
L 4000 0 
L 2419 0 
L 2419 422 
Q 2200 159 1931 34 
Q 1663 -91 1319 -91 
Q 809 -91 536 182 
Q 263 456 263 966 
Q 263 1525 655 1803 
Q 1047 2081 1838 2081 
L 2419 2081 
L 2419 2278 
Q 2419 2681 2228 2873 
Q 2038 3066 1638 3066 
Q 1306 3066 1126 2930 
Q 947 2794 872 2484 
L 519 2484 
L 519 3200 
Q 816 3306 1134 3359 
Q 1453 3413 1806 3413 
Q 2697 3413 3111 3081 
Q 3525 2750 3525 2041 
z
M 2419 1044 
L 2419 1709 
L 2003 1709 
Q 1694 1709 1528 1540 
Q 1363 1372 1363 1056 
Q 1363 741 1483 584 
Q 1603 428 1850 428 
Q 2106 428 2262 597 
Q 2419 766 2419 1044 
z
" transform="scale(0.015625)"/>
       <path id="DejaVuSerif-Bold-65" d="M 2566 1875 
Q 2566 2531 2444 2795 
Q 2322 3059 2028 3059 
Q 1744 3059 1620 2800 
Q 1497 2541 1497 1931 
L 1497 1875 
L 2566 1875 
z
M 3781 1503 
L 1497 1503 
L 1497 1478 
Q 1497 834 1690 548 
Q 1884 263 2316 263 
Q 2675 263 2897 453 
Q 3119 644 3181 1006 
L 3700 1006 
Q 3566 441 3166 175 
Q 2766 -91 2047 -91 
Q 1184 -91 723 364 
Q 263 819 263 1663 
Q 263 2488 734 2950 
Q 1206 3413 2047 3413 
Q 2872 3413 3312 2927 
Q 3753 2441 3781 1503 
z
" transform="scale(0.015625)"/>
       <path id="DejaVuSerif-Bold-20" transform="scale(0.015625)"/>
       <path id="DejaVuSerif-Bold-2c" d="M 84 -616 
Q 409 -353 562 -28 
Q 716 297 716 728 
L 716 997 
L 1606 997 
L 1606 972 
Q 1606 281 1317 -217 
Q 1028 -716 428 -1056 
L 84 -616 
z
" transform="scale(0.015625)"/>
       <path id="DejaVuSans-BoldOblique-3c0" d="M 622 3500 
L 5038 3500 
L 4881 2700 
L 4269 2700 
L 3963 1131 
Q 3919 900 3919 784 
Q 3919 672 3944 631 
Q 4000 531 4175 531 
Q 4353 531 4456 544 
L 4341 -44 
Q 4134 -122 3469 -122 
Q 3259 -122 3069 -63 
Q 2725 47 2725 388 
Q 2725 516 2766 728 
L 3150 2700 
L 2197 2700 
L 1672 0 
L 553 0 
L 1078 2700 
L 466 2700 
L 622 3500 
z
" transform="scale(0.015625)"/>
      </defs>
      <use xlink:href="#DejaVuSerif-Bold-53" transform="translate(0 0.78125)"/>
      <use xlink:href="#DejaVuSerif-Bold-74" transform="translate(72.216797 0.78125)"/>
      <use xlink:href="#DejaVuSerif-Bold-61" transform="translate(118.408203 0.78125)"/>
      <use xlink:href="#DejaVuSerif-Bold-74" transform="translate(183.203125 0.78125)"/>
      <use xlink:href="#DejaVuSerif-Bold-65" transform="translate(229.394531 0.78125)"/>
      <use xlink:href="#DejaVuSerif-Bold-20" transform="translate(293.017578 0.78125)"/>
      <use xlink:href="#DejaVuSerif-Bold-31" transform="translate(327.832031 0.78125)"/>
      <use xlink:href="#DejaVuSerif-Bold-2c" transform="translate(397.412109 0.78125)"/>
      <use xlink:href="#DejaVuSerif-Bold-20" transform="translate(432.226562 0.78125)"/>
      <use xlink:href="#DejaVuSans-BoldOblique-3c0" transform="translate(467.041016 0.78125)"/>
      <use xlink:href="#DejaVuSerif-Bold-20" transform="translate(546.142578 0.78125)"/>
      <use xlink:href="#DejaVuSerif-Bold-31" transform="translate(580.957031 0.78125)"/>
     </g>
    </g>
    <g id="line2d_38">
     <path d="M 491.1 76.827187 
L 491.1 76.827187 
L 506.1 76.827187 
L 506.1 76.827187 
L 521.1 76.827187 
" style="fill: none; stroke-dasharray: 5.55,2.4; stroke-dashoffset: 0; stroke: #ff7f0e; stroke-width: 1.5"/>
     <g>
      <use xlink:href="#mfe54686108" x="506.1" y="76.827187" style="fill: #ff7f0e; stroke: #ff7f0e"/>
     </g>
    </g>
    <g id="text_21">
     <!-- Control Policy, $\pi$ 1 -->
     <g transform="translate(533.1 82.077187) scale(0.15 -0.15)">
      <defs>
       <path id="DejaVuSerif-Bold-43" d="M 4769 1331 
Q 4584 609 4106 259 
Q 3628 -91 2822 -91 
Q 1641 -91 955 561 
Q 269 1213 269 2328 
Q 269 3447 955 4098 
Q 1641 4750 2822 4750 
Q 3238 4750 3688 4650 
Q 4138 4550 4641 4347 
L 4641 3200 
L 4244 3200 
Q 4122 3788 3800 4080 
Q 3478 4372 2950 4372 
Q 2269 4372 1937 3870 
Q 1606 3369 1606 2328 
Q 1606 1288 1937 788 
Q 2269 288 2956 288 
Q 3422 288 3717 547 
Q 4013 806 4147 1331 
L 4769 1331 
z
" transform="scale(0.015625)"/>
       <path id="DejaVuSerif-Bold-6f" d="M 2138 263 
Q 2488 263 2630 563 
Q 2772 863 2772 1663 
Q 2772 2463 2631 2761 
Q 2491 3059 2138 3059 
Q 1784 3059 1640 2757 
Q 1497 2456 1497 1663 
Q 1497 869 1640 566 
Q 1784 263 2138 263 
z
M 2138 -91 
Q 1259 -91 761 376 
Q 263 844 263 1663 
Q 263 2484 761 2948 
Q 1259 3413 2138 3413 
Q 3019 3413 3516 2948 
Q 4013 2484 4013 1663 
Q 4013 844 3514 376 
Q 3016 -91 2138 -91 
z
" transform="scale(0.015625)"/>
       <path id="DejaVuSerif-Bold-6e" d="M 219 0 
L 219 378 
L 691 378 
L 691 2944 
L 219 2944 
L 219 3322 
L 1797 3322 
L 1797 2853 
Q 1997 3150 2253 3281 
Q 2509 3413 2900 3413 
Q 3459 3413 3745 3083 
Q 4031 2753 4031 2113 
L 4031 378 
L 4506 378 
L 4506 0 
L 2522 0 
L 2522 378 
L 2925 378 
L 2925 2144 
Q 2925 2566 2817 2730 
Q 2709 2894 2444 2894 
Q 2109 2894 1953 2648 
Q 1797 2403 1797 1869 
L 1797 378 
L 2203 378 
L 2203 0 
L 219 0 
z
" transform="scale(0.015625)"/>
       <path id="DejaVuSerif-Bold-72" d="M 3438 3359 
L 3438 2369 
L 3084 2369 
Q 3066 2634 2941 2764 
Q 2816 2894 2578 2894 
Q 2216 2894 2006 2575 
Q 1797 2256 1797 1691 
L 1797 378 
L 2400 378 
L 2400 0 
L 219 0 
L 219 378 
L 691 378 
L 691 2944 
L 184 2944 
L 184 3322 
L 1797 3322 
L 1797 2731 
Q 1959 3078 2226 3245 
Q 2494 3413 2881 3413 
Q 2978 3413 3117 3398 
Q 3256 3384 3438 3359 
z
" transform="scale(0.015625)"/>
       <path id="DejaVuSerif-Bold-6c" d="M 1797 378 
L 2272 378 
L 2272 0 
L 219 0 
L 219 378 
L 691 378 
L 691 4488 
L 219 4488 
L 219 4863 
L 1797 4863 
L 1797 378 
z
" transform="scale(0.015625)"/>
       <path id="DejaVuSerif-Bold-50" d="M 300 0 
L 300 378 
L 897 378 
L 897 4288 
L 300 4288 
L 300 4666 
L 2956 4666 
Q 3734 4666 4193 4295 
Q 4653 3925 4653 3303 
Q 4653 2678 4192 2304 
Q 3731 1931 2956 1931 
L 2100 1931 
L 2100 378 
L 2853 378 
L 2853 0 
L 300 0 
z
M 2100 2309 
L 2450 2309 
Q 2856 2309 3098 2579 
Q 3341 2850 3341 3303 
Q 3341 3753 3100 4020 
Q 2859 4288 2450 4288 
L 2100 4288 
L 2100 2309 
z
" transform="scale(0.015625)"/>
       <path id="DejaVuSerif-Bold-69" d="M 588 4263 
Q 588 4516 763 4689 
Q 938 4863 1191 4863 
Q 1438 4863 1611 4689 
Q 1784 4516 1784 4263 
Q 1784 4016 1611 3842 
Q 1438 3669 1191 3669 
Q 938 3669 763 3841 
Q 588 4013 588 4263 
z
M 1797 378 
L 2272 378 
L 2272 0 
L 219 0 
L 219 378 
L 691 378 
L 691 2944 
L 219 2944 
L 219 3322 
L 1797 3322 
L 1797 378 
z
" transform="scale(0.015625)"/>
       <path id="DejaVuSerif-Bold-63" d="M 3609 1038 
Q 3491 469 3123 189 
Q 2756 -91 2125 -91 
Q 1238 -91 750 368 
Q 263 828 263 1663 
Q 263 2488 744 2950 
Q 1225 3413 2081 3413 
Q 2428 3413 2781 3347 
Q 3134 3281 3500 3150 
L 3500 2228 
L 3150 2228 
Q 3100 2650 2903 2854 
Q 2706 3059 2350 3059 
Q 1888 3059 1692 2746 
Q 1497 2434 1497 1663 
Q 1497 909 1687 586 
Q 1878 263 2309 263 
Q 2644 263 2845 463 
Q 3047 663 3091 1038 
L 3609 1038 
z
" transform="scale(0.015625)"/>
       <path id="DejaVuSerif-Bold-79" d="M 1997 -750 
Q 1847 -1116 1634 -1269 
Q 1422 -1422 1063 -1422 
Q 909 -1422 721 -1387 
Q 534 -1353 313 -1288 
L 313 -594 
L 666 -597 
Q 675 -838 779 -953 
Q 884 -1069 1094 -1069 
Q 1297 -1069 1422 -958 
Q 1547 -847 1672 -538 
L 1722 -422 
L 275 2944 
L -84 2944 
L -84 3322 
L 1831 3322 
L 1831 2944 
L 1434 2944 
L 2278 978 
L 3066 2944 
L 2625 2944 
L 2625 3322 
L 3872 3322 
L 3872 2944 
L 3469 2944 
L 1997 -750 
z
" transform="scale(0.015625)"/>
      </defs>
      <use xlink:href="#DejaVuSerif-Bold-43" transform="translate(0 0.015625)"/>
      <use xlink:href="#DejaVuSerif-Bold-6f" transform="translate(79.589844 0.015625)"/>
      <use xlink:href="#DejaVuSerif-Bold-6e" transform="translate(146.289062 0.015625)"/>
      <use xlink:href="#DejaVuSerif-Bold-74" transform="translate(218.994141 0.015625)"/>
      <use xlink:href="#DejaVuSerif-Bold-72" transform="translate(265.185547 0.015625)"/>
      <use xlink:href="#DejaVuSerif-Bold-6f" transform="translate(317.871094 0.015625)"/>
      <use xlink:href="#DejaVuSerif-Bold-6c" transform="translate(384.570312 0.015625)"/>
      <use xlink:href="#DejaVuSerif-Bold-20" transform="translate(422.558594 0.015625)"/>
      <use xlink:href="#DejaVuSerif-Bold-50" transform="translate(457.373047 0.015625)"/>
      <use xlink:href="#DejaVuSerif-Bold-6f" transform="translate(532.568359 0.015625)"/>
      <use xlink:href="#DejaVuSerif-Bold-6c" transform="translate(599.267578 0.015625)"/>
      <use xlink:href="#DejaVuSerif-Bold-69" transform="translate(637.255859 0.015625)"/>
      <use xlink:href="#DejaVuSerif-Bold-63" transform="translate(675.244141 0.015625)"/>
      <use xlink:href="#DejaVuSerif-Bold-79" transform="translate(736.132812 0.015625)"/>
      <use xlink:href="#DejaVuSerif-Bold-2c" transform="translate(794.238281 0.015625)"/>
      <use xlink:href="#DejaVuSerif-Bold-20" transform="translate(829.052734 0.015625)"/>
      <use xlink:href="#DejaVuSans-BoldOblique-3c0" transform="translate(863.867188 0.015625)"/>
      <use xlink:href="#DejaVuSerif-Bold-20" transform="translate(942.96875 0.015625)"/>
      <use xlink:href="#DejaVuSerif-Bold-31" transform="translate(977.783203 0.015625)"/>
     </g>
    </g>
    <g id="line2d_39">
     <path d="M 491.1 99.174844 
L 506.1 99.174844 
L 521.1 99.174844 
" style="fill: none; stroke-dasharray: 9.6,2.4,1.5,2.4; stroke-dashoffset: 0; stroke: #2ca02c; stroke-width: 1.5"/>
     <g>
      <use xlink:href="#mba638f95b6" x="506.1" y="99.174844" style="fill: #2ca02c; stroke: #2ca02c"/>
     </g>
    </g>
    <g id="text_22">
     <!-- State 1, $\pi$ 2 -->
     <g transform="translate(533.1 104.424844) scale(0.15 -0.15)">
      <use xlink:href="#DejaVuSerif-Bold-53" transform="translate(0 0.78125)"/>
      <use xlink:href="#DejaVuSerif-Bold-74" transform="translate(72.216797 0.78125)"/>
      <use xlink:href="#DejaVuSerif-Bold-61" transform="translate(118.408203 0.78125)"/>
      <use xlink:href="#DejaVuSerif-Bold-74" transform="translate(183.203125 0.78125)"/>
      <use xlink:href="#DejaVuSerif-Bold-65" transform="translate(229.394531 0.78125)"/>
      <use xlink:href="#DejaVuSerif-Bold-20" transform="translate(293.017578 0.78125)"/>
      <use xlink:href="#DejaVuSerif-Bold-31" transform="translate(327.832031 0.78125)"/>
      <use xlink:href="#DejaVuSerif-Bold-2c" transform="translate(397.412109 0.78125)"/>
      <use xlink:href="#DejaVuSerif-Bold-20" transform="translate(432.226562 0.78125)"/>
      <use xlink:href="#DejaVuSans-BoldOblique-3c0" transform="translate(467.041016 0.78125)"/>
      <use xlink:href="#DejaVuSerif-Bold-20" transform="translate(546.142578 0.78125)"/>
      <use xlink:href="#DejaVuSerif-Bold-32" transform="translate(580.957031 0.78125)"/>
     </g>
    </g>
    <g id="line2d_40">
     <path d="M 491.1 121.194375 
L 491.1 121.194375 
L 506.1 121.194375 
L 506.1 121.194375 
L 521.1 121.194375 
" style="fill: none; stroke-dasharray: 5.55,2.4; stroke-dashoffset: 0; stroke: #d62728; stroke-width: 1.5"/>
     <g>
      <use xlink:href="#m1c42961443" x="506.1" y="121.194375" style="fill: #d62728; stroke: #d62728"/>
     </g>
    </g>
    <g id="text_23">
     <!-- Control Policy, $\pi$ 2 -->
     <g transform="translate(533.1 126.444375) scale(0.15 -0.15)">
      <use xlink:href="#DejaVuSerif-Bold-43" transform="translate(0 0.015625)"/>
      <use xlink:href="#DejaVuSerif-Bold-6f" transform="translate(79.589844 0.015625)"/>
      <use xlink:href="#DejaVuSerif-Bold-6e" transform="translate(146.289062 0.015625)"/>
      <use xlink:href="#DejaVuSerif-Bold-74" transform="translate(218.994141 0.015625)"/>
      <use xlink:href="#DejaVuSerif-Bold-72" transform="translate(265.185547 0.015625)"/>
      <use xlink:href="#DejaVuSerif-Bold-6f" transform="translate(317.871094 0.015625)"/>
      <use xlink:href="#DejaVuSerif-Bold-6c" transform="translate(384.570312 0.015625)"/>
      <use xlink:href="#DejaVuSerif-Bold-20" transform="translate(422.558594 0.015625)"/>
      <use xlink:href="#DejaVuSerif-Bold-50" transform="translate(457.373047 0.015625)"/>
      <use xlink:href="#DejaVuSerif-Bold-6f" transform="translate(532.568359 0.015625)"/>
      <use xlink:href="#DejaVuSerif-Bold-6c" transform="translate(599.267578 0.015625)"/>
      <use xlink:href="#DejaVuSerif-Bold-69" transform="translate(637.255859 0.015625)"/>
      <use xlink:href="#DejaVuSerif-Bold-63" transform="translate(675.244141 0.015625)"/>
      <use xlink:href="#DejaVuSerif-Bold-79" transform="translate(736.132812 0.015625)"/>
      <use xlink:href="#DejaVuSerif-Bold-2c" transform="translate(794.238281 0.015625)"/>
      <use xlink:href="#DejaVuSerif-Bold-20" transform="translate(829.052734 0.015625)"/>
      <use xlink:href="#DejaVuSans-BoldOblique-3c0" transform="translate(863.867188 0.015625)"/>
      <use xlink:href="#DejaVuSerif-Bold-20" transform="translate(942.96875 0.015625)"/>
      <use xlink:href="#DejaVuSerif-Bold-32" transform="translate(977.783203 0.015625)"/>
     </g>
    </g>
   </g>
  </g>
 </g>
 <defs>
  <clipPath id="pee67affd52">
   <rect x="90.29" y="35.16" width="613.51" height="341.56"/>
  </clipPath>
 </defs>
</svg>
